<svg width="1250" height="868" viewBox="0 0 1250 868" fill="none" xmlns="http://www.w3.org/2000/svg">
<g clip-path="url(#clip0_2_274)">
<rect width="1250" height="868" fill="white"/>
<path d="M354.137 255.277L431.968 127.913L368.566 89.2024L290.735 216.567L354.137 255.277Z" fill="#01739E"/>
<path d="M-7.14315 560.23L70.7277 432.801L-56.7341 354.978L-134.605 482.407L-7.14315 560.23Z" fill="#01B0F1"/>
<path d="M98.9666 99.268L255.134 -156.287L127.135 -234.438L-29.0325 21.1171L98.9666 99.268Z" fill="#01B0F1"/>
<path d="M70.8554 432.838L148.945 305.052L21.2684 227.098L-56.8209 354.884L70.8554 432.838Z" fill="#EC3138"/>
<path d="M226.912 177.387L304.845 49.8558L176.913 -28.2536L98.9802 99.2773L226.912 177.387Z" fill="#FFCE2F"/>
<path d="M148.742 305.317L187.353 242.134L123.642 203.235L85.0312 266.418L148.742 305.317Z" fill="#01739E"/>
<path d="M173.856 407.641L212.741 344.008L149.092 305.147L110.207 368.78L173.856 407.641Z" fill="#01739E"/>
<path d="M-56.9773 355.303L21.0558 227.609L-107.274 149.256L-185.307 276.95L-56.9773 355.303Z" fill="#476ACA"/>
<path d="M276.454 382.754L198.298 510.65C162.967 489.078 151.834 442.961 173.413 407.649C194.992 372.337 241.123 361.183 276.454 382.754V382.754Z" fill="#FFCE2F"/>
<path d="M258.683 411.84L216.068 481.576C196.809 469.818 190.735 444.676 202.501 425.422C214.267 406.168 239.418 400.092 258.677 411.85L258.683 411.84Z" fill="#EC3138"/>
<path d="M-42.738 187.864L21.2277 226.919L-18.0696 291.225C-53.314 269.44 -64.3674 223.259 -42.738 187.864Z" fill="#FFCE2F"/>
<path d="M-10.585 207.526L21.2141 226.942L1.57479 259.079C-15.9076 248.153 -21.3654 225.168 -10.585 207.526Z" fill="#01739E"/>
<path d="M-56.0541 355.336L70.7531 432.759L-7.14366 560.229C-76.9988 517.046 -98.9227 425.51 -56.0439 355.343L-56.0541 355.336Z" fill="#01739E"/>
<path d="M7.68196 394.311L70.718 432.798L31.7883 496.503C-2.87606 474.847 -13.6919 429.287 7.68196 394.311V394.311Z" fill="#FFCE2F"/>
<path d="M-43.2825 188.339L34.8798 60.4333L59.7587 163.444L-43.2825 188.339Z" fill="#01B0F1"/>
<path d="M-21.3564 152.453L12.9554 96.305L23.8742 141.534L-21.3564 152.453Z" fill="#476ACA"/>
<path d="M162.82 138.551L137.931 35.5509L34.8742 60.4455L59.763 163.446L162.82 138.551Z" fill="#01739E"/>
<path d="M34.8772 60.4333L98.9797 99.2629L59.7568 163.447L34.8772 60.4333Z" fill="#EC3138"/>
<path d="M162.802 138.562L98.9805 99.2727L137.923 35.5476L162.802 138.562Z" fill="#EC3138"/>
<path d="M276.408 382.483L314.72 319.789L251.071 280.928L212.759 343.622L276.408 382.483Z" fill="#01739E"/>
<path d="M314.72 319.789L212.765 343.612L276.278 382.305L314.72 319.789Z" fill="#476ACA"/>
<path d="M162.949 138.639L138.064 35.6383L241.105 10.7436L241.172 11.0231L163.259 138.521L163.31 138.552L162.949 138.639Z" fill="#01B0F1"/>
<path d="M163.319 138.558L163.268 138.527L241.18 11.0295L265.998 113.751L163.319 138.558Z" fill="white"/>
<path d="M230.114 91.8483L219.188 46.6324L173.947 57.5608L184.873 102.777L230.114 91.8483Z" fill="#476ACA"/>
<path d="M-107.283 149.262L-43.2891 188.334L34.8671 60.4385L-29.1266 21.3667L-107.283 149.262Z" fill="#01739E"/>
<path d="M-29.0297 21.1126L127.134 -234.438L64.8986 -272.437L-91.265 -16.886L-29.0297 21.1126Z" fill="#EC3138"/>
<path d="M-28.8563 21.0848L-28.9584 21.0225L126.955 -234.115L176.607 -28.5638L-28.8563 21.0848Z" fill="white"/>
<path d="M315.002 320.081L354.575 255.322L163.274 138.521L123.7 203.28L315.002 320.081Z" fill="#EC3138"/>
<path d="M279.654 273.552C282.725 286.259 295.521 294.071 308.236 291C320.95 287.928 328.768 275.137 325.697 262.429C322.627 249.722 309.83 241.91 297.116 244.981C284.401 248.053 276.583 260.844 279.654 273.552Z" fill="#FFCE2F"/>
<path d="M222.565 246.09C231.879 255.268 246.874 255.159 256.056 245.847C265.239 236.535 265.132 221.546 255.818 212.369C246.504 203.192 231.509 203.301 222.327 212.613C213.144 221.925 213.251 236.913 222.565 246.09Z" fill="#FFCE2F"/>
<path d="M152.677 196.028C155.748 208.735 168.545 216.547 181.259 213.476C193.974 210.404 201.791 197.613 198.721 184.905C195.65 172.198 182.854 164.386 170.139 167.457C157.425 170.529 149.607 183.32 152.677 196.028Z" fill="#FFCE2F"/>
<path d="M17.9797 662.872L-6.90906 559.872L-109.966 584.766L-85.077 687.766L17.9797 662.872Z" fill="#01B0F1"/>
<path d="M17.9683 662.886L-46.1217 624.036L-6.91132 559.872L17.9683 662.886Z" fill="#EC3138"/>
<path d="M110.269 369.091L85.3793 266.09L-17.6767 290.984L7.21287 393.985L110.269 369.091Z" fill="#01B0F1"/>
<path d="M148.693 305.459C148.693 305.459 117.182 288.281 110.58 260.307C103.968 232.327 123.717 203.452 123.717 203.452C123.717 203.452 154.171 219.928 160.783 247.908C167.395 275.888 148.703 305.465 148.703 305.465L148.693 305.459Z" fill="#FFCE2F"/>
<path d="M250.937 281.128C250.937 281.128 221.26 260.949 193.347 267.849C165.423 274.743 148.738 305.489 148.738 305.489C148.738 305.489 177.307 325.049 205.231 318.155C233.154 311.26 250.947 281.135 250.947 281.135L250.937 281.128Z" fill="#EC3138"/>
<path d="M148.66 305.515C148.66 305.515 118.983 285.335 91.0695 292.236C63.146 299.13 46.4606 329.876 46.4606 329.876C46.4606 329.876 75.03 349.436 102.954 342.541C130.877 335.647 148.67 305.522 148.67 305.522L148.66 305.515Z" fill="#FFCE2F"/>
<path d="M173.681 407.553C173.681 407.553 142.17 390.374 135.569 362.4C128.957 334.42 148.705 305.545 148.705 305.545C148.705 305.545 179.159 322.022 185.771 350.002C192.383 377.982 173.692 407.559 173.692 407.559L173.681 407.553Z" fill="#EC3138"/>
<path d="M7.20671 393.972L46.6516 330.204L-17.6801 290.968L7.20671 393.972Z" fill="#476ACA"/>
<path d="M163.316 138.317L-43.113 188.181L85.032 266.42L163.316 138.317Z" fill="white"/>
<path d="M48.5411 217.679C49.9372 230.677 61.6121 240.081 74.6177 238.684C87.6233 237.286 97.0346 225.616 95.6384 212.617C94.2423 199.619 82.5674 190.215 69.5618 191.613C56.5562 193.01 47.1449 204.681 48.5411 217.679Z" fill="#476ACA"/>
<path d="M383.094 -78.1519L304.855 49.8792L432.5 127.814L510.739 -0.217154L383.094 -78.1519Z" fill="#FFCE2F"/>
<path d="M368.351 88.6432L304.876 49.8882L343.868 -13.9185C378.836 7.69791 389.812 53.5239 368.351 88.6432V88.6432Z" fill="#01B0F1"/>
<path d="M336.422 69.1178L304.868 49.8525L324.358 17.9594C341.707 28.8045 347.121 51.6092 336.422 69.1178V69.1178Z" fill="#01739E"/>
<path d="M343.736 -13.7513L383.09 -78.1517L510.739 -0.21453C489.022 35.3241 442.515 46.5596 406.968 24.8556L343.736 -13.7513Z" fill="#476ACA"/>
<path d="M396.808 81.8268C399.879 94.5344 412.676 102.346 425.39 99.275C438.104 96.2038 445.922 83.4124 442.852 70.7048C439.781 57.9971 426.984 50.1852 414.27 53.2565C401.556 56.3277 393.738 69.1191 396.808 81.8268Z" fill="#EC3138"/>
<path d="M290.367 216.648L265.481 113.647L368.523 88.7527L368.59 89.0323L290.677 216.53L290.728 216.561L290.367 216.648Z" fill="#476ACA"/>
<path d="M290.737 216.567L290.686 216.536L368.598 89.0387L393.416 191.76L290.737 216.567Z" fill="#01B0F1"/>
<path d="M357.54 169.858L346.614 124.642L301.373 135.57L312.299 180.786L357.54 169.858Z" fill="#FFCE2F"/>
<path d="M-7.52698 560.883L198.898 511.002L70.7629 432.769L-7.52698 560.883Z" fill="#01B0F1"/>
<path d="M68.1968 502.028C78.1122 510.552 93.0647 509.426 101.594 499.513C110.124 489.6 109 474.653 99.0846 466.129C89.1692 457.605 74.2166 458.73 65.6872 468.643C57.1577 478.557 58.2813 493.503 68.1968 502.028Z" fill="#476ACA"/>
<path d="M80.6973 703.515L160.931 572.22L55.163 597.791L80.6973 703.515Z" fill="#EC3138"/>
<path d="M55.1635 597.783L-7.12478 560.229L42.6175 765.827L80.6986 703.51L55.1635 597.783Z" fill="#01739E"/>
<path d="M42.6217 765.827L17.9821 662.873L-85.0715 687.778L42.6217 765.827Z" fill="#476ACA"/>
<path d="M99.0889 450.072L42.9234 415.779L88.1567 404.86L99.0889 450.072Z" fill="#01739E"/>
<path d="M109.916 368.96L173.525 407.797L134.664 471.388L109.916 368.96Z" fill="#01B0F1"/>
<path d="M240.678 11.1246C205.355 -10.442 194.211 -56.5684 215.792 -91.8828L343.726 -13.7717C322.145 21.5427 276.011 32.6974 240.678 11.1246V11.1246Z" fill="#476ACA"/>
<path d="M244.265 -74.7305C232.205 -54.9964 238.431 -29.2289 258.17 -17.1773C277.909 -5.12558 303.686 -11.3534 315.746 -31.0876C327.805 -50.8217 321.58 -76.5891 301.841 -88.6408C282.102 -100.692 256.324 -94.4646 244.265 -74.7305Z" fill="#01B0F1"/>
<path d="M1341.32 1099.72L1831.99 348.449L1331.01 21.5263L840.333 772.798L1341.32 1099.72Z" fill="white"/>
<path d="M1131.56 873.448L1172.29 811.1L1046.65 729.118L1005.93 791.466L1131.56 873.448Z" fill="#01739E"/>
<path d="M1047.02 729.366L1128.58 604.495L1065.96 563.63L984.403 688.501L1047.02 729.366Z" fill="#FFCE2F"/>
<path d="M1297.45 892.793L1379.12 767.76L1254.05 686.145L1172.39 811.179L1297.45 892.793Z" fill="#01B0F1"/>
<path d="M1253.8 686.463L1335.63 561.169L1209.71 478.999L1127.88 604.293L1253.8 686.463Z" fill="#476ACA"/>
<path d="M1212.92 749.271L1087.39 667.354C1110.03 632.694 1156.48 622.947 1191.14 645.564C1225.8 668.181 1235.56 714.611 1212.92 749.271V749.271Z" fill="#476ACA"/>
<path d="M1273.06 519.527L1335.82 560.484L1294.61 623.582C1260.04 600.749 1250.37 554.256 1273.06 519.527Z" fill="#FFCE2F"/>
<path d="M1254.72 686.524L1379.14 767.719L1297.45 892.793C1228.92 847.532 1209.76 755.378 1254.73 686.531L1254.72 686.524Z" fill="#01739E"/>
<path d="M1187.91 375.297C1165.28 409.946 1175.04 456.383 1209.7 478.999L1291.66 353.507C1257 330.891 1210.55 340.639 1187.91 375.297Z" fill="#FFCE2F"/>
<path d="M1209.7 479.004L1272.49 519.98L1354.46 394.488L1291.66 353.512L1209.7 479.004Z" fill="#01739E"/>
<path d="M1215.87 393.342C1203.22 412.705 1208.67 438.648 1228.04 451.287C1247.41 463.926 1273.36 458.475 1286.01 439.111C1298.66 419.748 1293.21 393.805 1273.84 381.167C1254.47 368.528 1228.52 373.979 1215.87 393.342Z" fill="#EC3138"/>
<path d="M1294.54 623.696L1253.62 686.345L1127.88 604.29C1150.46 569.71 1196.87 559.963 1231.46 582.535L1294.54 623.696Z" fill="#01B0F1"/>
<path d="M1291.77 353.263L1455.54 102.514L1394.47 62.664L1230.7 313.412L1291.77 353.263Z" fill="#EC3138"/>
<path d="M1137.58 764.482C1140.27 777.276 1152.82 785.468 1165.62 782.78C1178.43 780.092 1186.62 767.541 1183.94 754.747C1181.25 741.952 1168.69 733.76 1155.89 736.448C1143.09 739.136 1134.89 751.687 1137.58 764.482Z" fill="#01B0F1"/>
<path d="M1065.91 564.003L1147.88 438.501L1044.13 460.301L1065.91 564.003Z" fill="#01B0F1"/>
<path d="M1129.24 467.04L1084.55 535.465C1065.66 523.134 1060.34 497.821 1072.68 478.929C1085.02 460.037 1110.34 454.719 1129.24 467.05L1129.24 467.04Z" fill="#476ACA"/>
<path d="M1127.93 604.384L1209.81 479.022L1147.84 438.583L1065.96 563.944L1127.93 604.384Z" fill="#EC3138"/>
<path d="M1135.11 495.646C1138.48 508.278 1151.46 515.787 1164.1 512.417C1176.73 509.048 1184.25 496.076 1180.88 483.444C1177.51 470.812 1164.53 463.303 1151.89 466.673C1139.26 470.043 1131.74 483.015 1135.11 495.646Z" fill="white"/>
<path d="M1093.93 557.116C1096.61 569.91 1109.17 578.102 1121.97 575.414C1134.77 572.726 1142.97 560.175 1140.28 547.38C1137.59 534.586 1125.04 526.394 1112.24 529.082C1099.44 531.77 1091.24 544.321 1093.93 557.116Z" fill="white"/>
<path d="M1394.46 62.6567L1330.91 21.1844L1208.36 208.829L1271.91 250.301L1394.46 62.6567Z" fill="#01739E"/>
<path d="M1243.37 214.204C1252.43 223.636 1267.42 223.943 1276.86 214.89C1286.29 205.836 1286.6 190.851 1277.55 181.418C1268.49 171.986 1253.5 171.679 1244.06 180.732C1234.63 189.786 1234.32 204.772 1243.37 214.204Z" fill="#01B0F1"/>
<path d="M1230.87 313.491L1272.08 250.403L1208.36 208.824L1167.16 271.912L1230.87 313.491Z" fill="#EC3138"/>
<path d="M1271.9 250.673L1167.14 271.932L1230.73 313.34L1271.9 250.673Z" fill="#FFCE2F"/>
<path d="M1025.12 625.738C1025.12 625.738 994.139 607.622 988.38 579.462C982.621 551.303 1003.22 523.027 1003.22 523.027C1003.22 523.027 1033.16 540.411 1038.93 568.576C1044.7 596.742 1025.13 625.745 1025.13 625.745L1025.12 625.738Z" fill="#01739E"/>
<path d="M1128.05 604.488C1128.05 604.488 1098.99 583.426 1070.88 589.486C1042.77 595.538 1025.16 625.769 1025.16 625.769C1025.16 625.769 1053.13 646.178 1081.25 640.125C1109.37 634.073 1128.06 604.495 1128.06 604.495L1128.05 604.488Z" fill="#476ACA"/>
<path d="M1025.09 625.794C1025.09 625.794 996.028 604.732 967.92 610.792C939.802 616.844 922.201 647.075 922.201 647.075C922.201 647.075 950.171 667.484 978.289 661.431C1006.41 655.379 1025.1 625.801 1025.1 625.801L1025.09 625.794Z" fill="#01739E"/>
<path d="M1047.03 728.537C1047.03 728.537 1016.05 710.42 1010.29 682.26C1004.52 654.094 1025.13 625.825 1025.13 625.825C1025.13 625.825 1055.08 643.209 1060.84 671.375C1066.61 699.541 1047.04 728.543 1047.04 728.543L1047.03 728.537Z" fill="#476ACA"/>
<path d="M1108.94 769.884L1149.46 707.848L1087.4 667.355L1046.89 729.391L1108.94 769.884Z" fill="#01739E"/>
<path d="M1149.46 707.848L1108.93 769.894L1046.87 729.394L1149.46 707.848Z" fill="#01B0F1"/>
<path d="M902.693 813.16L943.446 750.763L881.033 710.035L840.28 772.432L902.693 813.16Z" fill="#FFCE2F"/>
<path d="M943.446 750.763L902.693 813.16L840.27 772.425L943.446 750.763Z" fill="#EC3138"/>
<path d="M984.191 688.355L921.778 647.627L881.025 710.024L943.438 750.752L984.191 688.355Z" fill="#476ACA"/>
<path d="M921.779 647.626L984.202 688.361L943.442 750.768L921.779 647.626Z" fill="#01B0F1"/>
<path d="M1090.31 935.6L1131.07 873.2L943.361 750.709L902.607 813.108L1090.31 935.6Z" fill="#01B0F1"/>
<path d="M1061.91 900.1C1070.9 909.589 1085.89 909.99 1095.39 900.996C1104.88 892.002 1105.29 877.018 1096.29 867.529C1087.29 858.04 1072.3 857.639 1062.81 866.633C1053.32 875.627 1052.91 890.611 1061.91 900.1Z" fill="#476ACA"/>
<path d="M993.65 848.013C996.338 860.807 1008.89 869 1021.69 866.311C1034.5 863.623 1042.69 851.072 1040.01 838.278C1037.32 825.484 1024.76 817.291 1011.96 819.98C999.161 822.668 990.962 835.219 993.65 848.013Z" fill="#476ACA"/>
<path d="M937.305 818.793C946.301 828.282 961.291 828.683 970.785 819.689C980.279 810.695 980.683 795.712 971.686 786.223C962.69 776.734 947.701 776.333 938.207 785.327C928.712 794.321 928.309 809.304 937.305 818.793Z" fill="#476ACA"/>
<path d="M1069.19 832.742L943.445 750.687L984.362 688.038L1047.44 729.2C1082.03 751.771 1091.77 798.162 1069.19 832.742Z" fill="#EC3138"/>
<path d="M1297.69 892.437L1193.94 914.227L1131.07 873.213L1172.38 811.165L1297.69 892.437Z" fill="#FFCE2F"/>
<path d="M1130.73 872.958C1130.73 872.958 1099.75 854.841 1093.99 826.682C1088.22 798.516 1108.83 770.246 1108.83 770.246C1108.83 770.246 1138.77 787.63 1144.54 815.796C1150.31 843.962 1130.74 872.964 1130.74 872.964L1130.73 872.958Z" fill="#EC3138"/>
<path d="M1154.89 328.236C1157.58 341.03 1170.13 349.222 1182.94 346.534C1195.74 343.846 1203.93 331.295 1201.25 318.5C1198.56 305.706 1186 297.514 1173.2 300.202C1160.4 302.89 1152.2 315.441 1154.89 328.236Z" fill="#01739E"/>
<path d="M1113.96 390.926C1116.65 403.72 1129.2 411.912 1142.01 409.224C1154.81 406.536 1163 393.985 1160.32 381.19C1157.63 368.396 1145.07 360.204 1132.27 362.892C1119.47 365.58 1111.27 378.131 1113.96 390.926Z" fill="#01739E"/>
<path d="M1147.87 438.502L1085.04 397.645L1044.12 460.302L1147.87 438.502Z" fill="#FFCE2F"/>
</g>
<defs>
<clipPath id="clip0_2_274">
<rect width="1250" height="868" fill="white"/>
</clipPath>
</defs>
</svg>
