<svg width="1440" height="988" viewBox="0 0 1440 988" fill="none" xmlns="http://www.w3.org/2000/svg">
<g clip-path="url(#clip0_2_274)">
<rect width="1440" height="988" fill="white"/>
<path d="M86.9114 765.92L554.802 0.256958L44.2289 -311.477L-423.662 454.186L86.9114 765.92Z" fill="white"/>
<path d="M398.137 255.45L475.968 128.086L412.566 89.3749L334.735 216.739L398.137 255.45Z" fill="#01739E"/>
<path d="M36.8569 560.402L114.728 432.973L-12.734 355.151L-90.6049 482.58L36.8569 560.402Z" fill="#01B0F1"/>
<path d="M142.967 99.4405L299.134 -156.115L171.135 -234.266L14.9675 21.2896L142.967 99.4405Z" fill="#01B0F1"/>
<path d="M114.855 433.01L192.945 305.224L65.2684 227.27L-12.8209 355.057L114.855 433.01Z" fill="#EC3138"/>
<path d="M270.912 177.559L348.845 50.0282L220.913 -28.0812L142.98 99.4497L270.912 177.559Z" fill="#FFCE2F"/>
<path d="M192.742 305.49L231.353 242.306L167.642 203.407L129.031 266.591L192.742 305.49Z" fill="#01739E"/>
<path d="M217.856 407.813L256.741 344.181L193.092 305.319L154.207 368.952L217.856 407.813Z" fill="#01739E"/>
<path d="M-12.9772 355.475L65.0559 227.781L-63.2739 149.429L-141.307 277.123L-12.9772 355.475Z" fill="#476ACA"/>
<path d="M320.454 382.927L242.298 510.822C206.967 489.251 195.834 443.133 217.413 407.821C238.992 372.509 285.123 361.355 320.454 382.927V382.927Z" fill="#FFCE2F"/>
<path d="M302.683 412.012L260.068 481.749C240.809 469.99 234.735 444.848 246.501 425.595C258.267 406.341 283.418 400.264 302.677 412.023L302.683 412.012Z" fill="#EC3138"/>
<path d="M1.26203 188.037L65.2278 227.091L25.9305 291.398C-9.31389 269.613 -20.3674 223.431 1.26203 188.037Z" fill="#FFCE2F"/>
<path d="M33.415 207.699L65.2141 227.114L45.5748 259.252C28.0925 248.326 22.6346 225.34 33.415 207.699Z" fill="#01739E"/>
<path d="M-12.0541 355.509L114.753 432.931L36.8564 560.402C-32.9987 517.219 -54.9227 425.682 -12.0439 355.515L-12.0541 355.509Z" fill="#01739E"/>
<path d="M51.682 394.484L114.718 432.97L75.7884 496.675C41.124 475.02 30.3081 429.46 51.682 394.484V394.484Z" fill="#FFCE2F"/>
<path d="M0.717526 188.512L78.8799 60.6058L103.759 163.617L0.717526 188.512Z" fill="#01B0F1"/>
<path d="M22.6437 152.626L56.9555 96.4776L67.8742 141.707L22.6437 152.626Z" fill="#476ACA"/>
<path d="M206.82 138.724L181.931 35.7234L78.8744 60.618L103.763 163.618L206.82 138.724Z" fill="#01739E"/>
<path d="M78.8774 60.6058L142.98 99.4354L103.757 163.62L78.8774 60.6058Z" fill="#EC3138"/>
<path d="M206.803 138.734L142.981 99.4452L181.923 35.7201L206.803 138.734Z" fill="#EC3138"/>
<path d="M320.408 382.655L358.72 319.961L295.071 281.1L256.759 343.794L320.408 382.655Z" fill="#01739E"/>
<path d="M358.72 319.961L256.765 343.784L320.278 382.478L358.72 319.961Z" fill="#476ACA"/>
<path d="M206.949 138.812L182.064 35.8109L285.105 10.9162L285.172 11.1957L207.259 138.693L207.31 138.724L206.949 138.812Z" fill="#01B0F1"/>
<path d="M207.319 138.731L207.268 138.7L285.18 11.2021L309.998 113.923L207.319 138.731Z" fill="white"/>
<path d="M274.114 92.0209L263.188 46.8049L217.947 57.7334L228.873 102.949L274.114 92.0209Z" fill="#476ACA"/>
<path d="M-88.1745 46.4282C-109.754 81.7404 -98.6101 127.864 -63.2895 149.429L14.8667 21.5334C-20.4539 -0.0317771 -66.5892 11.1058 -88.1745 46.4282Z" fill="#FFCE2F"/>
<path d="M-63.2826 149.435L0.711182 188.507L78.8673 60.611L14.8736 21.5392L-63.2826 149.435Z" fill="#01739E"/>
<path d="M-59.6881 63.6256C-71.7476 83.3597 -65.5221 109.127 -45.7832 121.179C-26.0443 133.23 -0.266591 127.003 11.7929 107.269C23.8523 87.5344 17.6269 61.7669 -2.11208 49.7153C-21.851 37.6636 -47.6287 43.8915 -59.6881 63.6256Z" fill="#EC3138"/>
<path d="M25.8586 291.514L-13.1589 355.363L-141.308 277.121C-119.772 241.878 -73.6769 230.742 -38.4254 252.265L25.8586 291.514Z" fill="#01B0F1"/>
<path d="M14.9706 21.2851L171.134 -234.266L108.899 -272.265L-47.2647 -16.7136L14.9706 21.2851Z" fill="#EC3138"/>
<path d="M15.144 21.2573L15.0419 21.195L170.955 -233.943L220.608 -28.3914L15.144 21.2573Z" fill="white"/>
<path d="M359.002 320.254L398.575 255.494L207.274 138.693L167.7 203.453L359.002 320.254Z" fill="#EC3138"/>
<path d="M323.654 273.724C326.725 286.432 339.521 294.244 352.236 291.172C364.95 288.101 372.768 275.31 369.697 262.602C366.627 249.894 353.83 242.083 341.116 245.154C328.401 248.225 320.583 261.017 323.654 273.724Z" fill="#FFCE2F"/>
<path d="M266.565 246.263C275.879 255.44 290.874 255.331 300.056 246.019C309.239 236.707 309.132 221.719 299.818 212.541C290.504 203.364 275.509 203.473 266.327 212.785C257.144 222.097 257.251 237.086 266.565 246.263Z" fill="#FFCE2F"/>
<path d="M196.677 196.2C199.748 208.908 212.545 216.72 225.259 213.648C237.974 210.577 245.791 197.786 242.721 185.078C239.65 172.37 226.854 164.559 214.139 167.63C201.425 170.701 193.607 183.493 196.677 196.2Z" fill="#FFCE2F"/>
<path d="M61.9799 663.044L37.0911 560.044L-65.9657 584.939L-41.0769 687.939L61.9799 663.044Z" fill="#01B0F1"/>
<path d="M61.9683 663.059L-2.12173 624.209L37.0887 560.045L61.9683 663.059Z" fill="#EC3138"/>
<path d="M154.269 369.264L129.379 266.263L26.3234 291.157L51.2129 394.158L154.269 369.264Z" fill="#01B0F1"/>
<path d="M192.693 305.632C192.693 305.632 161.182 288.453 154.58 260.479C147.968 232.499 167.717 203.624 167.717 203.624C167.717 203.624 198.171 220.101 204.783 248.081C211.395 276.061 192.703 305.638 192.703 305.638L192.693 305.632Z" fill="#FFCE2F"/>
<path d="M294.937 281.301C294.937 281.301 265.26 261.121 237.347 268.021C209.423 274.916 192.738 305.661 192.738 305.661C192.738 305.661 221.307 325.221 249.231 318.327C277.154 311.433 294.947 281.307 294.947 281.307L294.937 281.301Z" fill="#EC3138"/>
<path d="M192.66 305.688C192.66 305.688 162.983 285.508 135.069 292.408C107.146 299.303 90.4606 330.048 90.4606 330.048C90.4606 330.048 119.03 349.608 146.954 342.714C174.877 335.82 192.67 305.694 192.67 305.694L192.66 305.688Z" fill="#FFCE2F"/>
<path d="M217.681 407.725C217.681 407.725 186.17 390.547 179.569 362.573C172.957 334.593 192.705 305.718 192.705 305.718C192.705 305.718 223.159 322.194 229.771 350.174C236.383 378.154 217.692 407.731 217.692 407.731L217.681 407.725Z" fill="#EC3138"/>
<path d="M51.2068 394.145L90.6516 330.377L26.3199 291.141L51.2068 394.145Z" fill="#476ACA"/>
<path d="M207.316 138.489L0.887083 188.353L129.032 266.593L207.316 138.489Z" fill="white"/>
<path d="M92.5412 217.851C93.9374 230.85 105.612 240.254 118.618 238.856C131.623 237.458 141.035 225.788 139.639 212.79C138.242 199.791 126.567 190.387 113.562 191.785C100.556 193.183 91.145 204.853 92.5412 217.851Z" fill="#476ACA"/>
<path d="M37.0833 560.039L-65.9641 584.934L-130.04 545.826L-90.6104 482.565L37.0833 560.039Z" fill="#FFCE2F"/>
<path d="M427.094 -77.9795L348.855 50.0516L476.5 127.986L554.739 -0.0446691L427.094 -77.9795Z" fill="#FFCE2F"/>
<path d="M412.351 88.8157L348.876 50.0607L387.868 -13.746C422.836 7.8704 433.812 53.6964 412.351 88.8157V88.8157Z" fill="#01B0F1"/>
<path d="M380.422 69.2902L348.868 50.025L368.358 18.1319C385.707 28.977 391.121 51.7817 380.422 69.2902V69.2902Z" fill="#01739E"/>
<path d="M387.736 -13.5789L427.09 -77.9792L554.739 -0.0420445C533.022 35.4966 486.515 46.732 450.968 25.0281L387.736 -13.5789Z" fill="#476ACA"/>
<path d="M440.808 81.9992C443.879 94.7069 456.676 102.519 469.39 99.4475C482.104 96.3762 489.922 83.5849 486.852 70.8772C483.781 58.1695 470.984 50.3577 458.27 53.4289C445.556 56.5002 437.738 69.2915 440.808 81.9992Z" fill="#EC3138"/>
<path d="M334.367 216.821L309.481 113.82L412.523 88.9253L412.59 89.2049L334.677 216.702L334.728 216.734L334.367 216.821Z" fill="#476ACA"/>
<path d="M334.737 216.74L334.686 216.709L412.598 89.2112L437.416 191.933L334.737 216.74Z" fill="#01B0F1"/>
<path d="M401.54 170.03L390.614 124.814L345.373 135.743L356.299 180.958L401.54 170.03Z" fill="#FFCE2F"/>
<path d="M36.4731 561.055L242.898 511.175L114.763 432.942L36.4731 561.055Z" fill="#01B0F1"/>
<path d="M112.197 502.2C122.112 510.725 137.065 509.599 145.594 499.686C154.124 489.772 153 474.826 143.085 466.301C133.169 457.777 118.217 458.903 109.687 468.816C101.158 478.729 102.281 493.676 112.197 502.2Z" fill="#476ACA"/>
<path d="M124.697 703.687L204.931 572.392L99.1631 597.963L124.697 703.687Z" fill="#EC3138"/>
<path d="M99.1635 597.956L36.8753 560.402L86.6175 765.999L124.699 703.683L99.1635 597.956Z" fill="#01739E"/>
<path d="M86.6218 765.999L61.9822 663.045L-41.0715 687.951L86.6218 765.999Z" fill="#476ACA"/>
<path d="M143.089 450.244L86.9235 415.952L132.157 405.033L143.089 450.244Z" fill="#01739E"/>
<path d="M153.916 369.133L217.525 407.969L178.664 471.561L153.916 369.133Z" fill="#01B0F1"/>
<path d="M284.678 11.2971C249.356 -10.2695 238.211 -56.3959 259.792 -91.7103L387.726 -13.5992C366.146 21.7152 320.011 32.8699 284.678 11.2971V11.2971Z" fill="#476ACA"/>
<path d="M288.265 -74.558C276.206 -54.8239 282.431 -29.0564 302.17 -17.0048C321.909 -4.9531 347.687 -11.181 359.746 -30.9151C371.805 -50.6492 365.58 -76.4167 345.841 -88.4683C326.102 -100.52 300.324 -94.2921 288.265 -74.558Z" fill="#01B0F1"/>
<path d="M1489.32 1099.72L1979.99 348.449L1479.01 21.5263L988.333 772.798L1489.32 1099.72Z" fill="white"/>
<path d="M1279.56 873.448L1320.29 811.1L1194.65 729.118L1153.93 791.466L1279.56 873.448Z" fill="#01739E"/>
<path d="M1195.03 729.366L1276.58 604.495L1213.96 563.63L1132.4 688.501L1195.03 729.366Z" fill="#FFCE2F"/>
<path d="M1445.45 892.793L1527.12 767.76L1402.05 686.145L1320.39 811.179L1445.45 892.793Z" fill="#01B0F1"/>
<path d="M1565.36 435.224L1729.13 184.472L1603.54 102.513L1439.77 353.266L1565.36 435.224Z" fill="#01B0F1"/>
<path d="M1527.24 767.799L1609.14 642.415L1483.86 560.663L1401.97 686.047L1527.24 767.799Z" fill="#EC3138"/>
<path d="M1401.8 686.463L1483.63 561.169L1357.71 478.999L1275.88 604.293L1401.8 686.463Z" fill="#476ACA"/>
<path d="M1360.92 749.272L1235.39 667.354C1258.03 632.694 1304.48 622.947 1339.14 645.564C1373.8 668.182 1383.56 714.611 1360.92 749.272V749.272Z" fill="#476ACA"/>
<path d="M1421.06 519.527L1483.82 560.484L1442.61 623.582C1408.04 600.749 1398.37 554.256 1421.06 519.527Z" fill="#FFCE2F"/>
<path d="M1452.61 540.145L1483.81 560.506L1463.21 592.04C1446.07 580.593 1441.3 557.454 1452.61 540.145Z" fill="#01739E"/>
<path d="M1400.31 415.722L1399.58 416.844L1399.39 415.917L1400.31 415.722Z" fill="#01B0F1"/>
<path d="M1402.72 686.524L1527.14 767.719L1445.45 892.793C1376.92 847.532 1357.76 755.378 1402.73 686.531L1402.72 686.524Z" fill="#01739E"/>
<path d="M1465.25 727.394L1527.11 767.757L1486.28 830.264C1452.28 807.577 1442.84 761.713 1465.25 727.394V727.394Z" fill="#FFCE2F"/>
<path d="M1420.5 519.985L1502.47 394.484L1524.24 498.196L1420.5 519.985Z" fill="#01B0F1"/>
<path d="M1335.91 375.297C1313.28 409.946 1323.04 456.383 1357.7 478.999L1439.66 353.507C1405 330.891 1358.55 340.639 1335.91 375.297Z" fill="#FFCE2F"/>
<path d="M1357.7 479.004L1420.49 519.98L1502.46 394.488L1439.66 353.512L1357.7 479.004Z" fill="#01739E"/>
<path d="M1363.87 393.342C1351.23 412.705 1356.67 438.648 1376.04 451.287C1395.41 463.926 1421.36 458.475 1434.01 439.111C1446.66 419.748 1441.21 393.805 1421.84 381.167C1402.47 368.528 1376.52 373.979 1363.87 393.342Z" fill="#EC3138"/>
<path d="M1442.54 623.696L1401.62 686.345L1275.88 604.29C1298.46 569.71 1344.87 559.963 1379.46 582.535L1442.54 623.696Z" fill="#01B0F1"/>
<path d="M1439.77 353.263L1603.54 102.514L1542.47 62.6639L1378.7 313.412L1439.77 353.263Z" fill="#EC3138"/>
<path d="M1439.94 353.239L1439.84 353.173L1603.35 102.831L1646.81 309.781L1439.94 353.239Z" fill="white"/>
<path d="M1285.58 764.482C1288.27 777.276 1300.82 785.468 1313.62 782.78C1326.43 780.092 1334.62 767.541 1331.94 754.747C1329.25 741.952 1316.69 733.76 1303.89 736.448C1291.09 739.136 1282.89 751.687 1285.58 764.482Z" fill="#01B0F1"/>
<path d="M1213.91 564.003L1295.88 438.501L1192.13 460.301L1213.91 564.003Z" fill="#01B0F1"/>
<path d="M1277.24 467.04L1232.55 535.465C1213.66 523.134 1208.34 497.821 1220.68 478.929C1233.02 460.037 1258.34 454.719 1277.24 467.05L1277.24 467.04Z" fill="#476ACA"/>
<path d="M1275.93 604.384L1357.81 479.022L1295.84 438.583L1213.96 563.944L1275.93 604.384Z" fill="#EC3138"/>
<path d="M1283.11 495.646C1286.48 508.278 1299.46 515.787 1312.1 512.417C1324.73 509.048 1332.25 496.076 1328.88 483.444C1325.51 470.812 1312.53 463.303 1299.89 466.673C1287.26 470.043 1279.74 483.015 1283.11 495.646Z" fill="white"/>
<path d="M1241.93 557.116C1244.61 569.91 1257.17 578.102 1269.97 575.414C1282.77 572.726 1290.97 560.175 1288.28 547.38C1285.59 534.586 1273.04 526.394 1260.24 529.082C1247.44 531.77 1239.24 544.321 1241.93 557.116Z" fill="white"/>
<path d="M1542.46 62.6566L1478.91 21.1843L1356.36 208.829L1419.91 250.301L1542.46 62.6566Z" fill="#01739E"/>
<path d="M1429.05 122.949C1422.07 134.008 1425.38 148.627 1436.45 155.6C1447.51 162.574 1462.13 159.261 1469.11 148.202C1476.09 137.143 1472.78 122.524 1461.71 115.551C1450.65 108.577 1436.03 111.889 1429.05 122.949Z" fill="#01B0F1"/>
<path d="M1391.37 214.204C1400.43 223.636 1415.42 223.943 1424.86 214.89C1434.29 205.836 1434.6 190.851 1425.55 181.418C1416.49 171.986 1401.5 171.679 1392.06 180.732C1382.63 189.786 1382.32 204.772 1391.37 214.204Z" fill="#01B0F1"/>
<path d="M1467.48 996.143L1445.7 892.441L1341.94 914.231L1363.72 1017.93L1467.48 996.143Z" fill="#01B0F1"/>
<path d="M1341.95 914.224L1404.58 955.392L1363.72 1017.94L1341.95 914.224Z" fill="#EC3138"/>
<path d="M1467.47 996.156L1404.58 955.4L1445.7 892.442L1467.47 996.156Z" fill="#EC3138"/>
<path d="M1378.87 313.491L1420.08 250.403L1356.36 208.824L1315.16 271.912L1378.87 313.491Z" fill="#EC3138"/>
<path d="M1419.9 250.673L1315.14 271.932L1378.73 313.34L1419.9 250.673Z" fill="#FFCE2F"/>
<path d="M1464.79 727.04L1506.13 664.485L1443.01 623.335L1464.79 727.04Z" fill="#476ACA"/>
<path d="M1628.51 476.187L1420.67 519.831L1546.41 601.882L1628.51 476.187Z" fill="white"/>
<path d="M1173.12 625.738C1173.12 625.738 1142.14 607.622 1136.38 579.462C1130.62 551.303 1151.22 523.027 1151.22 523.027C1151.22 523.027 1181.16 540.411 1186.93 568.576C1192.7 596.742 1173.13 625.745 1173.13 625.745L1173.12 625.738Z" fill="#01739E"/>
<path d="M1276.05 604.488C1276.05 604.488 1246.99 583.426 1218.88 589.486C1190.77 595.538 1173.16 625.769 1173.16 625.769C1173.16 625.769 1201.13 646.178 1229.25 640.125C1257.37 634.073 1276.06 604.495 1276.06 604.495L1276.05 604.488Z" fill="#476ACA"/>
<path d="M1173.09 625.794C1173.09 625.794 1144.03 604.732 1115.92 610.792C1087.8 616.844 1070.2 647.075 1070.2 647.075C1070.2 647.075 1098.17 667.484 1126.29 661.431C1154.41 655.379 1173.1 625.801 1173.1 625.801L1173.09 625.794Z" fill="#01739E"/>
<path d="M1195.03 728.537C1195.03 728.537 1164.05 710.42 1158.29 682.26C1152.52 654.094 1173.13 625.825 1173.13 625.825C1173.13 625.825 1203.08 643.209 1208.84 671.375C1214.61 699.541 1195.04 728.543 1195.04 728.543L1195.03 728.537Z" fill="#476ACA"/>
<path d="M1256.94 769.884L1297.46 707.848L1235.4 667.355L1194.89 729.391L1256.94 769.884Z" fill="#01739E"/>
<path d="M1297.46 707.848L1256.93 769.894L1194.87 729.394L1297.46 707.848Z" fill="#01B0F1"/>
<path d="M1050.69 813.16L1091.45 750.763L1029.03 710.035L988.28 772.432L1050.69 813.16Z" fill="#FFCE2F"/>
<path d="M1091.45 750.763L1050.69 813.16L988.27 772.425L1091.45 750.763Z" fill="#EC3138"/>
<path d="M1132.19 688.355L1069.78 647.627L1029.03 710.024L1091.44 750.752L1132.19 688.355Z" fill="#476ACA"/>
<path d="M1069.78 647.626L1132.2 688.361L1091.44 750.768L1069.78 647.626Z" fill="#01B0F1"/>
<path d="M1238.31 935.6L1279.07 873.2L1091.36 750.709L1050.61 813.108L1238.31 935.6Z" fill="#01B0F1"/>
<path d="M1209.91 900.1C1218.9 909.589 1233.89 909.99 1243.39 900.996C1252.88 892.002 1253.29 877.018 1244.29 867.529C1235.29 858.04 1220.3 857.639 1210.81 866.633C1201.32 875.627 1200.91 890.611 1209.91 900.1Z" fill="#476ACA"/>
<path d="M1141.65 848.013C1144.34 860.807 1156.89 869 1169.69 866.311C1182.5 863.623 1190.69 851.072 1188.01 838.278C1185.32 825.484 1172.76 817.291 1159.96 819.98C1147.16 822.668 1138.96 835.219 1141.65 848.013Z" fill="#476ACA"/>
<path d="M1085.31 818.793C1094.3 828.282 1109.29 828.683 1118.78 819.689C1128.28 810.695 1128.68 795.712 1119.69 786.223C1110.69 776.734 1095.7 776.333 1086.21 785.327C1076.71 794.321 1076.31 809.304 1085.31 818.793Z" fill="#476ACA"/>
<path d="M1217.19 832.742L1091.45 750.687L1132.36 688.038L1195.44 729.2C1230.03 751.771 1239.77 798.162 1217.19 832.742Z" fill="#EC3138"/>
<path d="M1445.69 892.437L1341.94 914.227L1279.07 873.213L1320.38 811.165L1445.69 892.437Z" fill="#FFCE2F"/>
<path d="M1278.73 872.958C1278.73 872.958 1247.75 854.841 1241.99 826.682C1236.22 798.516 1256.83 770.246 1256.83 770.246C1256.83 770.246 1286.77 787.63 1292.54 815.796C1298.31 843.962 1278.74 872.964 1278.74 872.964L1278.73 872.958Z" fill="#EC3138"/>
<path d="M1300.67 976.25C1300.67 976.25 1269.69 958.133 1263.93 929.974C1258.16 901.808 1278.77 873.538 1278.77 873.538C1278.77 873.538 1308.72 890.922 1314.49 919.088C1320.25 947.254 1300.68 976.256 1300.68 976.256L1300.67 976.25Z" fill="#EC3138"/>
<path d="M1506.6 932.2L1445.47 892.793L1489.02 1099.79L1528.95 1038.65L1506.6 932.2Z" fill="#01739E"/>
<path d="M1489.02 1099.79L1467.48 996.144L1363.73 1017.94L1489.02 1099.79Z" fill="#476ACA"/>
<path d="M1302.89 328.235C1305.58 341.03 1318.13 349.222 1330.94 346.534C1343.74 343.845 1351.93 331.294 1349.25 318.5C1346.56 305.706 1334 297.514 1321.2 300.202C1308.4 302.89 1300.2 315.441 1302.89 328.235Z" fill="#01739E"/>
<path d="M1261.96 390.925C1264.65 403.72 1277.2 411.912 1290.01 409.224C1302.81 406.535 1311.01 393.984 1308.32 381.19C1305.63 368.396 1293.07 360.204 1280.27 362.892C1267.47 365.58 1259.27 378.131 1261.96 390.925Z" fill="#01739E"/>
<path d="M1295.87 438.502L1233.04 397.645L1192.12 460.302L1295.87 438.502Z" fill="#FFCE2F"/>
</g>
<defs>
<clipPath id="clip0_2_274">
<rect width="1440" height="988" fill="white"/>
</clipPath>
</defs>
</svg>
