<svg width="504" height="878" viewBox="0 0 504 878" fill="none" xmlns="http://www.w3.org/2000/svg">
<path d="M35.4906 877.225L503.381 111.562L-7.19192 -200.172L-475.083 565.491L35.4906 877.225Z" fill="white"/>
<path d="M346.716 366.756L424.547 239.392L361.145 200.681L283.314 328.045L346.716 366.756Z" fill="#01739E"/>
<path d="M-14.5637 671.708L63.3071 544.279L-64.1546 466.457L-142.026 593.885L-14.5637 671.708Z" fill="#01B0F1"/>
<path d="M91.546 210.747L247.713 -44.8086L119.714 -122.96L-36.4531 132.596L91.546 210.747Z" fill="#01B0F1"/>
<path d="M63.4347 544.316L141.524 416.53L13.8477 338.577L-64.2415 466.363L63.4347 544.316Z" fill="#EC3138"/>
<path d="M219.491 288.865L297.424 161.334L169.493 83.2246L91.5595 210.755L219.491 288.865Z" fill="#FFCE2F"/>
<path d="M141.321 416.796L179.932 353.612L116.222 314.713L77.6106 377.897L141.321 416.796Z" fill="#01739E"/>
<path d="M166.435 519.119L205.321 455.486L141.672 416.625L102.786 480.258L166.435 519.119Z" fill="#01739E"/>
<path d="M-64.3979 466.781L13.6353 339.087L-114.695 260.734L-192.728 388.429L-64.3979 466.781Z" fill="#476ACA"/>
<path d="M269.034 494.232L190.878 622.128C155.547 600.557 144.413 554.439 165.992 519.127C187.571 483.815 233.703 472.661 269.034 494.232Z" fill="#FFCE2F"/>
<path d="M251.262 523.318L208.647 593.055C189.389 581.296 183.314 556.154 195.08 536.901C206.846 517.647 231.998 511.57 251.256 523.329L251.262 523.318Z" fill="#EC3138"/>
<path d="M-50.1586 299.343L13.8071 338.397L-25.4902 402.704C-60.7345 380.919 -71.788 334.737 -50.1586 299.343Z" fill="#FFCE2F"/>
<path d="M-18.0056 319.005L13.7935 338.42L-5.84581 370.558C-23.3282 359.632 -28.786 336.646 -18.0056 319.005Z" fill="#01739E"/>
<path d="M-63.4747 466.815L63.3325 544.237L-14.5643 671.708C-84.4194 628.525 -106.343 536.988 -63.4645 466.821L-63.4747 466.815Z" fill="#01739E"/>
<path d="M0.261366 505.79L63.2974 544.276L24.3677 607.981C-10.2967 586.326 -21.1125 540.766 0.261366 505.79Z" fill="#FFCE2F"/>
<path d="M-50.7031 299.817L27.4592 171.912L52.3381 274.923L-50.7031 299.817Z" fill="#01B0F1"/>
<path d="M-28.777 263.932L5.53484 207.784L16.4536 253.013L-28.777 263.932Z" fill="#476ACA"/>
<path d="M155.399 250.03L130.51 147.029L27.453 171.924L52.3418 274.924L155.399 250.03Z" fill="#01739E"/>
<path d="M27.4561 171.912L91.5586 210.741L52.3357 274.926L27.4561 171.912Z" fill="#EC3138"/>
<path d="M155.381 250.04L91.5594 210.751L130.502 147.026L155.381 250.04Z" fill="#EC3138"/>
<path d="M268.987 493.962L307.299 431.268L243.651 392.407L205.338 455.101L268.987 493.962Z" fill="#01739E"/>
<path d="M307.299 431.268L205.345 455.09L268.857 493.784L307.299 431.268Z" fill="#476ACA"/>
<path d="M155.527 250.118L130.642 147.117L233.684 122.222L233.751 122.502L155.838 249.999L155.889 250.03L155.527 250.118Z" fill="#01B0F1"/>
<path d="M155.898 250.037L155.846 250.005L233.759 122.508L258.577 225.229L155.898 250.037Z" fill="white"/>
<path d="M222.693 203.326L211.768 158.11L166.527 169.039L177.453 214.255L222.693 203.326Z" fill="#476ACA"/>
<path d="M-114.704 260.741L-50.71 299.812L27.4462 171.917L-36.5475 132.845L-114.704 260.741Z" fill="#01739E"/>
<path d="M-36.4507 132.591L119.713 -122.96L57.4775 -160.959L-98.6861 94.5925L-36.4507 132.591Z" fill="#EC3138"/>
<path d="M-36.2774 132.564L-36.3795 132.501L119.534 -122.637L169.186 82.9149L-36.2774 132.564Z" fill="white"/>
<path d="M103.653 42.8281L79.5 -57.126L-20.5089 -32.9676L3.64379 66.9865L103.653 42.8281Z" fill="#476ACA"/>
<path d="M307.581 431.559L347.155 366.8L155.853 249.999L116.28 314.758L307.581 431.559Z" fill="#EC3138"/>
<path d="M272.233 385.029C275.304 397.736 288.1 405.548 300.815 402.477C313.529 399.406 321.347 386.614 318.277 373.907C315.206 361.199 302.41 353.387 289.695 356.459C276.981 359.53 269.163 372.321 272.233 385.029Z" fill="#FFCE2F"/>
<path d="M215.144 357.568C224.458 366.745 239.453 366.636 248.635 357.324C257.818 348.012 257.711 333.024 248.397 323.846C239.083 314.669 224.089 314.778 214.906 324.09C205.724 333.402 205.83 348.391 215.144 357.568Z" fill="#FFCE2F"/>
<path d="M145.257 307.505C148.327 320.213 161.124 328.025 173.838 324.953C186.553 321.882 194.371 309.091 191.3 296.383C188.229 283.676 175.433 275.864 162.719 278.935C150.004 282.006 142.186 294.798 145.257 307.505Z" fill="#FFCE2F"/>
<path d="M57.4572 -160.965L-7.31152 -200.511L-124.175 -9.27215L-59.4066 30.2731L57.4572 -160.965Z" fill="#01739E"/>
<path d="M10.5587 774.35L-14.3301 671.35L-117.387 696.244L-92.4981 799.245L10.5587 774.35Z" fill="#01B0F1"/>
<path d="M10.5476 774.364L-53.5424 735.514L-14.332 671.35L10.5476 774.364Z" fill="#EC3138"/>
<path d="M102.848 480.569L77.9585 377.568L-25.0975 402.462L-0.207967 505.463L102.848 480.569Z" fill="#01B0F1"/>
<path d="M141.272 416.937C141.272 416.937 109.761 399.759 103.16 371.785C96.5476 343.805 116.296 314.93 116.296 314.93C116.296 314.93 146.75 331.407 153.362 359.387C159.974 387.367 141.283 416.944 141.283 416.944L141.272 416.937Z" fill="#FFCE2F"/>
<path d="M243.516 392.607C243.516 392.607 213.84 372.427 185.926 379.327C158.003 386.221 141.317 416.967 141.317 416.967C141.317 416.967 169.887 436.527 197.81 429.633C225.734 422.738 243.526 392.613 243.526 392.613L243.516 392.607Z" fill="#EC3138"/>
<path d="M141.239 416.993C141.239 416.993 111.562 396.813 83.6488 403.714C55.7253 410.608 39.0399 441.354 39.0399 441.354C39.0399 441.354 67.6093 460.914 95.5329 454.019C123.456 447.125 141.249 416.999 141.249 416.999L141.239 416.993Z" fill="#FFCE2F"/>
<path d="M166.261 519.031C166.261 519.031 134.75 501.853 128.148 473.879C121.536 445.899 141.285 417.024 141.285 417.024C141.285 417.024 171.738 433.5 178.35 461.48C184.962 489.46 166.271 519.037 166.271 519.037L166.261 519.031Z" fill="#EC3138"/>
<path d="M-0.213882 505.45L39.231 441.683L-25.1007 402.447L-0.213882 505.45Z" fill="#476ACA"/>
<path d="M155.895 249.795L-50.5336 299.659L77.6114 377.898L155.895 249.795Z" fill="white"/>
<path d="M41.1205 329.157C42.5167 342.155 54.1916 351.559 67.1972 350.161C80.2028 348.764 89.6141 337.093 88.2179 324.095C86.8217 311.097 75.1468 301.693 62.1413 303.09C49.1357 304.488 39.7244 316.158 41.1205 329.157Z" fill="#476ACA"/>
<path d="M375.673 33.3263L297.434 161.357L425.08 239.292L503.319 111.261L375.673 33.3263Z" fill="#FFCE2F"/>
<path d="M360.93 200.121L297.455 161.366L336.447 97.5595C371.416 119.176 382.392 165.002 360.93 200.121Z" fill="#01B0F1"/>
<path d="M329.001 180.595L297.447 161.33L316.937 129.437C334.286 140.282 339.7 163.087 329.001 180.595Z" fill="#01739E"/>
<path d="M336.315 97.7266L375.669 33.3262L503.318 111.263C481.601 146.802 435.095 158.037 399.547 136.334L336.315 97.7266Z" fill="#476ACA"/>
<path d="M389.388 193.305C392.458 206.013 405.255 213.825 417.969 210.753C430.684 207.682 438.501 194.891 435.431 182.183C432.36 169.475 419.564 161.664 406.849 164.735C394.135 167.806 386.317 180.597 389.388 193.305Z" fill="#EC3138"/>
<path d="M282.945 328.127L258.06 225.126L361.102 200.231L361.169 200.511L283.256 328.008L283.307 328.039L282.945 328.127Z" fill="#476ACA"/>
<path d="M283.316 328.045L283.264 328.014L361.177 200.517L385.995 303.238L283.316 328.045Z" fill="#01B0F1"/>
<path d="M350.119 281.335L339.193 236.119L293.953 247.048L304.878 292.264L350.119 281.335Z" fill="#FFCE2F"/>
<path d="M-14.9476 672.361L191.477 622.48L63.3423 544.247L-14.9476 672.361Z" fill="#01B0F1"/>
<path d="M60.7761 613.505C70.6915 622.03 85.6441 620.904 94.1735 610.991C102.703 601.078 101.579 586.131 91.664 577.607C81.7485 569.082 66.796 570.208 58.2665 580.121C49.7371 590.034 50.8607 604.981 60.7761 613.505Z" fill="#476ACA"/>
<path d="M73.2767 814.993L153.51 683.698L47.7424 709.269L73.2767 814.993Z" fill="#EC3138"/>
<path d="M47.7429 709.262L-14.5454 671.708L35.1969 877.305L73.278 814.989L47.7429 709.262Z" fill="#01739E"/>
<path d="M35.2011 877.305L10.5615 774.351L-92.4921 799.256L35.2011 877.305Z" fill="#476ACA"/>
<path d="M91.6683 561.55L35.5028 527.257L80.7361 516.338L91.6683 561.55Z" fill="#01739E"/>
<path d="M102.496 480.438L166.104 519.274L127.243 582.866L102.496 480.438Z" fill="#01B0F1"/>
<path d="M233.257 122.603C197.935 101.037 186.79 54.9104 208.371 19.5959L336.305 97.707C314.725 133.021 268.591 144.176 233.257 122.603Z" fill="#476ACA"/>
<path d="M336.3 97.7145L375.655 33.3135L247.721 -44.7976L208.365 19.6035L336.3 97.7145Z" fill="#EC3138"/>
<path d="M236.844 36.748C224.785 56.4821 231.01 82.2496 250.749 94.3013C270.488 106.353 296.266 100.125 308.325 80.391C320.385 60.6568 314.159 34.8894 294.42 22.8377C274.681 10.786 248.904 17.0139 236.844 36.748Z" fill="#01B0F1"/>
</svg>
