<svg width="21" height="20" viewBox="0 0 21 20" fill="none" xmlns="http://www.w3.org/2000/svg">
<path d="M10.502 0C8.52415 0 6.59075 0.58649 4.94626 1.6853C3.30176 2.78412 2.02004 4.3459 1.26316 6.17317C0.506286 8.00043 0.308253 10.0111 0.694105 11.9509C1.07996 13.8907 2.03236 15.6725 3.43089 17.0711C4.82941 18.4696 6.61125 19.422 8.55105 19.8079C10.4909 20.1937 12.5015 19.9957 14.3288 19.2388C16.1561 18.4819 17.7178 17.2002 18.8167 15.5557C19.9155 13.9112 20.502 11.9778 20.502 10C20.499 7.34873 19.4445 4.80688 17.5698 2.93215C15.6951 1.05742 13.1532 0.0029116 10.502 0ZM10.502 18C8.91971 18 7.37299 17.5308 6.0574 16.6518C4.7418 15.7727 3.71642 14.5233 3.11092 13.0615C2.50542 11.5997 2.34699 9.99113 2.65568 8.43928C2.96436 6.88743 3.72628 5.46197 4.8451 4.34315C5.96392 3.22433 7.38939 2.4624 8.94124 2.15372C10.4931 1.84504 12.1016 2.00346 13.5634 2.60896C15.0252 3.21447 16.2747 4.23984 17.1537 5.55544C18.0328 6.87103 18.502 8.41775 18.502 10C18.4996 12.121 17.656 14.1544 16.1562 15.6542C14.6564 17.154 12.623 17.9976 10.502 18Z" fill="#01B0F1"/>
<path d="M7.50195 4.44629V15.5543L16.389 10.0003L7.50195 4.44629ZM9.50195 8.05429L12.615 10.0003L9.50195 11.9463V8.05429Z" fill="#01B0F1"/>
</svg>
