<svg width="137" height="100" viewBox="0 0 137 100" fill="none" xmlns="http://www.w3.org/2000/svg">
<path d="M124.255 98.6141V98.8799H124.493C124.545 98.8799 124.591 98.867 124.623 98.8464C124.653 98.8257 124.671 98.7896 124.671 98.7457C124.671 98.7018 124.653 98.6683 124.623 98.6476C124.591 98.6244 124.545 98.6141 124.493 98.6141H124.255ZM124.495 98.4283C124.618 98.4283 124.713 98.4567 124.781 98.5134C124.849 98.5702 124.881 98.6476 124.881 98.7457C124.881 98.8283 124.856 98.8954 124.801 98.9496C124.748 99.0012 124.673 99.0348 124.573 99.0477L124.889 99.4219H124.643L124.35 99.0503H124.255V99.4219H124.049V98.4283H124.495ZM124.433 99.7651C124.545 99.7651 124.651 99.7419 124.746 99.698C124.844 99.6542 124.929 99.5948 125.001 99.52C125.074 99.4451 125.132 99.3574 125.174 99.2541C125.214 99.1535 125.237 99.0451 125.237 98.929C125.237 98.8128 125.214 98.7044 125.174 98.6038C125.132 98.5031 125.074 98.4128 125.001 98.3379C124.929 98.2631 124.844 98.2037 124.746 98.1599C124.651 98.1186 124.545 98.0979 124.433 98.0979C124.32 98.0979 124.212 98.1186 124.115 98.1599C124.014 98.2037 123.927 98.2631 123.854 98.3379C123.781 98.4128 123.724 98.5031 123.684 98.6038C123.641 98.7044 123.621 98.8128 123.621 98.929C123.621 99.0451 123.641 99.1535 123.684 99.2541C123.724 99.3574 123.781 99.4451 123.854 99.52C123.927 99.5948 124.014 99.6542 124.115 99.698C124.212 99.7419 124.32 99.7651 124.433 99.7651ZM124.433 97.8579C124.581 97.8579 124.716 97.8863 124.846 97.9431C124.974 97.9973 125.084 98.0747 125.182 98.1728C125.277 98.2683 125.352 98.3818 125.407 98.5134C125.462 98.6425 125.49 98.7819 125.49 98.929C125.49 99.0761 125.462 99.2154 125.407 99.3445C125.352 99.4735 125.277 99.5871 125.182 99.6851C125.084 99.7806 124.974 99.8581 124.846 99.9148C124.716 99.9716 124.581 100 124.433 100C124.282 100 124.145 99.9716 124.014 99.9148C123.884 99.8581 123.771 99.7806 123.676 99.6851C123.581 99.5871 123.506 99.4735 123.451 99.3445C123.396 99.2154 123.368 99.0761 123.368 98.929C123.368 98.7819 123.396 98.6425 123.451 98.5134C123.506 98.3818 123.581 98.2683 123.676 98.1728C123.771 98.0747 123.884 97.9973 124.014 97.9431C124.145 97.8863 124.282 97.8579 124.433 97.8579ZM26.8282 94.0306C26.8282 92.1362 28.0332 90.58 30.0023 90.58C31.8836 90.58 33.1538 92.0691 33.1538 94.0306C33.1538 95.992 31.8836 97.4811 30.0023 97.4811C28.0332 97.4811 26.8282 95.9249 26.8282 94.0306ZM35.2982 94.0306V88.6418H33.0235V89.9503C32.302 88.9799 31.2072 88.3708 29.7192 88.3708C26.7856 88.3708 24.4858 90.74 24.4858 94.0306C24.4858 97.3237 26.7856 99.6903 29.7192 99.6903C31.2072 99.6903 32.302 99.0812 33.0235 98.1108V99.4193H35.2982V94.0306ZM112.167 94.0306C112.167 92.1362 113.372 90.58 115.341 90.58C117.225 90.58 118.493 92.0691 118.493 94.0306C118.493 95.992 117.225 97.4811 115.341 97.4811C113.372 97.4811 112.167 95.9249 112.167 94.0306ZM120.64 94.0306V84.3138H118.363V89.9503C117.641 88.9799 116.546 88.3708 115.058 88.3708C112.125 88.3708 109.825 90.74 109.825 94.0306C109.825 97.3237 112.125 99.6903 115.058 99.6903C116.546 99.6903 117.641 99.0812 118.363 98.1108V99.4193H120.64V94.0306ZM63.5342 90.469C64.9997 90.469 65.9417 91.4162 66.1822 93.0834H60.7534C60.9964 91.5272 61.9133 90.469 63.5342 90.469ZM63.5793 88.3708C60.5129 88.3708 58.3685 90.6703 58.3685 94.0306C58.3685 97.4579 60.6006 99.6903 63.7321 99.6903C65.3078 99.6903 66.7508 99.2851 68.021 98.1805L66.9062 96.4436C66.0293 97.1637 64.912 97.5714 63.8623 97.5714C62.3968 97.5714 61.0615 96.872 60.7334 94.9313H68.502C68.5245 94.6396 68.547 94.3454 68.547 94.0306C68.5245 90.6703 66.5103 88.3708 63.5793 88.3708ZM91.0461 94.0306C91.0461 92.1362 92.2511 90.58 94.2202 90.58C96.1016 90.58 97.3717 92.0691 97.3717 94.0306C97.3717 95.992 96.1016 97.4811 94.2202 97.4811C92.2511 97.4811 91.0461 95.9249 91.0461 94.0306ZM99.5162 94.0306V88.6418H97.2414V89.9503C96.5175 88.9799 95.4252 88.3708 93.9371 88.3708C91.0035 88.3708 88.7038 90.74 88.7038 94.0306C88.7038 97.3237 91.0035 99.6903 93.9371 99.6903C95.4252 99.6903 96.5175 99.0812 97.2414 98.1108V99.4193H99.5162V94.0306ZM78.1995 94.0306C78.1995 97.3005 80.4091 99.6903 83.7811 99.6903C85.3568 99.6903 86.4065 99.329 87.5439 98.4051L86.4516 96.5107C85.5973 97.143 84.7005 97.4811 83.7134 97.4811C81.8972 97.4579 80.5619 96.1055 80.5619 94.0306C80.5619 91.9556 81.8972 90.6032 83.7134 90.58C84.7005 90.58 85.5973 90.9181 86.4516 91.5504L87.5439 89.6561C86.4065 88.7321 85.3568 88.3708 83.7811 88.3708C80.4091 88.3708 78.1995 90.7607 78.1995 94.0306ZM107.528 88.3708C106.215 88.3708 105.361 89.0031 104.77 89.9503V88.6418H102.515V99.4193H104.792V93.3776C104.792 91.5943 105.536 90.6032 107.024 90.6032C107.485 90.6032 107.966 90.6703 108.447 90.8742L109.149 88.665C108.645 88.4611 107.989 88.3708 107.528 88.3708ZM46.549 89.4986C45.4542 88.7554 43.9461 88.3708 42.2827 88.3708C39.6322 88.3708 37.9262 89.6793 37.9262 91.8214C37.9262 93.5789 39.1963 94.6629 41.5361 95.0009L42.6109 95.1584C43.8584 95.339 44.4472 95.6771 44.4472 96.2862C44.4472 97.1198 43.6154 97.5947 42.0622 97.5947C40.4865 97.5947 39.3491 97.0759 38.5825 96.4669L37.5103 98.2915C38.7579 99.2387 40.3336 99.6903 42.0397 99.6903C45.0609 99.6903 46.8121 98.2244 46.8121 96.1726C46.8121 94.2783 45.4342 93.2873 43.157 92.9492L42.0848 92.7892C41.1002 92.655 40.3111 92.4537 40.3111 91.731C40.3111 90.9413 41.0551 90.469 42.3027 90.469C43.638 90.469 44.9307 90.9878 45.5645 91.393L46.549 89.4986ZM75.8998 88.3708C74.587 88.3708 73.7328 89.0031 73.1441 89.9503V88.6418H70.8894V99.4193H73.1641V93.3776C73.1641 91.5943 73.9081 90.6032 75.3962 90.6032C75.8572 90.6032 76.3382 90.6703 76.8192 90.8742L77.5206 88.665C77.0171 88.4611 76.3607 88.3708 75.8998 88.3708ZM56.4871 88.6418H52.7669V85.3719H50.4671V88.6418H48.3452V90.7839H50.4671V95.7003C50.4671 98.2012 51.4091 99.6903 54.0996 99.6903C55.0867 99.6903 56.224 99.3754 56.9455 98.8567L56.2892 96.8488C55.6103 97.254 54.8662 97.4579 54.275 97.4579C53.1376 97.4579 52.7669 96.7353 52.7669 95.6539V90.7839H56.4871V88.6418ZM22.4742 99.4193V92.655C22.4742 90.1077 20.8984 88.394 18.3582 88.3708C17.0229 88.3476 15.645 88.776 14.6805 90.2884C13.959 89.0934 12.8217 88.3708 11.2234 88.3708C10.1061 88.3708 9.01381 88.7089 8.15954 89.9709V88.6418H5.88232V99.4193H8.17958V93.4447C8.17958 91.5736 9.18666 90.58 10.7424 90.58C12.253 90.58 13.0171 91.5943 13.0171 93.4215V99.4193H15.3169V93.4447C15.3169 91.5736 16.3665 90.58 17.8772 90.58C19.4304 90.58 20.1744 91.5943 20.1744 93.4215V99.4193H22.4742Z" fill="#231F20"/>
<path d="M136.254 65.9746V64.2069H135.793L135.26 65.4211L134.73 64.2069H134.266V65.9746H134.593V64.6416L135.092 65.792H135.431L135.929 64.6387V65.9746H136.254ZM133.33 65.9746V64.5082H133.921V64.2098H132.414V64.5082H133.005V65.9746H133.33Z" fill="#F79410"/>
<path d="M80.3919 70.5887H47.0586V7.84375H80.3919V70.5887Z" fill="#FF5F00"/>
<path d="M49.4314 39.216C49.4314 26.7076 55.4043 15.5655 64.7058 8.38506C57.9039 3.13438 49.3195 0.000425656 39.9901 0.000425656C17.9036 0.000425656 0 17.5576 0 39.216C0 60.8745 17.9036 78.4316 39.9901 78.4316C49.3195 78.4316 57.9039 75.2977 64.7058 70.047C55.4043 62.8666 49.4314 51.7244 49.4314 39.216Z" fill="#EB001B"/>
<path d="M127.451 39.216C127.451 60.8745 110.09 78.4316 88.6738 78.4316C79.6275 78.4316 71.3036 75.2977 64.7056 70.047C73.7273 62.8666 79.519 51.7244 79.519 39.216C79.519 26.7076 73.7273 15.5655 64.7056 8.38506C71.3036 3.13438 79.6275 0.000425656 88.6738 0.000425656C110.09 0.000425656 127.451 17.5576 127.451 39.216Z" fill="#F79E1B"/>
</svg>
