<svg width="18" height="14" viewBox="0 0 18 14" fill="none" xmlns="http://www.w3.org/2000/svg">
<path d="M18 1.70441C17.326 1.98888 16.611 2.17561 15.879 2.25838C16.6415 1.82297 17.227 1.13349 17.5027 0.311979C16.7778 0.721787 15.9847 1.01052 15.1577 1.16571C14.484 0.481989 13.5243 0.0546875 12.4621 0.0546875C10.4226 0.0546875 8.76909 1.62992 8.76909 3.57277C8.76909 3.84855 8.80179 4.11703 8.86472 4.37459C5.79558 4.22782 3.07448 2.82722 1.25304 0.698687C0.935227 1.21829 0.753117 1.82271 0.753117 2.46738C0.753117 3.68799 1.40513 4.76478 2.39597 5.39572C1.80953 5.37822 1.23599 5.22732 0.723234 4.95562C0.723023 4.97036 0.723023 4.9851 0.723023 4.9999C0.723023 6.70448 1.99596 8.12645 3.68529 8.44966C3.14148 8.59056 2.57107 8.61118 2.01762 8.50995C2.48752 9.90767 3.85137 10.9248 5.46729 10.9532C4.20342 11.8968 2.61105 12.4593 0.880945 12.4593C0.58282 12.4593 0.288914 12.4426 0 12.4101C1.63427 13.4083 3.57539 13.9908 5.66086 13.9908C12.4535 13.9908 16.1679 8.62985 16.1679 3.98078C16.1679 3.82819 16.1644 3.67647 16.1573 3.52561C16.8802 3.0277 17.5042 2.41098 18 1.70441Z" fill="white"/>
</svg>
