<svg width="92" height="31" viewBox="0 0 92 31" fill="none" xmlns="http://www.w3.org/2000/svg">
<path d="M67.0349 1.77096C64.9126 0.943259 62.6696 0.527568 60.4111 0.543405C53.102 0.543405 47.9437 4.49115 47.9057 10.1477C47.86 14.3075 51.5755 16.6484 54.3811 18.0431C57.2628 19.4705 58.226 20.3678 58.2183 21.6524C58.1993 23.5977 55.9152 24.4786 53.7948 24.4786C50.8788 24.4786 49.2799 24.0422 46.8245 22.9493L45.9147 22.4966L44.8831 29.0136C46.657 29.8089 49.8548 30.49 53.1629 30.543C60.9326 30.543 66.0109 26.6238 66.0718 20.5961C66.1327 17.2805 64.1303 14.7642 59.901 12.6925C57.3352 11.3467 55.7363 10.4454 55.7363 9.07917C55.7363 7.87201 57.103 6.58329 59.9581 6.58329C61.8568 6.53451 63.7439 6.91383 65.497 7.69665L66.1822 8.02698L67.2139 1.73018L67.0349 1.77096ZM86.0043 1.07766H80.2941C78.5163 1.07766 77.1877 1.59559 76.4073 3.4879L65.4247 30.1351H73.1944L74.7476 25.7714L84.2265 25.7796C84.4587 26.7991 85.1402 30.1351 85.1402 30.1351H91.9886L86.0043 1.07766ZM37.3989 0.83296H44.7955L40.1702 29.9068H32.7698L37.3989 0.824805V0.83296ZM18.597 16.8564L19.366 20.8938L26.6027 1.07766H34.441L22.7883 30.0944H14.9691L8.57364 5.51886C8.47049 5.11388 8.22489 4.76745 7.88841 4.55232C5.58823 3.27231 3.14836 2.30376 0.625 1.669L0.72017 1.05727H12.6393C14.2534 1.12252 15.5553 1.669 16.0007 3.52052L18.597 16.8686V16.8564ZM76.8718 19.8213L79.822 11.6892C79.784 11.7708 80.4311 10.009 80.8042 8.91604L81.3105 11.4242L83.0198 19.8131H76.8718V19.8213Z" fill="#253B80"/>
</svg>
