<svg width="16" height="16" viewBox="0 0 16 16" fill="none" xmlns="http://www.w3.org/2000/svg">
<path d="M8.00429 3.95732C5.73286 3.95732 3.90072 5.76084 3.90072 7.99677C3.90072 10.2327 5.73286 12.0362 8.00429 12.0362C10.2757 12.0362 12.1079 10.2327 12.1079 7.99677C12.1079 5.76084 10.2757 3.95732 8.00429 3.95732ZM8.00429 10.6229C6.53644 10.6229 5.33644 9.44521 5.33644 7.99677C5.33644 6.54834 6.53286 5.3706 8.00429 5.3706C9.47572 5.3706 10.6721 6.54834 10.6721 7.99677C10.6721 9.44521 9.47215 10.6229 8.00429 10.6229ZM13.2329 3.79209C13.2329 4.31592 12.8043 4.73428 12.2757 4.73428C11.7436 4.73428 11.3186 4.3124 11.3186 3.79209C11.3186 3.27178 11.7471 2.8499 12.2757 2.8499C12.8043 2.8499 13.2329 3.27178 13.2329 3.79209ZM15.9507 4.74834C15.89 3.48623 15.5971 2.36826 14.6579 1.44717C13.7221 0.526074 12.5864 0.237793 11.3043 0.174512C9.98286 0.100684 6.02215 0.100684 4.70072 0.174512C3.42215 0.234277 2.28644 0.522558 1.34715 1.44365C0.407868 2.36474 0.118583 3.48271 0.0542968 4.74482C-0.0207031 6.0456 -0.0207031 9.94443 0.0542968 11.2452C0.115011 12.5073 0.407868 13.6253 1.34715 14.5464C2.28644 15.4675 3.41858 15.7558 4.70072 15.819C6.02215 15.8929 9.98286 15.8929 11.3043 15.819C12.5864 15.7593 13.7221 15.471 14.6579 14.5464C15.5936 13.6253 15.8864 12.5073 15.9507 11.2452C16.0257 9.94443 16.0257 6.04912 15.9507 4.74834ZM14.2436 12.6409C13.965 13.33 13.4257 13.8608 12.7221 14.1386C11.6686 14.5499 9.16858 14.455 8.00429 14.455C6.84001 14.455 4.33644 14.5464 3.28644 14.1386C2.58644 13.8643 2.04715 13.3335 1.76501 12.6409C1.34715 11.6038 1.44358 9.14287 1.44358 7.99677C1.44358 6.85068 1.35072 4.38623 1.76501 3.35263C2.04358 2.66357 2.58287 2.13271 3.28644 1.85498C4.34001 1.44365 6.84001 1.53857 8.00429 1.53857C9.16858 1.53857 11.6721 1.44717 12.7221 1.85498C13.4221 2.1292 13.9614 2.66006 14.2436 3.35263C14.6614 4.38974 14.565 6.85068 14.565 7.99677C14.565 9.14287 14.6614 11.6073 14.2436 12.6409Z" fill="white"/>
</svg>
