<svg width="72" height="12" viewBox="0 0 72 12" fill="none" xmlns="http://www.w3.org/2000/svg">
<path d="M7.97727 3.64286L6 0L4.02273 3.64286L0 4.57143L2.79545 7.64286L2.25 12L6 10.0714L9.68182 12L9.20455 7.64286L12 4.57143L7.97727 3.64286Z" fill="#FFDF0D"/>
<path d="M22.3068 3.64286L20 0L17.6932 3.64286L13 4.57143L16.2614 7.64286L15.625 12L20 10.0714L24.2955 12L23.7386 7.64286L27 4.57143L22.3068 3.64286Z" fill="#FFDF0D"/>
<path d="M37.3068 3.64286L35 0L32.6932 3.64286L28 4.57143L31.2614 7.64286L30.625 12L35 10.0714L39.2955 12L38.7386 7.64286L42 4.57143L37.3068 3.64286Z" fill="#FFDF0D"/>
<path d="M52.3068 3.64286L50 0L47.6932 3.64286L43 4.57143L46.2614 7.64286L45.625 12L50 10.0714L54.2955 12L53.7386 7.64286L57 4.57143L52.3068 3.64286Z" fill="#FFDF0D"/>
<path d="M67.3068 3.64286L65 0L62.6932 3.64286L58 4.57143L61.2614 7.64286L60.625 12L65 10.0714L69.2955 12L68.7386 7.64286L72 4.57143L67.3068 3.64286Z" fill="#FFDF0D"/>
</svg>
