<svg width="100" height="100" viewBox="0 0 100 100" fill="none" xmlns="http://www.w3.org/2000/svg">
<rect width="100" height="100" fill="#DDA63A"/>
<path d="M18.6999 25.7756H13.1409V24.8236C13.1409 23.2486 13.7059 22.6536 14.5679 21.7316L16.7379 19.4416C18.4929 17.5686 18.8799 16.3786 18.8799 14.3556V12.3936C18.8799 9.50962 17.4799 8.14062 14.4489 8.14062C11.4759 8.14062 9.9579 9.71663 9.9579 12.5406V14.9796H13.0519V12.4516C13.0519 11.2336 13.6459 10.8756 14.3609 10.8756C15.0139 10.8756 15.5789 11.1446 15.5789 12.3936V14.0586C15.5789 15.7246 15.4299 16.3786 14.3299 17.5376L12.4299 19.5596C10.5839 21.5236 9.8999 22.8326 9.8999 24.8236V28.5416H18.6999V25.7756Z" fill="white"/>
<path d="M41.3119 84.9718V86.3788C41.3092 86.389 41.3075 86.3994 41.3069 86.4098C41.3075 86.421 41.3091 86.432 41.3119 86.4428C41.3267 86.7918 41.6107 87.0688 41.9599 87.0748C41.9599 87.0748 41.9679 87.0748 41.9729 87.0748H41.9889H58.4889C58.4889 87.0748 58.4979 87.0748 58.5029 87.0748H58.5179C58.8778 87.0678 59.1664 86.7748 59.1679 86.4148C59.1673 86.4132 59.1673 86.4114 59.1679 86.4098V84.8138C68.4539 81.7698 75.4109 74.2438 76.9409 65.0718C76.9409 65.0518 76.9469 65.0338 76.9499 65.0168C76.9553 64.9864 76.9584 64.9557 76.9589 64.9248C76.9592 64.7478 76.889 64.578 76.7639 64.4529C76.6387 64.3277 76.4689 64.2575 76.2919 64.2578H23.7139C23.5367 64.2573 23.3665 64.3273 23.241 64.4525C23.1155 64.5776 23.0449 64.7476 23.0449 64.9248L23.0799 65.2248C24.6869 74.4838 31.8339 82.0518 41.3119 84.9718Z" fill="white"/>
<path d="M59.1488 41.8201C58.9318 42.1281 53.8488 49.4411 59.2618 55.3541C61.7428 58.0681 61.5278 60.4622 60.8198 62.0792H64.2898C64.9898 59.6922 64.7018 56.6971 61.8898 53.6191C57.9038 49.2611 61.9408 43.3721 62.0018 43.2811C62.4778 42.6091 62.2228 41.7431 61.4388 41.3391C60.6548 40.9351 59.6318 41.1521 59.1538 41.8201" fill="white"/>
<path d="M50.361 62.0789H53.832C54.532 59.6909 54.243 56.6969 51.426 53.6188C47.438 49.2608 51.472 43.3738 51.536 43.2778C52.009 42.6088 51.759 41.7438 50.972 41.3388C50.185 40.9338 49.166 41.1508 48.69 41.8198C48.472 42.1268 43.39 49.4408 48.803 55.3539C51.284 58.0679 51.067 60.4629 50.361 62.0789Z" fill="white"/>
<path d="M38.2289 41.8194C38.0089 42.1274 32.9289 49.4404 38.3409 55.3534C40.8229 58.0684 40.6079 60.4624 39.9009 62.0784H43.3709C44.0709 59.6924 43.7829 56.6974 40.9629 53.6184C36.9759 49.2604 41.0129 43.3714 41.0769 43.2784C41.5479 42.6084 41.2969 41.7424 40.5099 41.3384C39.7229 40.9344 38.7049 41.1504 38.2289 41.8194Z" fill="white"/>
<path d="M29.9062 15.4309H31.9912V16.5519H28.4712V15.4309L30.6292 9.49991H28.6882V8.37891H32.0762V9.49991L29.9062 15.4309Z" fill="white"/>
<path d="M32.9199 8.37891H36.1999V9.49991H34.2939V11.8389H35.6559V12.9479H34.2939V15.4309H36.1999V16.5519H32.9199V8.37891Z" fill="white"/>
<path fill-rule="evenodd" clip-rule="evenodd" d="M38.4292 16.5489V12.7999L39.7192 16.5519H41.1622L39.8472 12.8389C40.6332 12.6599 40.9472 12.1399 40.9472 11.2599V10.2109C40.9472 9.06591 40.4402 8.37891 39.0542 8.37891H37.0542V16.5489H38.4292ZM38.4292 12.0439V9.49991H38.8872C39.3572 9.49991 39.5622 9.71691 39.5622 10.1629V11.3679C39.5622 11.8019 39.3572 12.0439 38.8872 12.0439H38.4292Z" fill="white"/>
<path fill-rule="evenodd" clip-rule="evenodd" d="M41.8164 10.4882V14.4432C41.8164 15.7092 42.4314 16.6492 43.8904 16.6492C45.3494 16.6492 45.9764 15.7092 45.9764 14.4432V10.4882C45.9764 9.21023 45.3374 8.28223 43.8904 8.28223C42.4434 8.28223 41.8164 9.21023 41.8164 10.4882ZM44.6004 10.2712V14.6602C44.6004 15.1542 44.3724 15.5042 43.8894 15.5042C43.4064 15.5042 43.1894 15.1542 43.1894 14.6602V10.2712C43.1894 9.77722 43.3954 9.42722 43.8894 9.42722C44.3834 9.42722 44.6004 9.77722 44.6004 10.2712Z" fill="white"/>
<path d="M31.2489 24.9225H29.9219V28.5225H28.5479V20.3535H29.9219V23.8135H31.2489V20.3535H32.6349V28.5275H31.2489V24.9225Z" fill="white"/>
<path d="M37.5291 20.3535V26.5375C37.5291 27.8035 36.9871 28.6235 35.5881 28.6235C34.1421 28.6235 33.5391 27.8035 33.5391 26.5375V20.3535H34.9131V26.6705C34.9131 27.1525 35.1061 27.4785 35.5881 27.4785C36.0701 27.4785 36.2641 27.1525 36.2641 26.6705V20.3535H37.5291Z" fill="white"/>
<path d="M39.5906 23.3915V28.5275H38.4326V20.3535H39.7836L41.2666 25.0435V20.3535H42.4116V28.5275H41.2056L39.5906 23.3915Z" fill="white"/>
<path d="M45.3889 24.1628H47.3429V28.5278H46.3539V27.6358C46.1729 28.2498 45.7869 28.6238 45.0399 28.6238C43.8579 28.6238 43.3159 27.6838 43.3159 26.4178V22.4638C43.3159 21.1858 43.9309 20.2568 45.3769 20.2568C46.8959 20.2568 47.3429 21.1008 47.3429 22.3068V23.0298H46.0889V22.1998C46.0889 21.6938 45.8959 21.4048 45.4019 21.4048C44.9079 21.4048 44.6899 21.7538 44.6899 22.2488V26.6368C44.6899 27.1308 44.8949 27.4808 45.3649 27.4808C45.8109 27.4808 46.0409 27.2278 46.0409 26.6968V25.2488H45.3889V24.1628Z" fill="white"/>
<path d="M48.2461 20.3535H51.5261V21.4745H49.6211V23.8135H50.9831V24.9225H49.6211V27.4065H51.5261V28.5275H48.2461V20.3535Z" fill="white"/>
<path fill-rule="evenodd" clip-rule="evenodd" d="M53.7559 28.5275V24.7775L55.0459 28.5275H56.4869L55.1729 24.8135C55.9599 24.6345 56.2729 24.1145 56.2729 23.2345V22.1855C56.2729 21.0405 55.7669 20.3535 54.3809 20.3535H52.3809V28.5275H53.7559ZM53.7559 24.0215V21.4775L54.2139 21.4745C54.6889 21.4745 54.8889 21.6915 54.8889 22.1375V23.3465C54.8889 23.7805 54.6839 24.0215 54.2139 24.0215H53.7559Z" fill="white"/>
</svg>
