<svg width="100" height="100" viewBox="0 0 100 100" fill="none" xmlns="http://www.w3.org/2000/svg">
<rect width="100" height="100" fill="#FD9D24"/>
<path d="M29.2554 16.6395C30.6554 16.6395 31.2554 15.8395 31.2554 14.7225V14.3225C31.2554 13.4225 30.8934 12.9605 30.1464 12.2005L29.2664 11.3325C28.8664 10.9465 28.6164 10.6815 28.6164 10.2215V10.0545C28.6164 9.59553 28.8814 9.37853 29.2664 9.37853C29.6994 9.37853 29.9174 9.60753 29.9174 10.0785V10.7885H31.1704V10.1265C31.1704 8.94553 30.6294 8.26953 29.2544 8.26953C27.9154 8.26953 27.3254 9.05353 27.3254 10.0695V10.3485C27.3254 11.2875 27.6874 11.7585 28.4704 12.5295L29.2774 13.3395C29.6994 13.7395 29.8924 14.0255 29.8924 14.4955V14.8085C29.8924 15.2435 29.6994 15.5325 29.2664 15.5325C28.7964 15.5325 28.5914 15.2675 28.5914 14.8085V13.6885H27.3164V14.7885C27.3164 15.8615 27.8574 16.6455 29.2554 16.6455" fill="white"/>
<path d="M35.8475 14.5542V8.36719H34.5814V14.6862C34.5814 15.1692 34.3884 15.4932 33.9054 15.4932C33.4224 15.4932 33.2314 15.1692 33.2314 14.6862V8.36719H31.8564V14.5542C31.8564 15.8202 32.4564 16.6402 33.9054 16.6402C35.3054 16.6402 35.8475 15.8202 35.8475 14.5542Z" fill="white"/>
<path d="M40.4879 14.7235V14.3235C40.4879 13.4235 40.1249 12.9615 39.3799 12.2015L38.4999 11.3335C38.0999 10.9485 37.8479 10.6825 37.8479 10.2255V10.0565C37.8479 9.59748 38.1149 9.38048 38.4999 9.38048C38.9339 9.38048 39.1499 9.60848 39.1499 10.0805V10.7905H40.3999V10.1285C40.3999 8.94548 39.8589 8.27148 38.4839 8.27148C37.1459 8.27148 36.5549 9.05548 36.5549 10.0715V10.3485C36.5549 11.2885 36.9179 11.7595 37.7019 12.5315L38.5079 13.3405C38.9299 13.7405 39.1219 14.0265 39.1219 14.4965V14.8115C39.1219 15.2435 38.9299 15.5345 38.4959 15.5345C38.0259 15.5345 37.8209 15.2685 37.8209 14.8115V13.6855H36.5469V14.7855C36.5469 15.8585 37.0879 16.6415 38.4869 16.6415C39.8859 16.6415 40.4869 15.8415 40.4869 14.7245" fill="white"/>
<path d="M44.4733 8.36719H40.8213V9.48919H41.9533V16.5442H43.3403V9.48919H44.4733V8.36719Z" fill="white"/>
<path fill-rule="evenodd" clip-rule="evenodd" d="M45.7559 8.36719H47.3229L48.8769 16.5432H47.4659L47.2119 15.0492H45.7539L45.5129 16.5432H44.2129L45.7559 8.36719ZM46.4789 10.6712L45.9379 13.9512H47.0349L46.4919 10.6712H46.4789Z" fill="white"/>
<rect x="49.4336" y="8.36816" width="1.37401" height="8.177" fill="white"/>
<path d="M55.5698 16.5442V8.36719H54.4248V13.0572L52.9408 8.36719H51.5908V16.5442H52.7488V11.4062L54.3628 16.5442H55.5698Z" fill="white"/>
<path fill-rule="evenodd" clip-rule="evenodd" d="M59.0157 15.0482H57.5567L57.3137 16.5432H56.0137L57.5567 8.36719H59.1237L60.6777 16.5482H59.2677L59.0157 15.0482ZM58.2916 10.6702H58.2786L57.7356 13.9512H58.8356L58.2916 10.6702Z" fill="white"/>
<path fill-rule="evenodd" clip-rule="evenodd" d="M64.9431 10.9991V10.1691C64.9431 9.01114 64.4861 8.36914 63.1111 8.36914H61.1211V16.5461H63.2551C64.6301 16.5461 65.1471 15.9071 65.1471 14.7461V13.6621C65.1471 12.9141 64.8111 12.4551 64.1231 12.2991C64.6901 12.1181 64.9431 11.6841 64.9431 10.9991ZM62.5002 9.48914H62.9712C63.4282 9.48914 63.6342 9.70514 63.6342 10.1521V11.1521C63.6342 11.5871 63.4282 11.8161 62.9822 11.8161H62.5002V9.48914ZM63.1031 15.4231C63.5611 15.4231 63.7771 15.1931 63.7771 14.7591L63.7801 13.5281C63.7801 13.0951 63.5751 12.8661 63.0931 12.8661H62.5031V15.4231H63.1031Z" fill="white"/>
<path d="M67.0869 8.36719H65.7129V16.5442H68.7249V15.4222H67.0869V8.36719Z" fill="white"/>
<path d="M72.5095 9.48919V8.36719H69.2305V16.5442H72.5095V15.4222H70.6045V12.9372H71.9665V11.8292H70.6045V9.48919H72.5095Z" fill="white"/>
<path d="M76.8693 16.6404C78.3283 16.6404 78.8113 15.7724 78.8113 14.6024V13.1914H77.5563V14.7004C77.5563 15.1804 77.3873 15.4944 76.8933 15.4944C76.3993 15.4944 76.1933 15.1454 76.1933 14.6504V10.2614C76.1933 9.76141 76.3933 9.41641 76.8933 9.41641C77.3933 9.41641 77.5563 9.70541 77.5563 10.2164V11.2904H78.8113V10.3254C78.8113 9.11841 78.3883 8.27441 76.8693 8.27441C75.4233 8.27441 74.8203 9.20241 74.8203 10.4804V14.4374C74.8203 15.7034 75.4203 16.6434 76.8693 16.6434" fill="white"/>
<rect x="79.4561" y="8.36816" width="1.373" height="8.177" fill="white"/>
<path d="M83.8755 16.5442V9.48919H85.0065V8.36719H81.3555V9.48919H82.4875V16.5442H83.8755Z" fill="white"/>
<rect x="85.543" y="8.36816" width="1.37299" height="8.177" fill="white"/>
<path d="M87.624 16.5442H90.9021V15.4222H88.998V12.9372H90.358V11.8292H88.998V9.48919H90.9021V8.36719H87.624V16.5442Z" fill="white"/>
<path d="M93.2313 11.3345C92.8313 10.9475 92.5823 10.6835 92.5823 10.2235V10.0565C92.5823 9.59748 92.8463 9.38048 93.2313 9.38048C93.6673 9.38048 93.8823 9.60948 93.8823 10.0805V10.7915H95.1373V10.1285C95.1373 8.94548 94.5943 8.27148 93.2193 8.27148C91.8813 8.27148 91.2923 9.05548 91.2923 10.0715V10.3505C91.2923 11.2895 91.6523 11.7605 92.4363 12.5315L93.2433 13.3415C93.6673 13.7415 93.8593 14.0275 93.8593 14.4975V14.8105C93.8593 15.2455 93.6673 15.5345 93.2313 15.5345C92.7613 15.5345 92.5563 15.2695 92.5563 14.8105V13.6905H91.2793V14.7905C91.2793 15.8635 91.8213 16.6475 93.2193 16.6475C94.6173 16.6475 95.2193 15.8475 95.2193 14.7305V14.3305C95.2193 13.4305 94.8543 12.9685 94.1093 12.2085L93.2313 11.3345Z" fill="white"/>
<path fill-rule="evenodd" clip-rule="evenodd" d="M27.3359 28.5441L28.8789 20.3691H30.4449L31.9999 28.5441H30.5889L30.3349 27.0491H28.8769L28.6359 28.5441H27.3359ZM29.6019 22.6721L29.0599 25.9521H30.1559L29.6149 22.6721H29.6019Z" fill="white"/>
<path d="M35.5215 25.0591L34.0385 20.3691H32.6885V28.5451H33.8465V23.4061L35.4605 28.5451H36.6665V20.3691H35.5215V25.0591Z" fill="white"/>
<path fill-rule="evenodd" clip-rule="evenodd" d="M37.5723 20.3673H39.6943V20.3633C41.1653 20.3633 41.6823 21.2973 41.6823 22.5633V26.3503C41.6823 27.6053 41.1653 28.5453 39.6943 28.5453H37.5723V20.3673ZM39.5253 27.4193C40.0913 27.4193 40.3083 27.0813 40.3083 26.5873V22.3093C40.3083 21.8273 40.0913 21.4903 39.5253 21.4903H38.9453V27.4193H39.5253Z" fill="white"/>
<path d="M46.0227 20.2725C44.5757 20.2725 43.9727 21.2005 43.9727 22.4795V26.4355C43.9727 27.7005 44.5727 28.6415 46.0227 28.6415C47.4727 28.6415 47.9627 27.7725 47.9627 26.6025V25.1925H46.7087V26.7005C46.7087 27.1835 46.5407 27.5005 46.0477 27.5005C45.5547 27.5005 45.3477 27.1515 45.3477 26.6565V22.2665C45.3477 21.7725 45.5537 21.4225 46.0477 21.4225C46.5417 21.4225 46.7087 21.7115 46.7087 22.2225V23.2955H47.9627V22.3305C47.9627 21.1245 47.5417 20.2815 46.0227 20.2815" fill="white"/>
<path fill-rule="evenodd" clip-rule="evenodd" d="M48.833 22.4795C48.833 21.2005 49.459 20.2725 50.907 20.2725C52.365 20.2725 52.991 21.2005 52.991 22.4795V26.4355C52.991 27.7005 52.355 28.6415 50.907 28.6415C49.459 28.6415 48.833 27.7005 48.833 26.4355V22.4795ZM50.9071 27.4955C51.4001 27.4955 51.6171 27.1465 51.6171 26.6515V22.2615C51.6171 21.7675 51.3921 21.4175 50.9071 21.4175C50.422 21.4175 50.207 21.7675 50.207 22.2615V26.6515C50.207 27.1465 50.414 27.4955 50.9071 27.4955Z" fill="white"/>
<path d="M56.4035 24.9752H56.3915L55.5005 20.3672H53.8975V28.5442H55.0295V23.2382H55.0535L56.0785 28.5442H56.7165L57.6455 23.2382H57.6815V28.5442H58.9355V20.3672H57.1995L56.4035 24.9752Z" fill="white"/>
<path d="M62.3478 24.9752H62.3358L61.4438 20.3672H59.8398V28.5442H60.9738V23.2382H60.9968L62.0208 28.5442H62.6608L63.5878 23.2382H63.6248V28.5442H64.8778V20.3672H63.1428L62.3478 24.9752Z" fill="white"/>
<path d="M68.5072 26.6871C68.5072 27.1701 68.3162 27.4971 67.8332 27.4971C67.3502 27.4971 67.1582 27.1701 67.1582 26.6871V20.3691H65.7832V26.5531C65.7832 27.8211 66.3832 28.6411 67.8332 28.6411C69.2332 28.6411 69.7732 27.8211 69.7732 26.5531V20.3691H68.5072V26.6871Z" fill="white"/>
<path d="M73.5127 25.0591L72.0277 20.3691H70.6787V28.5451H71.8367V23.4061L73.4507 28.5451H74.6557V20.3691H73.5127V25.0591Z" fill="white"/>
<path d="M7.16504 12.0389V15.5769H7.19404L9.57304 13.1089H9.60404V28.5429H12.994V8.37988H10.287L7.16504 12.0389Z" fill="white"/>
<path d="M14.8965 12.0389V15.5769H14.9265L17.3055 13.1089H17.3345V28.5429H20.7255V8.37988H18.0205L14.8965 12.0389Z" fill="white"/>
<rect x="75.5645" y="20.3672" width="1.37402" height="8.177" fill="white"/>
<path d="M77.6855 21.4892H78.8185V28.5442H80.2045V21.4892H81.3375V20.3672H77.6855V21.4892Z" fill="white"/>
<rect x="82.0977" y="20.3672" width="1.37502" height="8.177" fill="white"/>
<path d="M84.3896 28.5442H87.6687V27.4232H85.7627V24.9392H87.1257V23.8292H85.7627V21.4892H87.6687V20.3672H84.3896V28.5442Z" fill="white"/>
<path d="M90.3329 23.3354C89.9329 22.9484 89.6819 22.6834 89.6819 22.2264V22.0564C89.6819 21.5974 89.9469 21.3814 90.3329 21.3814C90.7669 21.3814 90.9829 21.6104 90.9829 22.0814V22.7934H92.2379V22.1294C92.2379 20.9474 91.6949 20.2734 90.3209 20.2734C88.9819 20.2734 88.3919 21.0574 88.3919 22.0734V22.3504C88.3919 23.2904 88.7539 23.7614 89.5379 24.5324L90.3459 25.3414C90.7669 25.7414 90.9599 26.0284 90.9599 26.4984V26.8124C90.9599 27.2464 90.7669 27.5364 90.3329 27.5364C89.8629 27.5364 89.6579 27.2714 89.6579 26.8124V25.6874H88.3799V26.7874C88.3799 27.8604 88.9219 28.6444 90.3209 28.6444C91.7199 28.6444 92.3209 27.8444 92.3209 26.7284V26.3284C92.3209 25.4284 91.9589 24.9674 91.2119 24.2064L90.3329 23.3354Z" fill="white"/>
<path d="M16.5 76.1313H31.538C31.6842 76.1323 31.817 76.0464 31.8761 75.9126C31.9352 75.7788 31.9092 75.6228 31.81 75.5153L31.789 75.4933L24.305 65.8114L24.232 65.7304C24.1623 65.6538 24.0635 65.6102 23.96 65.6104C23.8705 65.6121 23.7847 65.6458 23.718 65.7054L23.673 65.7574L23.602 65.8364L16.302 75.4173L16.19 75.5543C16.1487 75.6151 16.1267 75.6869 16.127 75.7603C16.127 75.8591 16.1663 75.9538 16.2363 76.0234C16.3063 76.093 16.4012 76.1319 16.5 76.1313Z" fill="white"/>
<path d="M31.4918 77.5H16.4198C16.3219 77.5 16.2281 77.5389 16.1589 77.6081C16.0897 77.6773 16.0508 77.7711 16.0508 77.869V89.659C16.0505 89.7571 16.0892 89.8513 16.1584 89.9209C16.2276 89.9905 16.3217 90.0297 16.4198 90.03H21.2708V82.609C21.2705 82.511 21.3093 82.417 21.3786 82.3478C21.4478 82.2785 21.5418 82.2397 21.6398 82.24H26.1398C26.2377 82.2397 26.3317 82.2785 26.401 82.3478C26.4703 82.417 26.509 82.511 26.5088 82.609V90.03H31.4888C31.5869 90.0297 31.6809 89.9905 31.7501 89.9209C31.8193 89.8513 31.858 89.7571 31.8578 89.659V77.865C31.8556 77.6639 31.6929 77.5016 31.4918 77.5Z" fill="white"/>
<path fill-rule="evenodd" clip-rule="evenodd" d="M83.5828 74.4083H68.6658C68.5702 74.4067 68.478 74.4432 68.4095 74.5099C68.3409 74.5765 68.3018 74.6677 68.3008 74.7633V89.8263C68.3041 90.0247 68.4673 90.1831 68.6658 90.1803H83.5828C83.6782 90.1819 83.7705 90.1455 83.8391 90.0791C83.9077 90.0127 83.9472 89.9218 83.9488 89.8263V74.7633C83.9477 74.6675 83.9085 74.5762 83.8397 74.5095C83.771 74.4428 83.6785 74.4064 83.5828 74.4083ZM75.4208 84.2422C75.4198 84.3377 75.3808 84.4289 75.3126 84.4956C75.2443 84.5624 75.1523 84.5993 75.0568 84.5982H70.5998C70.5041 84.5996 70.4117 84.5628 70.3431 84.4961C70.2744 84.4293 70.2351 84.338 70.2338 84.2422V81.5342C70.2349 81.4384 70.2741 81.347 70.3428 81.2801C70.4115 81.2133 70.504 81.1766 70.5998 81.1782H75.0568C75.1524 81.1769 75.2445 81.2137 75.3129 81.2806C75.3812 81.3474 75.42 81.4387 75.4208 81.5342V84.2422ZM75.3126 79.4896C75.3808 79.4229 75.4198 79.3317 75.4208 79.2362V76.5263C75.4195 76.431 75.3804 76.3402 75.3122 76.2739C75.2439 76.2075 75.1521 76.1709 75.0568 76.1723H70.5998C70.4012 76.1695 70.2377 76.3277 70.2338 76.5263V79.2362C70.2351 79.332 70.2744 79.4233 70.3431 79.4901C70.4117 79.5568 70.5041 79.5936 70.5998 79.5922H75.0568C75.1523 79.5933 75.2443 79.5564 75.3126 79.4896ZM82.2326 84.2423C82.2316 84.3381 82.1924 84.4295 82.1237 84.4964C82.055 84.5632 81.9625 84.5999 81.8666 84.5983H77.4116C77.3158 84.5999 77.2233 84.5632 77.1546 84.4964C77.0859 84.4295 77.0467 84.3381 77.0456 84.2423V81.5343C77.0467 81.4384 77.0859 81.347 77.1546 81.2801C77.2233 81.2133 77.3158 81.1766 77.4116 81.1782H81.8666C81.9625 81.1766 82.055 81.2133 82.1237 81.2801C82.1924 81.347 82.2316 81.4384 82.2326 81.5343V84.2423ZM82.1237 79.4903C82.1924 79.4235 82.2316 79.3321 82.2326 79.2362V76.5263C82.2311 76.4308 82.1916 76.3398 82.123 76.2734C82.0543 76.2071 81.9621 76.1707 81.8666 76.1723H77.4116C77.3162 76.1707 77.2239 76.2071 77.1553 76.2734C77.0867 76.3398 77.0472 76.4308 77.0456 76.5263V79.2362C77.0467 79.3321 77.0859 79.4235 77.1546 79.4903C77.2233 79.5572 77.3158 79.5938 77.4116 79.5922H81.8666C81.9625 79.5938 82.055 79.5572 82.1237 79.4903Z" fill="white"/>
<path fill-rule="evenodd" clip-rule="evenodd" d="M48.9052 39.4444H34.3052C34.2105 39.4446 34.1198 39.4825 34.0531 39.5497C33.9863 39.6168 33.949 39.7077 33.9492 39.8024V89.6924C33.9498 89.8889 34.1087 90.0483 34.3052 90.0494H48.9052C49.1025 90.0488 49.2626 89.8896 49.2642 89.6924V39.8004C49.2637 39.6025 49.1031 39.4424 48.9052 39.4424V39.4444ZM40.2214 84.3654C40.2214 84.4163 40.2011 84.4651 40.1651 84.5011C40.1291 84.5372 40.0803 84.5574 40.0294 84.5574H36.6874C36.5813 84.5574 36.4954 84.4714 36.4954 84.3654V80.6414C36.4954 80.5906 36.5156 80.5418 36.5517 80.506C36.5877 80.4701 36.6365 80.4501 36.6874 80.4504H40.0294C40.0802 80.4501 40.129 80.4701 40.1651 80.506C40.2011 80.5418 40.2214 80.5906 40.2214 80.6414V84.3654ZM40.1646 75.9452C40.2006 75.9095 40.2209 75.861 40.2212 75.8104V72.0874C40.2215 72.0364 40.2013 71.9874 40.1653 71.9513C40.1292 71.9153 40.0802 71.8951 40.0292 71.8954H36.6912C36.6402 71.8951 36.5912 71.9153 36.5552 71.9513C36.5191 71.9874 36.499 72.0364 36.4992 72.0874V75.8104C36.4998 75.9143 36.5833 75.9988 36.6872 76.0004H40.0292C40.0799 76.0007 40.1286 75.9808 40.1646 75.9452ZM40.2214 67.2574C40.2214 67.3083 40.2011 67.3571 40.1651 67.3932C40.1291 67.4292 40.0803 67.4494 40.0294 67.4494H36.6874C36.5813 67.4494 36.4954 67.3634 36.4954 67.2574V63.5314C36.4959 63.4257 36.5817 63.3404 36.6874 63.3404H40.0294C40.135 63.3404 40.2208 63.4257 40.2214 63.5314V67.2574ZM40.0292 58.8944C40.1353 58.8944 40.2212 58.8084 40.2212 58.7024V54.9764C40.221 54.9258 40.2005 54.8774 40.1645 54.842C40.1285 54.8065 40.0798 54.7868 40.0292 54.7874H36.6912C36.6406 54.7868 36.592 54.8065 36.5559 54.842C36.5199 54.8774 36.4995 54.9258 36.4992 54.9764V58.7004C36.4981 58.8057 36.582 58.8922 36.6872 58.8944H40.0292ZM40.2214 50.1494C40.2208 50.255 40.135 50.3404 40.0294 50.3404H36.6874C36.5817 50.3404 36.4959 50.255 36.4954 50.1494V46.4234C36.4954 46.3173 36.5813 46.2314 36.6874 46.2314H40.0294C40.0803 46.2314 40.1291 46.2516 40.1651 46.2876C40.2011 46.3236 40.2214 46.3725 40.2214 46.4234V50.1494ZM46.7197 84.5015C46.7559 84.4654 46.7763 84.4165 46.7763 84.3654V80.6414C46.7763 80.5904 46.7559 80.5415 46.7196 80.5056C46.6834 80.4697 46.6343 80.4498 46.5833 80.4504H43.2423C43.1915 80.4501 43.1426 80.4701 43.1066 80.506C43.0706 80.5418 43.0503 80.5905 43.0503 80.6414V84.3654C43.05 84.4164 43.0702 84.4654 43.1062 84.5014C43.1423 84.5375 43.1913 84.5576 43.2423 84.5574H46.5833C46.6344 84.5576 46.6835 84.5375 46.7197 84.5015ZM46.7761 75.8104C46.7764 75.8616 46.7561 75.9107 46.7198 75.9468C46.6835 75.9829 46.6343 76.0029 46.5831 76.0024H43.2421C43.191 76.0029 43.1419 75.9829 43.1057 75.9468C43.0696 75.9106 43.0496 75.8615 43.0501 75.8104V72.0874C43.0496 72.0363 43.0696 71.9872 43.1057 71.951C43.1419 71.9149 43.191 71.8948 43.2421 71.8954H46.5831C46.6343 71.8949 46.6835 71.9149 46.7198 71.951C46.7561 71.9871 46.7764 72.0362 46.7761 72.0874V75.8104ZM46.7197 67.3935C46.7559 67.3575 46.7763 67.3085 46.7763 67.2574V63.5314C46.776 63.4805 46.7555 63.4317 46.7194 63.3959C46.6832 63.3601 46.6342 63.3401 46.5833 63.3404H43.2423C43.1915 63.3401 43.1426 63.3601 43.1066 63.396C43.0706 63.4318 43.0503 63.4806 43.0503 63.5314V67.2574C43.05 67.3084 43.0702 67.3574 43.1062 67.3934C43.1423 67.4295 43.1913 67.4496 43.2423 67.4494H46.5833C46.6344 67.4496 46.6835 67.4295 46.7197 67.3935ZM46.7763 58.7024C46.7763 58.7535 46.7559 58.8024 46.7197 58.8385C46.6835 58.8745 46.6344 58.8946 46.5833 58.8944H43.2423C43.1913 58.8946 43.1423 58.8745 43.1062 58.8384C43.0702 58.8024 43.05 58.7534 43.0503 58.7024V54.9764C43.0506 54.9258 43.071 54.8774 43.107 54.842C43.143 54.8065 43.1917 54.7868 43.2423 54.7874H46.5833C46.634 54.7866 46.683 54.8061 46.7192 54.8416C46.7555 54.8771 46.776 54.9256 46.7763 54.9764V58.7024ZM46.7194 50.2848C46.7555 50.249 46.776 50.2003 46.7763 50.1494V46.4234C46.7763 46.3723 46.7559 46.3233 46.7197 46.2873C46.6835 46.2512 46.6344 46.2311 46.5833 46.2314H43.2423C43.1913 46.2311 43.1423 46.2513 43.1062 46.2873C43.0702 46.3234 43.05 46.3724 43.0503 46.4234V50.1494C43.0503 50.2002 43.0706 50.2489 43.1066 50.2848C43.1426 50.3206 43.1915 50.3406 43.2423 50.3404H46.5833C46.6342 50.3406 46.6832 50.3207 46.7194 50.2848Z" fill="white"/>
<path d="M83.9324 72.8928C83.9324 73.0585 83.7981 73.1928 83.6324 73.1928H68.6174C68.4517 73.1928 68.3174 73.0585 68.3174 72.8928V69.8928C68.3174 69.7271 68.4517 69.5928 68.6174 69.5928H83.6324C83.7981 69.5928 83.9324 69.7271 83.9324 69.8928V72.8928Z" fill="white"/>
<path fill-rule="evenodd" clip-rule="evenodd" d="M66.5394 48.8649C66.4924 48.7009 66.3431 48.5873 66.1724 48.5859C66.0975 48.5879 66.0248 48.6119 65.9634 48.6549L65.9364 48.6729L65.8134 48.8289L51.4654 67.0289L51.3994 67.1179C51.3224 67.1928 51.2776 67.2946 51.2744 67.4019V89.7669C51.2747 89.8616 51.3125 89.9523 51.3797 90.0191C51.4468 90.0858 51.5377 90.1232 51.6324 90.1229H66.2164C66.311 90.1232 66.4018 90.0858 66.4688 90.019C66.5358 89.9522 66.5734 89.8615 66.5734 89.7669V49.0149C66.5727 48.9631 66.5611 48.912 66.5394 48.8649ZM60.4994 58.7489L60.5994 58.6209C61.5804 57.3609 63.2354 55.3209 64.0414 54.3349L64.1474 54.2089C64.2264 54.113 64.3441 54.0572 64.4684 54.0569C64.6646 54.0579 64.8324 54.1981 64.8684 54.3909V58.9999C64.8674 59.2221 64.6905 59.4035 64.4684 59.4099H64.4504H64.4314H60.8504H60.8324H60.8144C60.5926 59.403 60.4159 59.2219 60.4144 58.9999C60.4147 58.9092 60.4445 58.8211 60.4994 58.7489ZM58.1252 84.4916C58.1922 84.4246 58.2297 84.3337 58.2295 84.2389L58.2285 81.5159C58.2285 81.4213 58.1908 81.3306 58.1238 81.2638C58.0569 81.197 57.9661 81.1597 57.8715 81.1599H53.5205C53.4259 81.1597 53.3351 81.197 53.2681 81.2638C53.2011 81.3306 53.1635 81.4213 53.1635 81.5159V84.2389C53.1632 84.3337 53.2007 84.4246 53.2677 84.4916C53.3347 84.5587 53.4257 84.5962 53.5205 84.5959H57.8725C57.9672 84.5962 58.0582 84.5587 58.1252 84.4916ZM58.2295 79.2069C58.2297 79.3017 58.1922 79.3926 58.1252 79.4596C58.0582 79.5267 57.9672 79.5642 57.8725 79.5639H53.5205C53.4257 79.5642 53.3347 79.5267 53.2677 79.4596C53.2007 79.3926 53.1632 79.3017 53.1635 79.2069V76.4839C53.1629 76.3891 53.2004 76.298 53.2674 76.2309C53.3345 76.1638 53.4256 76.1264 53.5205 76.1269H57.8715C57.9663 76.1264 58.0574 76.1638 58.1245 76.2309C58.1916 76.298 58.229 76.3891 58.2285 76.4839L58.2295 79.2069ZM58.1248 74.427C58.1918 74.3602 58.2295 74.2695 58.2295 74.1749L58.2285 71.4509C58.2287 71.3562 58.1912 71.2652 58.1242 71.1982C58.0572 71.1312 57.9662 71.0937 57.8715 71.0939H53.5205C53.4257 71.0937 53.3347 71.1312 53.2677 71.1982C53.2007 71.2652 53.1632 71.3562 53.1635 71.4509V74.1749C53.1635 74.2695 53.2011 74.3602 53.2681 74.427C53.3351 74.4938 53.4259 74.5312 53.5205 74.5309H57.8725C57.967 74.5312 58.0579 74.4938 58.1248 74.427ZM58.2414 63.1479V69.1479C58.2409 69.3449 58.0814 69.5044 57.8844 69.5049H53.5344C53.4394 69.5055 53.3481 69.4681 53.2807 69.4011C53.2133 69.3341 53.1754 69.243 53.1754 69.1479V68.3929C53.177 68.3474 53.1862 68.3025 53.2024 68.2599C53.2086 68.2454 53.216 68.2313 53.2244 68.2179C53.2336 68.2013 53.2443 68.1856 53.2564 68.1709C53.2629 68.1599 53.2723 68.1468 53.2817 68.1337L53.2817 68.1337C53.2868 68.1267 53.2919 68.1196 53.2964 68.1129C53.8524 67.3129 56.3624 64.2249 57.4164 62.9329L57.5224 62.8049C57.6014 62.7091 57.7192 62.6537 57.8434 62.6539C58.0392 62.6552 58.2067 62.7947 58.2434 62.9869L58.2414 63.1479ZM64.7747 84.4914C64.8417 84.4244 64.8793 84.3336 64.8793 84.2389V81.5159C64.8787 81.3191 64.7191 81.1599 64.5223 81.1599H60.1723C60.0774 81.1594 59.9862 81.1966 59.9189 81.2634C59.8515 81.3302 59.8135 81.4211 59.8133 81.5159V84.2389C59.8133 84.3339 59.8511 84.4251 59.9185 84.4921C59.9859 84.5591 60.0772 84.5964 60.1723 84.5959H64.5223C64.617 84.5959 64.7078 84.5583 64.7747 84.4914ZM64.8793 79.2069C64.8793 79.4041 64.7194 79.5639 64.5223 79.5639H60.1723C60.0772 79.5645 59.9859 79.5271 59.9185 79.4601C59.8511 79.3931 59.8133 79.302 59.8133 79.2069V76.4839C59.813 76.3888 59.8508 76.2975 59.9182 76.2305C59.9857 76.1634 60.0772 76.1261 60.1723 76.1269H64.5223C64.7194 76.1269 64.8793 76.2868 64.8793 76.4839V79.2069ZM64.5223 74.5309C64.7188 74.5304 64.8782 74.3715 64.8793 74.1749V71.4509C64.8793 71.2538 64.7194 71.094 64.5223 71.094H60.1723C60.0772 71.0934 59.9859 71.1308 59.9185 71.1978C59.8511 71.2648 59.8133 71.3559 59.8133 71.4509V74.1749C59.8135 74.2698 59.8515 74.3607 59.9189 74.4274C59.9862 74.4942 60.0774 74.5315 60.1723 74.5309H64.5223ZM64.8793 69.1419C64.8787 69.3387 64.7191 69.4979 64.5223 69.4979H60.1723C60.0774 69.4985 59.9862 69.4612 59.9189 69.3944C59.8515 69.3276 59.8135 69.2368 59.8133 69.1419V66.4189C59.8133 66.3239 59.8511 66.2328 59.9185 66.1658C59.9859 66.0988 60.0772 66.0614 60.1723 66.0619H64.5223C64.7194 66.0619 64.8793 66.2218 64.8793 66.4189V69.1419ZM64.7747 64.3614C64.8417 64.2944 64.8793 64.2036 64.8793 64.1089V61.3859C64.8795 61.2911 64.842 61.2 64.7751 61.1329C64.7081 61.0657 64.6171 61.0279 64.5223 61.0279H60.1723C60.0771 61.0274 59.9856 61.0649 59.9182 61.1321C59.8508 61.1994 59.813 61.2907 59.8133 61.3859V64.1089C59.8133 64.204 59.8511 64.2951 59.9185 64.3621C59.9859 64.4291 60.0772 64.4665 60.1723 64.4659H64.5223C64.617 64.4659 64.7078 64.4283 64.7747 64.3614Z" fill="white"/>
</svg>
