<svg width="100" height="100" viewBox="0 0 100 100" fill="none" xmlns="http://www.w3.org/2000/svg">
<rect width="100" height="100" fill="#FCC30B"/>
<path d="M10.2568 11.1449H15.4918L10.9698 28.5419H14.3318L18.7628 11.5019V8.37891H10.2568V11.1449Z" fill="white"/>
<path fill-rule="evenodd" clip-rule="evenodd" d="M50.0004 48.4482C44.0711 48.4458 38.7244 52.0157 36.4538 57.4929C34.1832 62.9702 35.4359 69.2759 39.6278 73.4692C43.8197 77.6626 50.125 78.9175 55.603 76.6488C61.0811 74.38 64.6528 69.0345 64.6524 63.1052C64.6529 55.0121 58.0935 48.4505 50.0004 48.4482ZM48.9153 54.2382C48.9153 53.7512 49.4043 53.2132 50.0063 53.2132C50.6083 53.2132 51.0913 53.7512 51.0913 54.2382V59.2712C51.0913 59.7562 50.6063 60.2882 50.0063 60.2882C49.4063 60.2882 48.9153 59.7562 48.9153 59.2712V54.2382ZM42.475 64.137C43.0406 67.8579 46.2368 70.6093 50.0003 70.6152C53.7704 70.6144 56.9737 67.8582 57.5371 64.1306C58.1005 60.4029 55.8547 56.8231 52.2533 55.7082V58.5472C54.3128 59.5891 55.3888 61.9075 54.855 64.1529C54.3212 66.3983 52.3169 67.9844 50.009 67.988C47.701 67.9915 45.6919 66.4116 45.1511 64.1679C44.6104 61.9242 45.6792 59.6025 47.7354 58.5542V55.7152C44.1436 56.8393 41.9094 60.4162 42.475 64.137Z" fill="white"/>
<path d="M33.1732 62.9773C33.1732 62.3123 32.5842 61.7773 32.0472 61.7773H25.6282C25.0872 61.7773 24.4932 62.3153 24.4932 62.9773C24.4932 63.6393 25.0872 64.1843 25.6282 64.1843H32.0472C32.5842 64.1843 33.1732 63.6433 33.1732 62.9773Z" fill="white"/>
<path d="M75.5071 62.9773C75.5071 62.3123 74.9181 61.7773 74.3811 61.7773H67.9631C67.4221 61.7773 66.8281 62.3153 66.8281 62.9773C66.8281 63.6393 67.4221 64.1843 67.9631 64.1843H74.3811C74.9181 64.1843 75.5071 63.6433 75.5071 62.9773Z" fill="white"/>
<path d="M50 46.1527C50.663 46.1527 51.2 45.5637 51.2 45.0267V38.6077C51.2 38.0667 50.661 37.4727 50 37.4727C49.339 37.4727 48.791 38.0667 48.791 38.6077V45.0267C48.791 45.5637 49.334 46.1527 50 46.1527Z" fill="white"/>
<path d="M50 88.4856C50.663 88.4856 51.2 87.8966 51.2 87.3596V80.9416C51.2 80.4016 50.661 79.8066 50 79.8066C49.339 79.8066 48.791 80.4016 48.791 80.9416V87.3596C48.791 87.8966 49.334 88.4856 50 88.4856Z" fill="white"/>
<path d="M35.4005 54.6188C35.7315 54.0418 35.4885 53.2828 35.0205 53.0188L29.4505 49.8308C28.9805 49.5618 28.1985 49.7308 27.8675 50.3108C27.5365 50.8908 27.7845 51.6538 28.2535 51.9228L33.8245 55.1108C34.2905 55.3778 35.0705 55.2008 35.4005 54.6218" fill="white"/>
<path d="M72.1395 75.6466C72.4685 75.0716 72.2255 74.3106 71.7595 74.0466L66.1895 70.8586C65.7195 70.5906 64.9365 70.7586 64.6065 71.3396C64.2765 71.9206 64.5225 72.6826 64.9915 72.9506L70.5625 76.1386C71.0285 76.4056 71.8085 76.2286 72.1395 75.6496" fill="white"/>
<path d="M58.3606 48.3768C58.9366 48.7058 59.6956 48.4628 59.9606 47.9968L63.1476 42.4258C63.4176 41.9558 63.2476 41.1728 62.6686 40.8428C62.0896 40.5128 61.3246 40.7588 61.0566 41.2288L57.8716 46.7998C57.6046 47.2668 57.7816 48.0468 58.3606 48.3778" fill="white"/>
<path d="M37.3332 85.1182C37.9092 85.4472 38.6682 85.2042 38.9332 84.7372L42.1202 79.1672C42.3893 78.6982 42.2203 77.9142 41.6402 77.5842C41.0602 77.2542 40.3002 77.4992 40.0322 77.9702L36.8442 83.5402C36.5772 84.0062 36.7542 84.7872 37.3332 85.1182Z" fill="white"/>
<path d="M41.6144 48.391C42.1894 48.06 42.3634 47.281 42.0954 46.815L38.8954 41.251C38.6254 40.782 37.8634 40.536 37.2874 40.867C36.7114 41.198 36.5364 41.984 36.8074 42.453L40.0074 48.016C40.2764 48.482 41.0374 48.723 41.6164 48.391" fill="white"/>
<path d="M62.7168 85.0901C63.2928 84.7591 63.4658 83.9801 63.1988 83.5151L59.9988 77.9511C59.7288 77.4811 58.9668 77.2351 58.3898 77.5661C57.8128 77.8971 57.6388 78.6831 57.9108 79.1531L61.1108 84.7161C61.3788 85.1821 62.1408 85.4221 62.7188 85.0901" fill="white"/>
<path d="M64.5889 54.5925C64.9199 55.1685 65.6979 55.3415 66.1639 55.0745L71.7269 51.8745C72.1969 51.6045 72.4449 50.8415 72.1129 50.2655C71.7809 49.6895 70.9969 49.5155 70.5269 49.7855L64.9639 52.9855C64.4969 53.2535 64.2569 54.0165 64.5889 54.5935" fill="white"/>
<path d="M27.8906 75.6993C28.2216 76.2753 28.9996 76.4483 29.4666 76.1803L35.0296 72.9803C35.4986 72.7103 35.7466 71.9473 35.4136 71.3713C35.0806 70.7953 34.2976 70.6213 33.8286 70.8903L28.2656 74.0903C27.7986 74.3573 27.5586 75.1213 27.8906 75.6983" fill="white"/>
<path fill-rule="evenodd" clip-rule="evenodd" d="M29.8907 8.36621L28.3477 16.5392H29.6497L29.8907 15.0452H31.3467L31.5997 16.5392H33.0137L31.4587 8.36621H29.8907ZM31.1717 13.9472H30.0717L30.6177 10.6682H30.6297L31.1717 13.9472Z" fill="white"/>
<path d="M33.5195 8.36621H36.7385V9.48721H34.8935V11.8262H36.2685V12.9352H34.8935V16.5352H33.5195V8.36621Z" fill="white"/>
<path d="M37.2803 8.36621H40.4993V9.48721H38.6543V11.8262H40.0293V12.9352H38.6543V16.5352H37.2803V8.36621Z" fill="white"/>
<path fill-rule="evenodd" clip-rule="evenodd" d="M40.9219 10.4755V14.4305C40.9219 15.6995 41.5409 16.6365 42.9999 16.6365C44.4589 16.6365 45.0859 15.6965 45.0859 14.4305V10.4755C45.0859 9.19753 44.4509 8.26953 42.9999 8.26953C41.5489 8.26953 40.9219 9.19953 40.9219 10.4755ZM43.7069 10.2585V14.6475C43.7069 15.1415 43.4779 15.4915 42.9949 15.4915C42.5119 15.4915 42.2949 15.1415 42.2949 14.6475V10.2585C42.2949 9.76454 42.4999 9.41454 42.9949 9.41454C43.4899 9.41454 43.7069 9.76454 43.7069 10.2585Z" fill="white"/>
<path fill-rule="evenodd" clip-rule="evenodd" d="M47.1778 16.5392V12.7902L48.4678 16.5402H49.9138L48.5998 12.8272C49.3868 12.6482 49.6998 12.1282 49.6998 11.2482V10.1992C49.6998 9.05321 49.1918 8.36621 47.7998 8.36621H45.7998V16.5392H47.1778ZM47.1779 12.0332V9.49021L47.6359 9.49521C48.1069 9.49521 48.3119 9.71221 48.3119 10.1582V11.3582C48.3119 11.7922 48.1069 12.0332 47.6359 12.0332H47.1779Z" fill="white"/>
<path fill-rule="evenodd" clip-rule="evenodd" d="M54.4998 14.3452V10.5602C54.4998 9.29921 53.9778 8.36621 52.5068 8.36621H50.3848V16.5392H52.5108C53.9818 16.5392 54.4998 15.5992 54.4998 14.3452ZM53.1259 14.5862C53.1259 15.0812 52.9089 15.4182 52.3419 15.4182H51.7629V9.48721H52.3419C52.9089 9.48721 53.1259 9.82421 53.1259 10.3062V14.5862Z" fill="white"/>
<path fill-rule="evenodd" clip-rule="evenodd" d="M56.3633 8.36621L54.8203 16.5392H56.1223L56.3633 15.0452H57.8223L58.0753 16.5392H59.4863L57.9313 8.36621H56.3633ZM57.6443 13.9472H56.5443L57.0873 10.6682H57.0993L57.6443 13.9472Z" fill="white"/>
<path fill-rule="evenodd" clip-rule="evenodd" d="M59.9922 8.36621H61.9812C63.3562 8.36621 63.8142 9.00421 63.8142 10.1662V10.9992C63.8142 11.6862 63.5602 12.1202 62.9942 12.2992C63.6812 12.4552 64.0192 12.9142 64.0192 13.6612V14.7462C64.0192 15.9032 63.5002 16.5462 62.1262 16.5462H59.9922V8.36621ZM61.3662 11.8142H61.8492C62.2952 11.8142 62.5002 11.5842 62.5002 11.1502V10.1502C62.5002 9.70421 62.3002 9.48721 61.8372 9.48721H61.3662V11.8142ZM61.3662 15.4182V12.8622H61.9542C62.4362 12.8622 62.6412 13.0912 62.6412 13.5252V14.7552C62.6412 15.1892 62.4242 15.4182 61.9662 15.4182H61.3662Z" fill="white"/>
<path d="M64.6455 8.36621H66.0205V15.4182H67.6595V16.5392H64.6455V8.36621Z" fill="white"/>
<path d="M68.2257 8.36621H71.5057V9.48721H69.5997V11.8262H70.9617V12.9352H69.5997V15.4182H71.4997V16.5392H68.2197L68.2257 8.36621Z" fill="white"/>
<path fill-rule="evenodd" clip-rule="evenodd" d="M74.7119 8.36621L73.1689 16.5392H74.4709L74.7119 15.0452H76.1709L76.4239 16.5392H77.8349L76.2789 8.36621H74.7119ZM75.9929 13.9472H74.893L75.4379 10.6682H75.4509L75.9929 13.9472Z" fill="white"/>
<path d="M79.4998 11.4042V16.5392H78.3408V8.36621H79.6908L81.1738 13.0552V8.36621H82.3188V16.5392H81.1138L79.4998 11.4042Z" fill="white"/>
<path fill-rule="evenodd" clip-rule="evenodd" d="M87.153 14.3452V10.5602C87.153 9.29921 86.635 8.36621 85.164 8.36621H83.042V16.5392H85.164C86.635 16.5392 87.153 15.5992 87.153 14.3452ZM85.7839 14.5862C85.7839 15.0812 85.5669 15.4182 84.9999 15.4182H84.4219V9.48721H84.9999C85.5669 9.48721 85.7839 9.82421 85.7839 10.3062V14.5862Z" fill="white"/>
<path d="M28.5537 26.4328V22.4998C28.5537 21.2288 29.1537 20.2998 30.5927 20.2998C32.1037 20.2998 32.5237 21.1398 32.5237 22.3388V23.2998H31.2757V22.2348C31.2757 21.7348 31.1077 21.4438 30.6167 21.4438C30.1257 21.4438 29.9167 21.7908 29.9167 22.2828V26.6488C29.9167 27.1408 30.1167 27.4878 30.6167 27.4878C31.1167 27.4878 31.2757 27.1758 31.2757 26.6968V25.1998H32.5237V26.5998C32.5237 27.7628 32.0437 28.6268 30.5927 28.6268C29.1417 28.6268 28.5537 27.6918 28.5537 26.4328Z" fill="white"/>
<path d="M33.3868 20.3994H34.7538V27.4154H36.3848V28.5314H33.3848L33.3868 20.3994Z" fill="white"/>
<path d="M37.1289 20.3994H40.3909V21.5154H38.4999V23.8414H39.8549V24.9414H38.4999V27.4114H40.3999V28.5274H37.1289V20.3994Z" fill="white"/>
<path fill-rule="evenodd" clip-rule="evenodd" d="M42.5614 20.3994L41.0264 28.5314H42.3214L42.5614 27.0444H44.0154L44.2674 28.5314H45.6674L44.1204 20.3994H42.5614ZM43.8322 25.9524H42.7412L43.2802 22.6904H43.2922L43.8322 25.9524Z" fill="white"/>
<path d="M47.4996 23.4224V28.5314H46.3506V20.3994H47.6996L49.1746 25.0654V20.3994H50.3136V28.5314H49.1136L47.4996 23.4224Z" fill="white"/>
<path d="M53.9668 20.3994H57.2288V21.5154H55.3338V23.8414H56.6888V24.9414H55.3338V27.4114H57.2288V28.5274H53.9668V20.3994Z" fill="white"/>
<path d="M59.1999 23.4224V28.5314H58.0449V20.3994H59.3879L60.8629 25.0654V20.3994H61.9999V28.5314H60.7999L59.1999 23.4224Z" fill="white"/>
<path d="M62.8896 20.3994H66.1516V21.5154H64.2566V23.8414H65.6116V24.9414H64.2566V27.4114H66.1516V28.5274H62.8896V20.3994Z" fill="white"/>
<path fill-rule="evenodd" clip-rule="evenodd" d="M68.3465 28.5294V24.7994L69.6295 28.5314H71.0685L69.7615 24.8374C70.5405 24.6574 70.8525 24.1414 70.8525 23.2664V22.2224C70.8525 21.0834 70.3495 20.3994 68.9695 20.3994H66.9785V28.5294H68.3465ZM68.3465 24.0434V21.5134H68.7995C69.2715 21.5134 69.4715 21.7284 69.4715 22.1724V23.3724C69.4715 23.8034 69.2675 24.0434 68.7995 24.0434H68.3465Z" fill="white"/>
<path d="M73.7788 24.1898H75.7218V28.5318H74.7388V27.6438C74.5588 28.2558 74.1748 28.6278 73.4318 28.6278C72.2558 28.6278 71.7168 27.6918 71.7168 26.4328V22.4998C71.7168 21.2288 72.3278 20.2998 73.7668 20.2998C75.2788 20.2998 75.7218 21.1398 75.7218 22.3388V23.0588H74.4748V22.2308C74.4748 21.7308 74.2828 21.4398 73.7918 21.4398C73.3008 21.4398 73.0838 21.7868 73.0838 22.2788V26.6448C73.0838 27.1368 73.2838 27.4838 73.7548 27.4838C74.1988 27.4838 74.4268 27.2318 74.4268 26.7048V25.2698H73.7788V24.1898Z" fill="white"/>
<path d="M79.2601 25.4364V28.5314H77.8931V25.4364L76.3701 20.3994H77.8001L78.6281 23.4824H78.6401L79.4641 20.3994H80.7711L79.2601 25.4364Z" fill="white"/>
</svg>
