<svg width="100" height="100" viewBox="0 0 100 100" fill="none" xmlns="http://www.w3.org/2000/svg">
<rect width="100" height="100" fill="#00689D"/>
<path d="M7.72266 12.0594V15.5974H7.75366L10.1317 13.1294H10.1617V28.5604H13.5517V8.40137H10.8467L7.72266 12.0594Z" fill="white"/>
<path fill-rule="evenodd" clip-rule="evenodd" d="M25.4154 20.7411V23.7151H25.4204C25.4204 26.8371 24.0204 28.7991 20.4204 28.7991C16.8534 28.7991 15.4844 26.5391 15.4844 23.4171V13.6061C15.4844 10.4541 16.8224 8.16406 20.3904 8.16406C24.1374 8.16406 25.1184 10.2451 25.1184 13.2181V14.2901H22.0264V12.9501C22.0264 11.7021 21.6704 10.9881 20.4504 10.9881C19.2304 10.9881 18.8454 11.8501 18.8454 13.0701V17.4111H18.8744C19.3794 16.4291 20.2414 15.7751 21.6694 15.7751C24.1074 15.7751 25.4154 17.4411 25.4154 20.7411ZM20.425 26.0361C21.584 26.0361 22.06 25.2931 22.06 24.0151V20.5041C22.06 19.1951 21.613 18.4811 20.455 18.4811C19.384 18.4811 18.908 19.1951 18.85 20.3251V24.0151C18.85 25.2641 19.295 26.0361 20.425 26.0361Z" fill="white"/>
<path d="M64.6141 49.0996C64.6141 49.0996 63.7731 50.2166 64.0141 51.3056C64.2551 52.3946 65.5021 53.0416 65.5021 53.0416C65.5021 53.0416 66.3431 51.9246 66.1021 50.8366C65.8611 49.7486 64.6141 49.0996 64.6141 49.0996Z" fill="white"/>
<path d="M63.2436 55.484C63.2436 55.484 64.0846 54.366 63.8436 53.278C63.6026 52.19 62.3566 51.542 62.3566 51.542C62.3566 51.542 61.5146 52.659 61.7566 53.748C61.9986 54.837 63.2446 55.484 63.2446 55.484" fill="white"/>
<path d="M66.7002 54.2882C66.7002 54.2882 67.5882 55.1882 68.6002 55.0942C69.6122 55.0002 70.3612 53.9632 70.3612 53.9632C70.3612 53.9632 69.4742 53.0632 68.4612 53.1562C67.4482 53.2492 66.7002 54.2882 66.7002 54.2882Z" fill="white"/>
<path d="M68.156 49.4999C67.333 50.3349 67.449 51.813 67.449 51.813C67.449 51.813 68.9 51.939 69.725 51.105C70.55 50.2709 70.432 48.7919 70.432 48.7919C70.432 48.7919 68.98 48.6659 68.156 49.4999Z" fill="white"/>
<path d="M66.3406 57.6094C67.3486 57.7294 68.2966 56.8634 68.2966 56.8634C68.2966 56.8634 67.6096 55.8004 66.6006 55.6854C65.5916 55.5704 64.6436 56.4324 64.6436 56.4324C64.6436 56.4324 65.3306 57.4904 66.3386 57.6094" fill="white"/>
<path d="M67.2406 75.123H59.7056C59.1169 75.123 58.6396 75.6003 58.6396 76.189C58.6396 76.7778 59.1169 77.255 59.7056 77.255H67.2406C67.8294 77.255 68.3066 76.7778 68.3066 76.189C68.3066 75.6003 67.8294 75.123 67.2406 75.123Z" fill="white"/>
<path d="M67.2406 86.874H59.7056C59.1169 86.874 58.6396 87.3513 58.6396 87.94C58.6396 88.5288 59.1169 89.006 59.7056 89.006H67.2406C67.8294 89.006 68.3066 88.5288 68.3066 87.94C68.3066 87.3513 67.8294 86.874 67.2406 86.874Z" fill="white"/>
<path d="M33.3521 72.818C33.1803 72.6498 33.0057 72.5107 32.8291 72.4014C32.8291 72.4014 33.0221 72.5879 33.3521 72.818Z" fill="white"/>
<path fill-rule="evenodd" clip-rule="evenodd" d="M59.9801 77.9997H66.9631C67.2985 77.9992 67.571 78.2703 67.5721 78.6057V85.5227C67.571 85.8581 67.2994 86.1296 66.9641 86.1307H59.9811C59.6459 86.1296 59.3747 85.8579 59.3741 85.5227V83.4097L54.8161 82.9097L32.5371 83.4197V80.7037L44.4671 80.9757V77.0817C43.0531 76.9742 41.6584 76.6883 40.3161 76.2307C39.1908 75.8454 37.9999 75.0999 36.8239 74.3638C35.6225 73.6117 34.4366 72.8693 33.3521 72.5307C34.5171 72.7977 37.4011 73.2447 39.4521 71.8307C40.6189 71.0253 41.2862 70.3592 41.8396 69.8068C42.5312 69.1164 43.0449 68.6037 44.1331 68.2187C40.6141 67.9197 38.0351 65.7517 37.0141 60.9517C36.0411 56.3797 35.3661 54.5807 33.4411 53.7607C36.2551 53.4877 40.3631 53.4597 45.0631 58.2757C48.6291 61.9237 52.2821 61.8327 55.1831 59.1307C58.0841 56.4287 60.1191 55.1277 61.7001 56.8997C62.0471 57.2878 62.4146 57.657 62.8011 58.0057C63.1631 56.2497 64.2321 55.1437 65.2901 54.0607L65.3079 54.0425C65.8834 53.4531 66.4788 52.8434 66.9341 52.1367L67.3121 52.3807C66.8251 53.1327 66.2121 53.7637 65.6121 54.3747C64.5271 55.4857 63.4731 56.5717 63.1851 58.3397C63.6348 58.7268 64.1192 59.0716 64.6321 59.3697C64.1251 59.3367 63.6162 59.3521 63.1121 59.4157C63.1221 60.3277 63.3071 61.3967 63.7401 62.6967C63.5851 62.7127 63.4381 62.7257 63.2851 62.7337C62.8701 61.4637 62.6891 60.3967 62.6701 59.4797C62.1849 59.5599 61.7084 59.6862 61.2471 59.8567C59.5301 60.5017 58.3351 61.9517 58.4741 65.6867C58.6141 69.3537 57.2161 74.6537 50.8051 76.4617C49.9366 76.7061 49.0512 76.8859 48.1561 76.9997V81.0687L54.8151 81.2207L59.3731 80.7207V78.6057C59.3737 78.2709 59.6453 77.9997 59.9801 77.9997ZM47.0575 77.1067C46.5585 77.1407 46.0635 77.1557 45.5635 77.1477V81.0097L47.0575 81.0437V77.1067Z" fill="white"/>
<path d="M31.8845 82.9795C31.8845 83.5525 31.4845 84.0165 30.9925 84.0165H30.4555C29.9635 84.0165 29.5625 83.5525 29.5625 82.9795V81.0995C29.5625 80.5265 29.9625 80.0625 30.4555 80.0625H30.9925C31.4845 80.0625 31.8845 80.5265 31.8845 81.0995V82.9795Z" fill="white"/>
<path fill-rule="evenodd" clip-rule="evenodd" d="M33.9745 8.38965H31.9375V16.5617H33.3115V13.7887H33.9745C35.3605 13.7887 35.8675 13.0897 35.8675 11.9446V10.2216C35.8675 9.07665 35.3605 8.38965 33.9745 8.38965ZM33.3118 12.7287V9.51065H33.8188C34.2888 9.51065 34.4938 9.72765 34.4938 10.1737V12.0537C34.4938 12.4997 34.2888 12.7287 33.8188 12.7287H33.3118Z" fill="white"/>
<path d="M36.4697 8.38965H39.7487V9.51065H37.8437V11.8486H39.2057V12.9577H37.8437V15.4407H39.7487V16.5617H36.4697V8.38965Z" fill="white"/>
<path fill-rule="evenodd" clip-rule="evenodd" d="M41.8213 8.38965L40.2783 16.5617H41.5803L41.8213 15.0617H43.2793L43.5323 16.5617H44.9423L43.3883 8.38965H41.8213ZM43.0993 13.9696H41.9993L42.5453 10.6917H42.5573L43.0993 13.9696Z" fill="white"/>
<path d="M45.3994 14.4509V10.4999C45.3994 9.22195 45.9994 8.29395 47.4484 8.29395C48.9674 8.29395 49.3894 9.13795 49.3894 10.3429V11.3069H48.1364V10.2329C48.1364 9.72695 47.9684 9.43295 47.4734 9.43295C46.9784 9.43295 46.7734 9.78295 46.7734 10.2769V14.6639C46.7734 15.1579 46.9784 15.5079 47.4734 15.5079C47.9684 15.5079 48.1364 15.1949 48.1364 14.7079V13.2099H49.3904V14.6199C49.3904 15.7889 48.9084 16.6569 47.4494 16.6569C45.9904 16.6569 45.3994 15.7169 45.3994 14.4509Z" fill="white"/>
<path d="M50.1367 8.38965H53.4157V9.51065H51.5157V11.8486H52.8777V12.9577H51.5107V15.4407H53.4107V16.5617H50.1367V8.38965Z" fill="white"/>
<path d="M55.6214 15.3551L54.9214 17.1991H54.1504L54.3194 15.2471H55.6194L55.6214 15.3551Z" fill="white"/>
<path d="M61.4432 8.38965V14.7006C61.4432 15.8826 60.9242 16.6536 59.5502 16.6536C58.1282 16.6536 57.7432 15.8706 57.7432 14.8336V13.2106H59.0432V14.8616C59.0432 15.2716 59.1882 15.5126 59.5492 15.5126C59.9102 15.5126 60.0682 15.2716 60.0682 14.8496V8.38965H61.4432Z" fill="white"/>
<path d="M66.2644 8.38965V14.5726C66.2644 15.8376 65.7214 16.6576 64.3234 16.6576C62.8774 16.6576 62.2744 15.8376 62.2744 14.5726V8.38965H63.6484V14.7006C63.6484 15.1836 63.8414 15.5086 64.3234 15.5086C64.8054 15.5086 64.9994 15.1876 64.9994 14.7006V8.38965H66.2644Z" fill="white"/>
<path d="M67.0352 14.8002V13.7002H68.3132V14.8212C68.3132 15.2792 68.5182 15.5442 68.9882 15.5442C69.4222 15.5442 69.6152 15.2552 69.6152 14.8212V14.5082C69.6152 14.0382 69.4222 13.7482 69.0002 13.3502L68.1922 12.5432C67.4092 11.7722 67.0472 11.3012 67.0472 10.3612V10.0842C67.0472 9.07218 67.6382 8.28418 68.9762 8.28418C70.3502 8.28418 70.8922 8.95918 70.8922 10.1402V10.8032H69.6392V10.1002C69.6392 9.63018 69.4222 9.40018 68.9882 9.40018C68.6022 9.40018 68.3372 9.61718 68.3372 10.0752V10.2442C68.3372 10.7022 68.5902 10.9672 68.9882 11.3532L69.8682 12.2202C70.6152 12.9802 70.9772 13.4382 70.9772 14.3422V14.7422C70.9772 15.8622 70.3772 16.6582 68.9772 16.6582C67.5772 16.6582 67.0352 15.8742 67.0352 14.8002Z" fill="white"/>
<path d="M71.5996 8.38965H75.2526V9.51065H74.1236V16.5617H72.7376V9.51065H71.5996V8.38965Z" fill="white"/>
<path d="M75.9561 8.38965H77.3301V16.5617H75.9561V8.38965Z" fill="white"/>
<path d="M78.1846 14.4509V10.4999C78.1846 9.22195 78.7846 8.29395 80.2336 8.29395C81.7526 8.29395 82.1746 9.13795 82.1746 10.3429V11.3069H80.9206V10.2329C80.9206 9.72695 80.7526 9.43295 80.2576 9.43295C79.7626 9.43295 79.5576 9.78295 79.5576 10.2769V14.6639C79.5576 15.1579 79.7576 15.5079 80.2576 15.5079C80.7576 15.5079 80.9206 15.1949 80.9206 14.7079V13.2099H82.1746V14.6199C82.1746 15.7889 81.6926 16.6569 80.2336 16.6569C78.7746 16.6569 78.1846 15.7169 78.1846 14.4509Z" fill="white"/>
<path d="M82.9824 8.38965H86.2614V9.51065H84.3564V11.8486H85.7184V12.9577H84.3564V15.4407H86.2614V16.5617H82.9824V8.38965Z" fill="white"/>
<path fill-rule="evenodd" clip-rule="evenodd" d="M33.3125 20.374L31.7695 28.546H33.0715L33.3125 27.052H34.7705L35.0235 28.546H36.4335L34.8795 20.374H33.3125ZM34.5933 25.955H33.4933L34.0393 22.677H34.0513L34.5933 25.955Z" fill="white"/>
<path d="M38.2781 23.412V28.546H37.1211V20.374H38.4711L39.9541 25.063V20.374H41.1001V28.546H39.8941L38.2781 23.412Z" fill="white"/>
<path fill-rule="evenodd" clip-rule="evenodd" d="M46.113 26.353V22.568C46.113 21.3 45.6 20.374 44.121 20.374H42V28.546H44.124C45.595 28.546 46.113 27.606 46.113 26.353ZM44.7391 26.594C44.7391 27.088 44.5221 27.425 43.9551 27.425H43.3771V21.495H43.9551C44.5221 21.495 44.7391 21.833 44.7391 22.315V26.594Z" fill="white"/>
<path d="M48.3301 26.7873V25.6873H49.6071V26.8083C49.6071 27.2663 49.8121 27.5313 50.2821 27.5313C50.7161 27.5313 50.9091 27.2423 50.9091 26.8083V26.5003C50.9091 26.0303 50.7161 25.7413 50.2941 25.3433L49.4871 24.5363C48.7031 23.7643 48.3421 23.2943 48.3421 22.3543V22.0773C48.3421 21.0643 48.9321 20.2773 50.2701 20.2773C51.6441 20.2773 52.1871 20.9523 52.1871 22.1333V22.8003H50.9331V22.0893C50.9331 21.6193 50.7161 21.3893 50.2821 21.3893C49.8971 21.3893 49.6311 21.6063 49.6311 22.0643V22.2333C49.6311 22.6913 49.8841 22.9563 50.2821 23.3413L51.1621 24.2093C51.9091 24.9693 52.2711 25.4273 52.2711 26.3313V26.7313C52.2711 27.8523 51.6711 28.6483 50.2711 28.6483C48.8711 28.6483 48.3301 27.8593 48.3301 26.7873Z" fill="white"/>
<path d="M52.7773 20.374H56.4294V21.5H55.2994V28.551H53.9103V21.5H52.7773V20.374Z" fill="white"/>
<path fill-rule="evenodd" clip-rule="evenodd" d="M58.5634 28.548V24.8L59.8524 28.546H61.2994L59.9824 24.834C60.7684 24.655 61.0824 24.135 61.0824 23.255V22.206C61.0824 21.061 60.5754 20.374 59.1894 20.374H57.1895V28.548H58.5634ZM58.5638 24.043V21.5L59.0218 21.495C59.4958 21.495 59.6958 21.712 59.6958 22.158V23.369C59.6958 23.802 59.4918 24.043 59.0218 24.043H58.5638Z" fill="white"/>
<path fill-rule="evenodd" clip-rule="evenodd" d="M61.9492 22.4843V26.4373C61.9492 27.7003 62.5652 28.6433 64.0232 28.6433C65.4812 28.6433 66.1082 27.7033 66.1082 26.4373V22.4843C66.1082 21.2063 65.4702 20.2783 64.0232 20.2783C62.5762 20.2783 61.9492 21.2063 61.9492 22.4843ZM64.7345 22.2673V26.6543C64.7345 27.1483 64.5075 27.4983 64.0235 27.4983C63.5396 27.4983 63.3236 27.1483 63.3236 26.6543V22.2673C63.3236 21.7733 63.5296 21.4233 64.0235 21.4233C64.5175 21.4233 64.7345 21.7733 64.7345 22.2673Z" fill="white"/>
<path d="M68.1697 23.412V28.546H67.0127V20.374H68.3627L69.8447 25.063V20.374H70.9897V28.546H69.7897L68.1697 23.412Z" fill="white"/>
<path d="M73.9666 24.1833H75.9196V28.5463H74.9306V27.6543C74.7506 28.2693 74.3646 28.6433 73.6176 28.6433C72.4366 28.6433 71.8936 27.7033 71.8936 26.4373V22.4843C71.8936 21.2063 72.5086 20.2783 73.9546 20.2783C75.4736 20.2783 75.9196 21.1223 75.9196 22.3273V23.0503H74.6656V22.2193C74.6656 21.7123 74.4726 21.4193 73.9786 21.4193C73.4846 21.4193 73.2676 21.7693 73.2676 22.2633V26.6503C73.2676 27.1443 73.4726 27.4943 73.9426 27.4943C74.3886 27.4943 74.6176 27.2413 74.6176 26.7103V25.2683H73.9666V24.1833Z" fill="white"/>
<path d="M32 32.4902H33.374V40.6622H32V32.4902Z" fill="white"/>
<path d="M35.4461 35.5272V40.6622H34.2891V32.4902H35.6391L37.1211 37.1782V32.4902H38.2671V40.6622H37.0611L35.4461 35.5272Z" fill="white"/>
<path d="M39.0996 38.9008V37.8008H40.3776V38.9218C40.3776 39.3798 40.5826 39.6448 41.0526 39.6448C41.4866 39.6448 41.6786 39.3558 41.6786 38.9218V38.6088C41.6786 38.1388 41.4866 37.8488 41.0646 37.4518L40.2566 36.6438C39.4736 35.8728 39.1116 35.4028 39.1116 34.4618V34.1848C39.1116 33.1728 39.7026 32.3848 41.0406 32.3848C42.4146 32.3848 42.9566 33.0598 42.9566 34.2408V34.9038H41.6996V34.2008C41.6996 33.7308 41.4826 33.5008 41.0486 33.5008C40.6626 33.5008 40.3976 33.7178 40.3976 34.1758V34.3448C40.3976 34.8028 40.6506 35.0678 41.0486 35.4538L41.9286 36.3218C42.6756 37.0808 43.0366 37.5388 43.0366 38.4428V38.8428C43.0366 39.9638 42.4366 40.7588 41.0366 40.7588C39.6366 40.7588 39.0996 39.9758 39.0996 38.9008Z" fill="white"/>
<path d="M43.5459 32.4902H47.1999V33.6112H46.0649V40.6622H44.6789V33.6112H43.5459V32.4902Z" fill="white"/>
<path d="M47.957 32.4902H49.331V40.6622H47.957V32.4902Z" fill="white"/>
<path d="M50.0898 32.4902H53.7418V33.6112H52.6088V40.6622H51.2228V33.6112H50.0898V32.4902Z" fill="white"/>
<path d="M58.4909 32.4902V38.6732C58.4909 39.9382 57.9489 40.7582 56.5509 40.7582C55.104 40.7582 54.502 39.9382 54.502 38.6732V32.4902H55.8759V38.8052C55.8759 39.2882 56.0689 39.6132 56.5509 39.6132C57.0329 39.6132 57.2259 39.2882 57.2259 38.8052V32.4902H58.4909Z" fill="white"/>
<path d="M59.2383 32.4902H62.8903V33.6112H61.7573V40.6622H60.3713V33.6112H59.2383V32.4902Z" fill="white"/>
<path d="M63.6494 32.4902H65.0234V40.6622H63.6494V32.4902Z" fill="white"/>
<path fill-rule="evenodd" clip-rule="evenodd" d="M65.9395 34.6005V38.5525C65.9395 39.8185 66.5565 40.7595 68.0144 40.7595C69.4724 40.7595 70.0994 39.8195 70.0994 38.5535V34.6005C70.0994 33.3215 69.4584 32.3945 68.0124 32.3945C66.5665 32.3945 65.9395 33.3225 65.9395 34.6005ZM68.723 34.3825V38.7695C68.723 39.2635 68.495 39.6135 68.012 39.6135C67.529 39.6135 67.312 39.2635 67.312 38.7695V34.3825C67.312 33.8885 67.518 33.5385 68.012 33.5385C68.506 33.5385 68.723 33.8885 68.723 34.3825Z" fill="white"/>
<path d="M72.159 35.5272V40.6622H71V32.4902H72.35L73.833 37.1782V32.4902H74.98V40.6622H73.774L72.159 35.5272Z" fill="white"/>
<path d="M75.8105 38.9008V37.8008H77.0885V38.9218C77.0885 39.3798 77.2935 39.6448 77.7635 39.6448C78.1975 39.6448 78.3905 39.3558 78.3905 38.9218V38.6088C78.3905 38.1388 78.1975 37.8488 77.7755 37.4518L76.9675 36.6438C76.1845 35.8728 75.8225 35.4028 75.8225 34.4618V34.1848C75.8225 33.1728 76.4135 32.3848 77.7515 32.3848C79.1255 32.3848 79.6675 33.0598 79.6675 34.2408V34.9038H78.4145V34.2008C78.4145 33.7308 78.1975 33.5008 77.7635 33.5008C77.3775 33.5008 77.1125 33.7178 77.1125 34.1758V34.3448C77.1125 34.8028 77.3655 35.0678 77.7635 35.4538L78.6435 36.3218C79.3905 37.0808 79.7525 37.5388 79.7525 38.4428V38.8428C79.7525 39.9638 79.1525 40.7588 77.7525 40.7588C76.3525 40.7588 75.8105 39.9758 75.8105 38.9008Z" fill="white"/>
</svg>
