<svg width="100" height="100" viewBox="0 0 100 100" fill="none" xmlns="http://www.w3.org/2000/svg">
<rect width="100" height="100" fill="#4C9F38"/>
<path d="M14.2696 28.8138C17.6906 28.8138 19.1776 26.9988 19.1776 24.2038V21.2308C19.1776 19.3868 18.3776 18.1968 16.6776 17.8108C18.0776 17.3648 18.9966 16.2338 18.9966 14.5398V12.7848C18.9966 9.92978 17.6286 8.17578 14.5066 8.17578C10.9966 8.17578 9.77661 10.2558 9.77661 13.2308V15.0148H12.8696V12.9628C12.8696 11.7138 13.2576 11.0008 14.3276 11.0008C15.3976 11.0008 15.7836 11.7138 15.7836 12.8138V14.9848C15.7836 16.0558 15.0706 16.6198 13.9716 16.6198H12.6916V19.2088H14.1196C15.3086 19.2088 15.7836 19.7728 15.7836 20.8438V24.1748C15.7836 25.2448 15.3086 25.9898 14.2676 25.9898C13.1086 25.9898 12.6916 25.2148 12.6916 24.0258V21.1418H9.59961V23.7878C9.59961 26.8518 10.8176 28.8138 14.2666 28.8138" fill="white"/>
<path d="M83.5251 62.4995C83.5251 59.6855 81.7251 57.3995 78.9851 57.3995C77.6181 57.3995 75.9681 58.8995 75.0721 59.8185C74.1721 58.8955 72.6361 57.3975 71.2721 57.3975C68.5381 57.3975 66.6211 59.6785 66.6211 62.4975C66.6169 63.8408 67.1375 65.1326 68.0721 66.0975L75.0821 73.1205L82.0821 66.1055L82.0761 66.1005C83.0098 65.1348 83.5297 63.8427 83.5251 62.4995Z" fill="white"/>
<path d="M53.6802 84.5875H53.6082C53.0751 84.5554 52.6345 84.16 52.5452 83.6335L48.9842 62.8925L43.5902 72.8925C43.3542 73.3294 42.8647 73.5657 42.3758 73.4787C41.8869 73.3917 41.5089 73.001 41.4382 72.5095L39.1482 56.5045L34.9592 65.9145C34.7742 66.3302 34.3622 66.5985 33.9072 66.5995H17.6242C17.0154 66.5635 16.54 66.0593 16.54 65.4495C16.54 64.8396 17.0154 64.3354 17.6242 64.2995H33.1592L38.6702 51.9225C38.878 51.4539 39.3706 51.1793 39.8785 51.2488C40.3863 51.3183 40.7869 51.7153 40.8612 52.2225L43.2222 68.7225L48.5412 58.8595C48.7749 58.428 49.2562 58.192 49.7404 58.2713C50.2246 58.3507 50.6054 58.728 50.6892 59.2115L53.9892 78.4185L66.0042 38.4995C66.1415 38.045 66.5435 37.7214 67.0168 37.6842C67.49 37.6471 67.9376 37.904 68.1442 38.3315L74.4672 51.4405C74.6551 51.812 74.6277 52.2561 74.3956 52.6017C74.1634 52.9474 73.7627 53.1407 73.3476 53.1072C72.9326 53.0738 72.568 52.8188 72.3942 52.4405L67.3562 41.9995L54.7812 83.7675C54.6355 84.2539 54.188 84.5872 53.6802 84.5875Z" fill="white"/>
<path d="M30.6228 12.1785H32.5768V16.5435H31.5878V15.6505C31.4068 16.2655 31.0208 16.6395 30.2738 16.6395C29.0918 16.6395 28.5498 15.6995 28.5498 14.4335V10.4785C28.5498 9.20046 29.1648 8.27246 30.6108 8.27246C32.1298 8.27246 32.5768 9.11646 32.5768 10.3225V11.0455H31.3228V10.2135C31.3228 9.70746 31.1298 9.41346 30.6358 9.41346C30.1418 9.41346 29.9238 9.76346 29.9238 10.2575V14.6465C29.9238 15.1405 30.1288 15.4905 30.5988 15.4905C31.0448 15.4905 31.2748 15.2375 31.2748 14.7065V13.2635H30.6228V12.1785Z" fill="white"/>
<path fill-rule="evenodd" clip-rule="evenodd" d="M33.4795 10.4785V14.4335C33.4795 15.6995 34.0945 16.6395 35.5535 16.6395C37.0125 16.6395 37.6395 15.6995 37.6395 14.4335V10.4785C37.6395 9.19946 37.0005 8.27246 35.5535 8.27246C34.1065 8.27246 33.4795 9.20046 33.4795 10.4785ZM36.2645 10.2615V14.6505C36.2645 15.1445 36.0365 15.4945 35.5535 15.4945C35.0705 15.4945 34.8535 15.1445 34.8535 14.6505V10.2615C34.8535 9.76746 35.0595 9.41746 35.5535 9.41746C36.0475 9.41746 36.2645 9.76746 36.2645 10.2615Z" fill="white"/>
<path fill-rule="evenodd" clip-rule="evenodd" d="M38.5439 10.4785V14.4335C38.5439 15.6995 39.1569 16.6395 40.615 16.6395C42.073 16.6395 42.7 15.6995 42.7 14.4335V10.4785C42.7 9.19946 42.065 8.27246 40.618 8.27246C39.1709 8.27246 38.5439 9.20046 38.5439 10.4785ZM41.3289 10.2615V14.6505C41.3289 15.1445 41.1009 15.4945 40.6179 15.4945C40.1349 15.4945 39.9179 15.1445 39.9179 14.6505V10.2615C39.9179 9.76746 40.1239 9.41746 40.6179 9.41746C41.1119 9.41746 41.3289 9.76746 41.3289 10.2615Z" fill="white"/>
<path fill-rule="evenodd" clip-rule="evenodd" d="M47.7174 14.3481V10.5631C47.7174 9.29914 47.1994 8.36914 45.7284 8.36914H43.6064V16.5431H45.7284C47.1994 16.5431 47.7174 15.6021 47.7174 14.3481ZM46.3435 14.5891C46.3435 15.0841 46.1265 15.4211 45.5595 15.4211H44.9815V9.49014H45.5595C46.1265 9.49014 46.3435 9.82714 46.3435 10.3101V14.5891Z" fill="white"/>
<path d="M53.1922 12.9381H51.8662V16.5431H50.4912V8.36914H51.8662V11.8291H53.1922V8.36914H54.5782V16.5431H53.1922V12.9381Z" fill="white"/>
<path d="M55.4816 8.36914H58.7616V9.49014H56.8616V11.8291H58.2236V12.9381H56.8566V15.4211H58.7566V16.5431H55.4766L55.4816 8.36914Z" fill="white"/>
<path fill-rule="evenodd" clip-rule="evenodd" d="M60.9434 8.36914L59.3994 16.5431H60.6994L60.9434 15.0481H62.3994L62.6544 16.5431H64.0654L62.5104 8.36914H60.9434ZM62.2234 13.9511H61.1234L61.6694 10.6711H61.6814L62.2234 13.9511Z" fill="white"/>
<path d="M64.7529 8.36914H66.1269V15.4211H67.7669V16.5431H64.7529V8.36914Z" fill="white"/>
<path d="M67.5742 8.36914H71.2272V9.49014H70.0942V16.5431H68.7072V9.49014H67.5742V8.36914Z" fill="white"/>
<path d="M74.6873 12.9381H73.3613V16.5431H71.9873V8.36914H73.3613V11.8291H74.6873V8.36914H76.0733V16.5431H74.6873V12.9381Z" fill="white"/>
<path fill-rule="evenodd" clip-rule="evenodd" d="M29.8858 20.3545L28.3428 28.5285H29.6448L29.8858 27.0285H31.3468L31.5998 28.5285H33.0078L31.4528 20.3545H29.8858ZM31.1668 25.9365H30.0668L30.6118 22.6575H30.6238L31.1668 25.9365Z" fill="white"/>
<path d="M34.8532 23.3925V28.5285H33.7002V20.3545H35.0512L36.5332 25.0445V20.3545H37.6792V28.5285H36.4682L34.8532 23.3925Z" fill="white"/>
<path fill-rule="evenodd" clip-rule="evenodd" d="M42.6891 26.3345V22.5495C42.6891 21.2835 42.1711 20.3545 40.7001 20.3545H38.5781V28.5285H40.7001C42.1711 28.5285 42.6891 27.5885 42.6891 26.3345ZM41.3151 26.5755C41.3151 27.0705 41.0981 27.4075 40.5311 27.4075L39.9521 27.4115V21.4805H40.5311C41.0981 21.4805 41.3151 21.8175 41.3151 22.2995V26.5755Z" fill="white"/>
<path d="M47.9452 23.4775L47.1742 28.5285H45.8842L44.7842 20.3545H46.1102L46.7492 25.5385H46.7612L47.4482 20.3545H48.5692L49.3292 25.5385H49.3412L49.9682 20.3545H51.1252L50.0642 28.5285H48.7642L47.9562 23.4775H47.9452Z" fill="white"/>
<path d="M51.8389 20.3545H55.1179V21.4765H53.2179V23.8145H54.5799V24.9245H53.2139V27.4075H55.1139V28.5285H51.8389V20.3545Z" fill="white"/>
<path d="M55.9736 20.3545H57.3486V27.4075H58.9876V28.5285H55.9736V20.3545Z" fill="white"/>
<path d="M59.7354 20.3545H61.1093V27.4075H62.7493V28.5285H59.7354V20.3545Z" fill="white"/>
<path d="M62.5684 23.7002H64.4994V24.8002H62.5684V23.7002Z" fill="white"/>
<path fill-rule="evenodd" clip-rule="evenodd" d="M65.3174 20.3545H67.3064C68.6804 20.3545 69.1384 20.9935 69.1384 22.1545V22.9865C69.1384 23.6735 68.8854 24.1075 68.3194 24.2865C69.0064 24.4425 69.3434 24.9005 69.3434 25.6485V26.7335C69.3434 27.8905 68.8254 28.5335 67.4514 28.5335H65.3174V20.3545ZM66.6913 23.7995H67.1733C67.6194 23.7995 67.8244 23.5705 67.8244 23.1365V22.1365C67.8244 21.6905 67.6244 21.4735 67.1613 21.4735H66.6913V23.7995ZM66.6913 27.4045V24.8485H67.2793C67.7613 24.8485 67.9663 25.0775 67.9663 25.5115V26.7415C67.9663 27.1755 67.7493 27.4045 67.2913 27.4045H66.6913Z" fill="white"/>
<path d="M70.1514 20.3545H73.4304V21.4765H71.5304V23.8145H72.8934V24.9245H71.5254V27.4075H73.4254V28.5285H70.1514V20.3545Z" fill="white"/>
<path d="M74.2871 20.3545H75.6611V28.5285H74.2871V20.3545Z" fill="white"/>
<path d="M77.7351 23.3925V28.5285H76.5781V20.3545H77.9281L79.4111 25.0445V20.3545H80.5561V28.5285H79.3561L77.7351 23.3925Z" fill="white"/>
<path d="M83.5339 24.1648H85.4869V28.5288H84.4999V27.6368C84.3189 28.2518 83.9339 28.6258 83.1859 28.6258C82.0049 28.6258 81.4619 27.6848 81.4619 26.4188V22.4648C81.4619 21.1868 82.0769 20.2588 83.5239 20.2588C85.0429 20.2588 85.4889 21.1028 85.4889 22.3078V23.0318H84.2329V22.1998C84.2329 21.6938 84.0399 21.3998 83.5459 21.3998C83.0519 21.3998 82.8339 21.7498 82.8339 22.2438V26.6328C82.8339 27.1268 83.0339 27.4758 83.5099 27.4758C83.9559 27.4758 84.1849 27.2228 84.1849 26.6928V25.2498H83.5339V24.1648Z" fill="white"/>
</svg>
