<svg width="100" height="100" viewBox="0 0 100 100" fill="none" xmlns="http://www.w3.org/2000/svg">
<rect width="100" height="100" fill="#3F7E44"/>
<path d="M12.6219 8.3877V28.5417H9.23292V13.1147H9.20292L6.82592 15.5817H6.79492V12.0437L9.91592 8.3877H12.6219Z" fill="white"/>
<path d="M23.8002 12.7595V14.5125C23.8002 16.2055 22.8792 17.3355 21.4822 17.7825C23.1762 18.1685 23.9822 19.3575 23.9822 21.2005V24.1735C23.9822 26.9665 22.4962 28.7805 19.0772 28.7805C15.6282 28.7805 14.4082 26.8185 14.4082 23.7565V21.1115H17.5002V24.0005C17.5002 25.1895 17.9152 25.9605 19.0762 25.9605C20.1152 25.9605 20.5902 25.2185 20.5902 24.1475V20.8145C20.5902 19.7435 20.1152 19.1795 18.9272 19.1795H17.5002V16.5935H18.7792C19.8792 16.5935 20.5902 16.0275 20.5902 14.9585V12.7885C20.5902 11.6885 20.2052 10.9755 19.1352 10.9755C18.0652 10.9755 17.6792 11.6885 17.6792 12.9365V14.9875H14.5832V13.2005C14.5832 10.2275 15.8022 8.14648 19.3102 8.14648C22.4322 8.14648 23.7992 9.90148 23.7992 12.7555" fill="white"/>
<path fill-rule="evenodd" clip-rule="evenodd" d="M86.7089 62.6003C84.0739 58.9093 72.1559 44.1553 49.9999 44.1553C27.8439 44.1553 15.9319 58.9093 13.2929 62.6003C13.225 62.696 13.1627 62.7858 13.1068 62.8664L13.1065 62.8668L13.1062 62.8672L13.106 62.8674L13.106 62.8675L13.1059 62.8676L13.1056 62.868L13.1055 62.8683L13.1047 62.8693C13.0691 62.9207 13.0361 62.9683 13.0059 63.0113C13.0676 63.1055 13.1413 63.2104 13.2249 63.3294L13.2929 63.4263C15.9319 67.1233 27.8459 81.8783 49.9999 81.8783C72.1539 81.8783 84.0739 67.1233 86.7089 63.4303C86.8239 63.2703 86.9189 63.1303 86.9939 63.0153C86.9192 62.8993 86.8242 62.7623 86.7089 62.6043V62.6003ZM37.645 53.4842C37.797 53.2615 38.2167 52.7249 38.4443 52.4338L38.4445 52.4336C38.5162 52.3419 38.5688 52.2746 38.588 52.2493C38.7475 52.044 39.0533 51.9911 39.2861 51.9508L39.335 51.9423C39.572 51.9003 39.884 52.0293 39.922 52.2063C39.96 52.3833 39.831 53.0693 39.715 53.1872C39.39 53.5242 38.544 54.0002 38.078 53.9252C37.717 53.8702 37.578 53.5912 37.645 53.4842ZM36.9013 55.0021C36.8872 55.018 36.8704 55.0371 36.8528 55.0583L36.8518 55.0613C36.4045 55.7943 36.0198 56.5637 35.7018 57.3613C35.8261 57.4217 35.9678 57.4362 36.1018 57.4023C36.4569 57.323 36.9953 56.7718 37.4675 56.2883C37.6442 56.1074 37.8116 55.936 37.9568 55.8023C38.0183 55.7434 38.169 55.654 38.3419 55.5514C38.6974 55.3404 39.1468 55.0738 39.1078 54.9023C39.0498 54.6473 38.5328 54.4593 38.1498 54.5193L38.0798 54.5301C37.7019 54.5882 37.1952 54.6661 36.9328 54.9653C36.9263 54.9737 36.9152 54.9864 36.9013 55.0021ZM45.1427 72.0693C44.847 73.2323 44.5028 73.6619 44.2076 74.0302L44.1947 74.0462C43.8967 74.4182 42.7947 74.9032 42.0947 74.8512C41.3947 74.7992 41.2947 72.9263 41.2947 71.9623C41.2947 71.8676 41.2564 71.8801 41.196 71.8998C41.0444 71.9494 40.7536 72.0444 40.5777 70.6113C40.4909 69.9017 40.2001 70.0179 39.9477 70.1188C39.7436 70.2004 39.5647 70.2719 39.5387 69.8893C39.5013 69.3364 39.3162 69.2124 39.0739 69.05C38.9411 68.961 38.791 68.8604 38.6387 68.6713C38.3168 68.2714 37.9342 68.4995 37.5096 68.7527C37.3672 68.8377 37.22 68.9254 37.0687 68.9933C36.9074 69.0656 36.8073 69.1283 36.7308 69.1763C36.5219 69.3071 36.4895 69.3274 35.8687 69.1313C35.8551 69.1269 35.8457 69.1229 35.8354 69.1186L35.8354 69.1186C35.8292 69.116 35.8227 69.1133 35.8147 69.1103C35.008 67.2093 34.5924 65.1653 34.5927 63.1003C34.5927 62.5793 34.6207 62.0663 34.6697 61.5603C34.6968 61.5094 34.7286 61.4612 34.7647 61.4163C35.5807 60.4503 35.5647 60.2243 35.5647 60.2243L36.4647 59.9123C36.4647 59.9123 37.9067 60.1343 38.9927 60.5433C39.17 60.6096 39.3673 60.6926 39.576 60.7804C40.4214 61.136 41.4557 61.5711 42.1157 61.3033C42.7087 61.0593 43.1717 60.7353 43.1157 60.2423C43.0497 59.6233 42.5617 59.4763 41.9717 59.8933C41.8685 59.9665 41.7094 59.7589 41.5317 59.5271C41.3359 59.2717 41.1176 58.9869 40.9267 59.0163C40.7374 59.0454 40.8668 59.3895 40.9913 59.7204C41.106 60.0255 41.2165 60.3193 41.0687 60.3443C40.7797 60.3931 40.2133 59.2285 40.057 58.9071L40.0317 58.8553C39.9257 58.6403 39.4467 58.1093 39.0157 58.5153C38.4051 59.0957 37.5387 59.2628 36.945 59.3773C36.654 59.4334 36.4285 59.4769 36.3307 59.5503C35.4307 60.2263 35.1887 59.3273 35.2087 58.7803C35.2447 58.6553 35.2817 58.5293 35.3217 58.4053C35.6167 58.0803 36.6757 57.9723 37.0397 58.2143C37.4205 58.4684 37.6979 58.1771 37.8583 58.0088L37.8817 57.9843C38.0377 57.8223 37.9817 57.5693 37.8817 57.3573C37.7817 57.1453 38.0817 56.9853 38.2877 56.9303C38.4305 56.8922 38.8051 56.6491 39.1132 56.4491L39.1133 56.4491C39.2498 56.3605 39.3733 56.2803 39.4577 56.2303C39.7327 56.0673 41.1577 55.8973 41.8007 56.2173C42.323 56.4932 42.9674 56.3632 43.3417 55.9063C43.6564 55.5313 44.0353 55.2154 44.4607 54.9733C44.6847 54.8733 43.9097 54.1463 43.2737 54.9343C42.6377 55.7223 42.3107 55.7903 42.0107 55.7903C41.7107 55.7903 39.9287 55.3463 39.7107 54.7833C39.4927 54.2203 40.2687 53.7993 40.9257 53.4833C41.36 53.2744 42.2935 53.2067 43.0095 53.1547C43.3768 53.128 43.6868 53.1055 43.8427 53.0703C44.0422 53.0265 44.2535 52.9707 44.4684 52.914C45.261 52.7048 46.1022 52.4827 46.5757 52.8053C46.8464 52.9896 46.3653 53.2329 45.8468 53.4952C45.212 53.8164 44.5211 54.1659 45.0847 54.4703C45.3556 54.6191 46.336 54.0223 47.0529 53.5859C47.2996 53.4357 47.5151 53.3045 47.6597 53.2293C48.3227 52.8875 48.002 52.6601 47.5573 52.3448C47.1119 52.0289 46.5421 51.6248 46.7117 50.9293C47.0402 49.5812 44.447 49.8363 42.5708 50.0208C42.2591 50.0515 41.9672 50.0802 41.7117 50.0993C45.9163 47.4095 51.1623 46.9198 55.7921 48.7847C60.4219 50.6497 63.8636 54.6391 65.0297 59.4923C65.0388 59.7329 65.0136 59.9737 64.9547 60.2073C64.8147 60.7633 63.7547 61.2413 63.1477 60.3463C62.9917 60.1203 62.3297 59.4953 62.3477 60.5643C62.3551 60.999 62.5285 61.2752 62.6652 61.493C62.8647 61.8107 62.9863 62.0044 62.4007 62.3853C61.701 62.8404 61.4074 62.895 61.1332 62.9459C61.0207 62.9668 60.9114 62.9871 60.7787 63.0343C60.3227 63.1963 59.8787 64.2973 59.9917 64.8863C60.0281 65.0757 60.1981 65.371 60.3772 65.6821C60.7548 66.338 61.1729 67.0644 60.4647 67.0183C60.2197 66.9993 58.3757 65.7403 58.0717 64.9303C57.8799 64.4219 57.678 63.9203 57.4935 63.4619L57.4934 63.4616L57.4933 63.4613L57.4933 63.4613C57.3683 63.1507 57.2513 62.8599 57.1507 62.6003C56.9017 61.9573 56.2507 61.8003 55.6967 62.1733C55.4136 62.3639 55.4599 62.5559 55.52 62.8054C55.5776 63.044 55.6478 63.3352 55.4547 63.7283C55.4278 63.7831 55.4014 63.8376 55.3753 63.8912C55.02 64.6234 54.7392 65.202 54.1997 64.5843C53.5145 63.7994 52.6874 63.5474 51.9572 63.325C51.0817 63.0582 50.3456 62.8339 50.1607 61.7843C50.0389 61.0987 49.6083 60.908 49.1142 60.6892C48.8581 60.5757 48.5848 60.4547 48.3287 60.2533C47.5787 59.6633 47.1557 59.3533 47.0287 59.7723C46.9682 59.9757 47.6752 60.6507 48.3592 61.3038L48.3593 61.3038C48.9295 61.8483 49.4837 62.3775 49.5637 62.6053C49.8267 63.3513 48.8247 64.0053 48.0907 64.1853C47.4965 64.331 47.1749 63.9713 46.6918 63.431C46.5783 63.304 46.4558 63.167 46.3187 63.0243C46.1592 62.858 46.0196 62.7025 45.8985 62.5676C45.4729 62.0935 45.2747 61.8726 45.2357 62.3303C45.1637 63.1793 45.9187 64.4303 46.6507 64.8923C46.783 64.9759 46.9187 65.0498 47.0484 65.1205L47.0486 65.1206L47.0489 65.1207L47.049 65.1208C47.5319 65.3839 47.9327 65.6023 47.7727 66.1083C47.7391 66.2145 47.7167 66.2933 47.6994 66.3539L47.6994 66.3539C47.671 66.4534 47.6566 66.5038 47.6299 66.5466C47.6024 66.5907 47.5618 66.6266 47.4795 66.6996C47.3964 66.7732 47.2706 66.8846 47.0727 67.0803C46.3727 67.7723 46.2387 67.9993 46.2897 68.9603C46.3219 69.5666 46.2339 69.8135 46.1266 70.1143L46.1266 70.1143L46.1265 70.1143L46.1265 70.1144C46.0638 70.2903 45.9945 70.4847 45.9387 70.7803C45.8698 71.1462 45.7595 71.2003 45.6314 71.2632C45.4791 71.3379 45.3017 71.425 45.1387 72.0633L45.1427 72.0693ZM62.6927 66.8653C62.9997 66.5893 62.2177 65.8703 61.6997 65.9123C61.4657 65.9333 60.8297 66.4273 61.2207 66.7333C61.6117 67.0393 62.3857 67.1413 62.6927 66.8653ZM61.0429 65.4383C60.8769 65.3763 60.7299 65.2183 60.6039 64.8383C60.4779 64.4583 60.7969 64.2383 61.1039 64.3953C61.4108 64.5523 61.8318 65.0283 61.8318 65.2803C61.8318 65.5323 61.2089 65.5033 61.0389 65.4363L61.0429 65.4383ZM52.7528 65.2773C53.1428 65.5813 53.9228 65.6813 54.2278 65.4093H54.2308C54.5308 65.1353 53.7498 64.4093 53.2308 64.4563C52.9988 64.4773 52.3628 64.9733 52.7528 65.2773ZM47.6357 69.3193L47.6356 69.3193C47.3696 70.1765 47.0146 71.3204 46.749 71.1143C46.36 70.8123 46.907 68.1043 47.019 67.8983C47.629 66.7803 48.947 66.8353 47.931 68.4743C47.8638 68.5843 47.7594 68.9206 47.6358 69.3188L47.6357 69.3191L47.6357 69.3193ZM45.6939 77.9113C47.1027 78.3235 48.5631 78.5326 50.0309 78.5323C53.4121 78.5368 56.7005 77.4265 59.3869 75.3733C59.2971 75.3395 59.2305 75.3029 59.1641 75.2664C58.967 75.1582 58.7717 75.0509 57.9789 75.0203C56.8098 74.9766 55.9199 75.746 55.3284 76.2574C55.1347 76.4249 54.9729 76.5648 54.8439 76.6393C54.6359 76.7593 53.9902 76.5362 53.1306 76.2391L53.1306 76.2391C51.8282 75.789 50.0349 75.1693 48.5289 75.3163C47.4069 75.4243 45.9839 75.9123 45.5069 77.1573C45.3903 77.4219 45.4672 77.7318 45.6939 77.9113ZM60.9161 74.0403C60.7491 73.997 60.587 73.937 60.4321 73.8613C59.9261 73.6038 59.7602 73.7476 59.6189 73.87C59.5248 73.9516 59.4416 74.0237 59.2761 73.9613C59.1145 73.9004 59.1501 73.7173 59.1798 73.565C59.226 73.327 59.2577 73.1643 58.4991 73.6613C57.604 74.2477 57.5284 73.925 57.3553 73.1861L57.3553 73.1861C57.2878 72.898 57.2055 72.5467 57.0541 72.1613C56.5141 70.7873 57.6761 69.2183 58.6541 68.8613C59.6473 68.5021 60.3613 68.3546 60.9196 68.2393C61.1151 68.1989 61.2915 68.1625 61.4541 68.1223C62.35 67.8985 62.9045 67.526 63.2763 67.2763C63.6738 67.0092 63.8624 66.8826 64.0361 67.2283C64.1001 67.3533 64.1611 67.4733 64.2171 67.5853C64.3673 67.9028 64.4471 68.249 64.4511 68.6003C63.6707 70.6451 62.4647 72.5007 60.9131 74.0443L60.9161 74.0403ZM64.364 62.1683C62.9941 63.7443 64.727 66.1403 65.141 66.2533V66.2583C65.3555 65.222 65.4637 64.1665 65.464 63.1083C65.464 62.8023 65.452 62.5083 65.437 62.2083C65.24 61.5383 64.842 61.0733 64.0921 61.1313C64.0128 61.1376 64.0891 61.2767 64.1869 61.455C64.3212 61.6998 64.496 62.0184 64.364 62.1683Z" fill="white"/>
<path d="M31.9102 14.5605V10.5235C31.9102 9.22348 32.5252 8.27148 34.0022 8.27148C35.5532 8.27148 35.9842 9.13248 35.9842 10.3635V11.3485H34.7002V10.2485C34.7002 9.73148 34.5282 9.43648 34.0232 9.43648C33.5182 9.43648 33.3132 9.80048 33.3132 10.3005V14.7805C33.3132 15.2805 33.5222 15.6415 34.0272 15.6415C34.5322 15.6415 34.7042 15.3215 34.7042 14.8295V13.2925H35.9842V14.7325C35.9842 15.9265 35.4922 16.8125 34.0022 16.8125C32.5122 16.8125 31.9102 15.8525 31.9102 14.5605Z" fill="white"/>
<path d="M36.8691 8.36914H38.2691V15.5691H39.9431V16.7141H36.8691V8.36914Z" fill="white"/>
<path d="M40.707 8.36914H42.107V16.7141H40.707V8.36914Z" fill="white"/>
<path d="M47.0207 11.3001H46.9837L46.0367 16.7151H45.3837L44.3377 11.3001H44.3127V16.7151H43.1567V8.36914H44.7927L45.7037 13.0691H45.7167L46.5287 8.36914H48.2997V16.7141H47.0207V11.3001Z" fill="white"/>
<path fill-rule="evenodd" clip-rule="evenodd" d="M50.576 8.36914L49 16.7141H50.33L50.577 15.1871H52.065L52.324 16.7141H53.764L52.176 8.36914H50.576ZM51.8808 14.0681H50.7598L51.3138 10.7201H51.3268L51.8808 14.0681Z" fill="white"/>
<path d="M53.5771 8.36914H57.3072V9.51414H56.1502V16.7141H54.7342V9.51414H53.5771V8.36914Z" fill="white"/>
<path d="M58.0811 8.36914H61.429V9.51414H59.4841V11.9001H60.875V13.0321H59.4841V15.5671H61.429V16.7121H58.0811V8.36914Z" fill="white"/>
<path fill-rule="evenodd" clip-rule="evenodd" d="M33.241 20.2002L31.665 28.5422L32.994 28.5442L33.241 27.0182H34.73L34.989 28.5442H36.429L34.841 20.2002H33.241ZM34.5459 25.9002H33.4249L33.9789 22.5532H33.9919L34.5459 25.9002Z" fill="white"/>
<path d="M36.832 26.3886V22.3516C36.832 21.0466 37.448 20.0996 38.925 20.0996C40.475 20.0996 40.906 20.9606 40.906 22.1916V23.1756H39.626V22.0806C39.626 21.5636 39.454 21.2686 38.949 21.2686C38.444 21.2686 38.235 21.6256 38.235 22.1296V26.6096C38.235 27.1096 38.445 27.4716 38.949 27.4716C39.453 27.4716 39.626 27.1516 39.626 26.6586V25.1206H40.906V26.5606C40.906 27.7546 40.414 28.6406 38.925 28.6406C37.436 28.6406 36.832 27.6806 36.832 26.3886Z" fill="white"/>
<path d="M41.3999 20.2002H45.1299V21.3452H43.9689V28.5452H42.5529V21.3452H41.3999V20.2002Z" fill="white"/>
<path d="M45.9004 20.2002H47.3004V28.5442H45.9004V20.2002Z" fill="white"/>
<path fill-rule="evenodd" clip-rule="evenodd" d="M48.2373 22.3516V26.3886C48.2373 27.6806 48.8653 28.6406 50.3543 28.6406C51.8433 28.6406 52.4843 27.6806 52.4843 26.3886V22.3516C52.4843 21.0466 51.8303 20.0996 50.3543 20.0996C48.8783 20.0996 48.2373 21.0466 48.2373 22.3516ZM51.0813 22.1296V26.6096C51.0813 27.1146 50.8463 27.4716 50.3543 27.4716C49.8623 27.4716 49.6403 27.1096 49.6403 26.6096V22.1296C49.6403 21.6256 49.8493 21.2686 50.3543 21.2686C50.8593 21.2686 51.0813 21.6296 51.0813 22.1296Z" fill="white"/>
<path d="M54.5863 23.3002V28.5432H53.4053V20.2002H54.7843L56.3003 24.9852V20.2002H57.4703V28.5442H56.2363L54.5863 23.3002Z" fill="white"/>
</svg>
