<svg width="100" height="100" viewBox="0 0 100 100" fill="none" xmlns="http://www.w3.org/2000/svg">
<rect width="100" height="100" fill="#26BDE2"/>
<path fill-rule="evenodd" clip-rule="evenodd" d="M20.1259 23.7219C20.1259 26.8449 18.7309 28.8089 15.1309 28.8089C11.5609 28.8089 10.1929 26.5479 10.1929 23.4249V13.6109C10.1929 10.4589 11.5319 8.16992 15.0999 8.16992C18.8469 8.16992 19.8289 10.2509 19.8289 13.2249V14.2999H16.7359V12.9579C16.7359 11.7089 16.3789 10.9949 15.1599 10.9949C13.9409 10.9949 13.5539 11.8559 13.5539 13.0769V17.4189H13.5829C14.0889 16.4379 14.9509 15.7819 16.3779 15.7819C18.8179 15.7819 20.1259 17.4479 20.1259 20.7479V23.7219ZM15.1599 18.4889C14.0889 18.4889 13.6129 19.2029 13.5539 20.3319V24.0209C13.5539 25.2699 13.9989 26.0429 15.1309 26.0429C16.2909 26.0429 16.7649 25.2989 16.7649 24.0209V20.5119C16.7649 19.2029 16.3189 18.4889 15.1599 18.4889Z" fill="white"/>
<path d="M30.6491 16.573C32.1081 16.573 32.5891 15.706 32.5891 14.535V13.124H31.3351V14.632C31.3351 15.114 31.1681 15.432 30.6721 15.432C30.1761 15.432 29.9721 15.083 29.9721 14.588V10.198C29.9721 9.70403 30.1791 9.35403 30.6721 9.35403C31.1651 9.35403 31.3351 9.64303 31.3351 10.154V11.227H32.5891V10.262C32.5891 9.05703 32.1681 8.21203 30.6491 8.21203C29.2001 8.20003 28.6001 9.13203 28.6001 10.411V14.366C28.6001 15.633 29.2001 16.573 30.6501 16.573" fill="white"/>
<path d="M36.473 15.3558H34.834V8.2998H33.457V16.4778H36.473V15.3558Z" fill="white"/>
<path d="M40.4992 15.3558H38.5942V12.8718H39.9562V11.7608H38.5942V9.4218H40.4992V8.2998H37.2202V16.4778H40.4992V15.3558Z" fill="white"/>
<path fill-rule="evenodd" clip-rule="evenodd" d="M44.1402 14.9818H42.6822L42.4382 16.4768H41.1382L42.6822 8.2998H44.2472L45.8002 16.4818H44.3942L44.1402 14.9818ZM43.4171 10.5998H43.4051L42.8601 13.8788H43.9602L43.4171 10.5998Z" fill="white"/>
<path d="M47.6492 11.3398L49.2642 16.4778H50.4692V8.2998H49.3242V12.9918L47.8422 8.2998H46.4912V16.4778H47.6492V11.3398Z" fill="white"/>
<path d="M55.576 16.4768L56.348 11.4238H56.359L57.167 16.4768H58.47L59.53 8.30078H58.374L57.746 13.4858H57.734L56.975 8.30078H55.854L55.167 13.4858H55.155L54.515 8.30078H53.188L54.287 16.4768H55.576Z" fill="white"/>
<path fill-rule="evenodd" clip-rule="evenodd" d="M62.5508 14.9818H61.0908L60.8498 16.4768H59.5498L61.0908 8.2998H62.6578L64.2138 16.4818H62.8028L62.5508 14.9818ZM61.8268 10.5998H61.8158L61.2697 13.8788H62.3698L61.8268 10.5998Z" fill="white"/>
<path d="M65.175 16.4768H66.562V9.4218H67.695V8.2998H64.042V9.4218H65.175V16.4768Z" fill="white"/>
<path d="M71.6223 15.3558H69.7173V12.8718H71.0793V11.7608H69.7173V9.4218H71.6223V8.2998H68.3433V16.4778H71.6223V15.3558Z" fill="white"/>
<path fill-rule="evenodd" clip-rule="evenodd" d="M75.0301 16.4778L73.7411 12.7248L73.7441 16.4778H72.3701V8.2998H74.3701C75.7571 8.2998 76.2631 8.9878 76.2631 10.1338V11.1828C76.2631 12.0618 75.9471 12.5828 75.1631 12.7618L76.4781 16.4778H75.0301ZM74.2001 9.42481H73.7411V11.9668H74.2001C74.6681 11.9668 74.8741 11.7248 74.8741 11.2898V10.0868C74.8741 9.64181 74.6681 9.42481 74.2001 9.42481Z" fill="white"/>
<path fill-rule="evenodd" clip-rule="evenodd" d="M31.441 27.0384H29.982L29.739 28.5334H28.439L29.982 20.3574H31.543L33.1 28.5334H31.694L31.441 27.0384ZM30.7189 22.6604H30.7049L30.1599 25.9414H31.2599L30.7189 22.6604Z" fill="white"/>
<path d="M33.6689 20.3574V28.5354H34.8259V23.3974L36.4409 28.5354H37.6449V20.3574H36.5019V25.0494L35.0189 20.3574H33.6689Z" fill="white"/>
<path fill-rule="evenodd" clip-rule="evenodd" d="M40.7719 28.5344H38.6519V20.3584H40.7719C42.2419 20.3584 42.7609 21.2874 42.7609 22.5524V26.3394C42.7609 27.5934 42.2419 28.5344 40.7719 28.5344ZM40.5998 21.4784H40.0248L40.0218 27.4124H40.5998C41.1678 27.4124 41.3828 27.0744 41.3828 26.5814V22.2994C41.3828 21.8164 41.1678 21.4784 40.5998 21.4784Z" fill="white"/>
<path d="M45.8149 25.6757V26.7757C45.8149 27.8477 46.3589 28.6337 47.7559 28.6337C49.1529 28.6337 49.7559 27.8337 49.7559 26.7147V26.3147C49.7559 25.4147 49.3959 24.9517 48.6489 24.1917L47.7679 23.3237C47.3679 22.9387 47.1169 22.6717 47.1169 22.2157V22.0447C47.1169 21.5867 47.3819 21.3707 47.7679 21.3707C48.2019 21.3707 48.4189 21.5997 48.4189 22.0707V22.7837H49.6729V22.1187C49.6729 20.9367 49.1309 20.2617 47.7559 20.2617C46.4179 20.2617 45.8279 21.0457 45.8279 22.0617V22.3377C45.8279 23.2787 46.1899 23.7497 46.9729 24.5207L47.7799 25.3297C48.2019 25.7297 48.3939 26.0167 48.3939 26.4857V26.7997C48.3939 27.2337 48.2019 27.5237 47.7679 27.5237C47.2989 27.5237 47.0939 27.2587 47.0939 26.7997V25.6757H45.8149Z" fill="white"/>
<path fill-rule="evenodd" clip-rule="evenodd" d="M51.6929 27.0344L51.4519 28.5344H50.1509L51.6929 20.3584H53.2589L54.8149 28.5344H53.4049L53.1519 27.0344H51.6929ZM52.4288 22.6624H52.4168L51.8708 25.9414H52.9708L52.4288 22.6624Z" fill="white"/>
<path d="M58.3237 25.0494L56.8407 20.3584H55.4897V28.5354H56.6487V23.3974L58.2627 28.5354H59.4677V20.3584H58.3237V25.0494Z" fill="white"/>
<rect x="60.585" y="20.3574" width="1.37502" height="8.17699" fill="white"/>
<path d="M65.102 28.5354V21.4794H66.236V20.3594H62.584V21.4794H63.716V28.5354H65.102Z" fill="white"/>
<path fill-rule="evenodd" clip-rule="evenodd" d="M67.4659 20.3584H69.0309L70.5849 28.5344H69.1749L68.9219 27.0394H67.4649L67.2219 28.5344H65.9219L67.4659 20.3584ZM68.1889 22.6624L67.6449 25.9414H68.7428L68.1999 22.6624H68.1889Z" fill="white"/>
<path d="M73.8009 20.3584H70.1489V21.4794H71.2829V28.5354H72.6699V21.4794H73.8009V20.3584Z" fill="white"/>
<rect x="74.5518" y="20.3574" width="1.37402" height="8.17699" fill="white"/>
<path fill-rule="evenodd" clip-rule="evenodd" d="M80.9749 26.4237C80.9749 27.6908 80.3499 28.6318 78.8909 28.6318C77.4449 28.6318 76.8159 27.6908 76.8159 26.4237V22.4677C76.8159 21.1887 77.4319 20.2607 78.8909 20.2607C80.3499 20.2607 80.9749 21.1887 80.9749 22.4677V26.4237ZM78.891 21.4067C78.407 21.4067 78.191 21.7567 78.191 22.2507V26.6407C78.191 27.1347 78.397 27.4847 78.891 27.4847C79.3849 27.4847 79.6019 27.1347 79.6019 26.6407V22.2507C79.6019 21.7567 79.3749 21.4067 78.891 21.4067Z" fill="white"/>
<path d="M85.8472 28.5354V20.3594H84.7022V25.0494L83.2192 20.3594H81.8682V28.5354H83.0262V23.3964L84.6412 28.5354H85.8472Z" fill="white"/>
<path fill-rule="evenodd" clip-rule="evenodd" d="M68.465 40.4363C68.381 40.3441 68.2617 40.2921 68.137 40.2933H31.857C31.7324 40.2886 31.6124 40.341 31.5312 40.4356C31.45 40.5303 31.4164 40.6568 31.44 40.7793L37.54 77.6423C37.5745 77.8465 37.7509 77.9963 37.958 77.9973H45.439L45.951 83.9973H42.803L50.128 91.3213L57.47 83.9803H54.323L54.829 78.0003H62.442C62.6519 78.0011 62.8299 77.8462 62.858 77.6383L68.558 40.7823C68.578 40.6589 68.5442 40.5329 68.465 40.4363ZM54.443 69.9473C53.2674 71.0217 51.7029 71.5675 50.114 71.4573C48.5236 71.5685 46.9571 71.0227 45.78 69.9473C43.062 67.2323 44.032 63.8543 44.98 62.1083C45.564 61.0153 49.74 54.7443 50.1 54.2083V54.1663L50.116 54.1863L50.13 54.1663V54.2083C50.1815 54.2868 50.3159 54.4894 50.5096 54.7813C51.6327 56.4738 54.7489 61.1701 55.247 62.1083C56.192 63.8543 57.159 67.2323 54.443 69.9473ZM62.526 48.3993C63.722 47.9153 64.969 47.7593 65.952 48.1923L66.979 41.8923H33.0279L34.4569 49.2183C36.8819 49.2369 38.8902 48.5146 41.0322 47.7441C41.0737 47.7292 41.1153 47.7142 41.1569 47.6993C43.6397 46.8046 45.835 47.6918 48.0413 48.5834C48.7648 48.8757 49.4895 49.1686 50.2259 49.3993C54.9599 50.8803 58.0259 50.2243 62.526 48.3993Z" fill="white"/>
</svg>
