<svg width="100" height="100" viewBox="0 0 100 100" fill="none" xmlns="http://www.w3.org/2000/svg">
<rect width="100" height="100" fill="#A21942"/>
<path fill-rule="evenodd" clip-rule="evenodd" d="M19.4297 23.6088V21.4088C19.4297 19.4768 18.7467 18.0788 17.1697 17.3648C18.5067 16.7118 19.1327 15.5218 19.1327 13.8568V13.0228C19.1327 9.87078 17.4977 8.17578 14.3747 8.17578C11.2827 8.17578 9.67475 9.87578 9.67475 13.0228V13.8568C9.67475 15.4928 10.2747 16.7118 11.5747 17.3648C9.99875 18.0788 9.34375 19.4768 9.34375 21.4088V23.6088C9.34375 26.6708 10.8017 28.8088 14.3707 28.8088C17.9707 28.8088 19.4257 26.6668 19.4257 23.6088H19.4297ZM12.8528 12.8088C12.8528 11.5878 13.2708 10.8748 14.3708 10.8748C15.4998 10.8748 15.9168 11.5878 15.9168 12.8088V14.1758C15.9168 15.3948 15.4998 16.1108 14.3708 16.1108C13.2708 16.1108 12.8528 15.3948 12.8528 14.1758V12.8088ZM14.3748 26.0468C15.5938 26.0468 16.0398 25.1848 16.0398 23.9648V20.6938C16.0398 19.4748 15.5938 18.6118 14.3748 18.6118C13.1848 18.6118 12.7388 19.4748 12.7388 20.6938V23.9648C12.7388 25.1848 13.1848 26.0468 14.3748 26.0468Z" fill="white"/>
<path d="M69.4159 49.1998L59.2519 58.8668C58.8689 59.2478 58.6719 59.5288 58.6719 60.3188V87.4188C58.673 87.7384 58.9323 87.9968 59.2519 87.9968H69.7519C70.0713 87.9968 70.3303 87.7382 70.3309 87.4188V49.4418C70.3309 49.1218 70.0809 48.5418 69.4169 49.1978" fill="white"/>
<path d="M40.1347 61.8002L29.9696 71.4632C29.5876 71.8452 29.3896 72.1252 29.3896 72.9142V87.4142C29.3913 87.7334 29.6505 87.9912 29.9696 87.9912H40.4697C40.7886 87.9912 41.0475 87.7332 41.0487 87.4142V62.0382C41.0487 61.7172 40.7957 61.1322 40.1347 61.7952" fill="white"/>
<path d="M74.0363 37.4719C74.041 37.3896 74.0096 37.3093 73.9503 37.2519C73.8991 37.2034 73.8327 37.1741 73.7623 37.1689H73.7063H73.6233L65.8403 38.9329L65.6993 38.9479C65.6423 38.9597 65.5897 38.987 65.5473 39.0269C65.4336 39.1435 65.4336 39.3294 65.5473 39.4459L65.6353 39.5339L67.4133 41.3109L49.7773 58.9469L41.6323 50.7999C41.5887 50.7552 41.5288 50.73 41.4663 50.73C41.4038 50.73 41.344 50.7552 41.3003 50.7999L39.0903 53.0109L26.0313 66.069C25.9414 66.1613 25.9414 66.3086 26.0313 66.401L28.2443 68.613C28.2879 68.6567 28.3471 68.6814 28.4088 68.6814C28.4706 68.6814 28.5298 68.6567 28.5733 68.613L41.4733 55.7209L47.3833 61.6329C47.389 61.6427 47.3953 61.6521 47.4023 61.6609L49.6133 63.869C49.6568 63.9136 49.7165 63.9388 49.7788 63.9388C49.8411 63.9388 49.9008 63.9136 49.9443 63.869L69.9553 43.8539L71.8213 45.7189C71.876 45.7746 71.9508 45.8059 72.0288 45.8059C72.1068 45.8059 72.1816 45.7746 72.2363 45.7189C72.2885 45.6684 72.319 45.5996 72.3213 45.5269V45.5029L74.0303 37.5579L74.0363 37.4719Z" fill="white"/>
<path d="M54.8334 63.4919L49.9154 68.4499C49.8225 68.5285 49.685 68.5233 49.5984 68.4379L45.1434 63.8999C44.3274 63.0879 44.1514 63.7469 44.1514 64.0659V87.4169C44.1511 87.5699 44.2116 87.7168 44.3197 87.8252C44.4277 87.9336 44.5743 87.9946 44.7274 87.9949H55.2273C55.5459 87.9938 55.8038 87.7355 55.8043 87.4169V63.6749C55.8043 63.3559 55.5533 62.7689 54.8314 63.4919" fill="white"/>
<path fill-rule="evenodd" clip-rule="evenodd" d="M30.9801 14.3452V10.5602C30.9801 9.29921 30.4611 8.36621 28.9911 8.36621H26.8691V16.5392H28.9911C30.4611 16.5392 30.9801 15.5992 30.9801 14.3452ZM29.6062 14.5862C29.6062 15.0812 29.3892 15.4182 28.8222 15.4182H28.2432V9.48721H28.8222C29.3892 9.48721 29.6062 9.82421 29.6062 10.3072V14.5862Z" fill="white"/>
<path d="M31.8477 8.36621H35.1266V9.48721H33.2267V11.8262H34.5886V12.9352H33.2217V15.4182H35.1216V16.5392H31.8477V8.36621Z" fill="white"/>
<path d="M35.8262 14.4305V10.4755C35.8262 9.19753 36.4262 8.26953 37.8752 8.26953C39.3942 8.26953 39.8162 9.11353 39.8162 10.3195V11.2835H38.5632V10.2105C38.5632 9.70453 38.3942 9.41053 37.9002 9.41053C37.4062 9.41053 37.2002 9.76053 37.2002 10.2545V14.6435C37.2002 15.1375 37.4052 15.4875 37.9002 15.4875C38.3952 15.4875 38.5632 15.1735 38.5632 14.6875V13.1885H39.8162V14.5995C39.8162 15.7695 39.3342 16.6375 37.8752 16.6375C36.4162 16.6375 35.8262 15.6995 35.8262 14.4305Z" fill="white"/>
<path d="M40.6484 8.36621H43.9274V9.48721H42.0274V11.8262H43.3904V12.9352H42.0224V15.4182H43.9224V16.5392H40.6484V8.36621Z" fill="white"/>
<path d="M45.9001 11.4042V16.5392H44.7471V8.36621H46.1001L47.5831 13.0552V8.36621H48.7281V16.5392H47.5201L45.9001 11.4042Z" fill="white"/>
<path d="M49.4365 8.36621H53.0895V9.48721H51.9565V16.5392H50.5695V9.48721H49.4365V8.36621Z" fill="white"/>
<path d="M58.1278 11.4882L57.3568 16.5392H56.0668L54.9668 8.36621H56.2998L56.9388 13.5502H56.9508L57.6378 8.36621H58.7588L59.5178 13.5502H59.5298L60.1568 8.36621H61.3148L60.2498 16.5392H58.9498L58.1418 11.4882H58.1278Z" fill="white"/>
<path fill-rule="evenodd" clip-rule="evenodd" d="M61.8652 10.4755V14.4305C61.8652 15.6995 62.4812 16.6365 63.9392 16.6365C65.3972 16.6365 66.0242 15.6965 66.0242 14.4305V10.4755C66.0242 9.19753 65.3862 8.26953 63.9392 8.26953C62.4922 8.26953 61.8652 9.19753 61.8652 10.4755ZM64.6502 10.2585V14.6475C64.6502 15.1415 64.4222 15.4915 63.9393 15.4915C63.4563 15.4915 63.2393 15.1415 63.2393 14.6475V10.2585C63.2393 9.76454 63.4453 9.41454 63.9393 9.41454C64.4332 9.41454 64.6502 9.76454 64.6502 10.2585Z" fill="white"/>
<path fill-rule="evenodd" clip-rule="evenodd" d="M68.2666 16.5392V12.7902L69.5566 16.5392H71.0006L69.6856 12.8262C70.4726 12.6472 70.7856 12.1272 70.7856 11.2472V10.1982C70.7856 9.05321 70.2796 8.36621 68.8926 8.36621H66.8926V16.5392H68.2666ZM68.2666 12.0342V9.49021L68.7246 9.49521C69.2006 9.49521 69.4006 9.71221 69.4006 10.1582V11.3582C69.4006 11.7922 69.1956 12.0342 68.7246 12.0342H68.2666Z" fill="white"/>
<path d="M72.9922 12.5612V16.5392H71.6182V8.36621H72.9922V11.9582L74.4922 8.36621H75.8422L74.2512 12.0432L75.8782 16.5432H74.4272L72.9922 12.5612Z" fill="white"/>
<path fill-rule="evenodd" clip-rule="evenodd" d="M79.333 8.36621L77.79 16.5392H79.092L79.333 15.0452H80.792L81.0451 16.5392H82.4561L80.9 8.36621H79.333ZM80.6141 13.9472H79.5141L80.0591 10.6682H80.0721L80.6141 13.9472Z" fill="white"/>
<path d="M84.0711 11.4042V16.5392H82.9131V8.36621H84.2641L85.7471 13.0552V8.36621H86.8921V16.5392H85.6861L84.0711 11.4042Z" fill="white"/>
<path fill-rule="evenodd" clip-rule="evenodd" d="M91.9068 14.3452V10.5602C91.9068 9.29921 91.3878 8.36621 89.9208 8.36621H87.7998V16.5392H89.9168C91.3878 16.5392 91.9068 15.5992 91.9068 14.3452ZM90.5318 14.5862C90.5318 15.0812 90.3148 15.4182 89.7488 15.4182H89.1698V9.48721H89.7488C90.3148 9.48721 90.5318 9.82421 90.5318 10.3072V14.5862Z" fill="white"/>
<path d="M26.8691 20.3711H30.1481V21.4921H28.2431V23.8311H29.6061V24.9401H28.2431V27.4241H30.1481V28.5451H26.8691V20.3711Z" fill="white"/>
<path d="M30.751 26.4354V22.4814C30.751 21.2034 31.351 20.2754 32.8 20.2754C34.319 20.2754 34.741 21.1184 34.741 22.3244V23.2894H33.487V22.2164C33.487 21.7094 33.319 21.4164 32.824 21.4164C32.329 21.4164 32.124 21.7654 32.124 22.2604V26.6484C32.124 27.1424 32.329 27.4924 32.824 27.4924C33.319 27.4924 33.487 27.1794 33.487 26.6924V25.1934H34.741V26.6004C34.741 27.7694 34.259 28.6374 32.8 28.6374C31.341 28.6374 30.751 27.7004 30.751 26.4354Z" fill="white"/>
<path fill-rule="evenodd" clip-rule="evenodd" d="M35.4883 22.4814V26.4354C35.4883 27.7004 36.1033 28.6414 37.5623 28.6414C39.0213 28.6414 39.6483 27.7014 39.6483 26.4354V22.4814C39.6483 21.2034 39.0093 20.2754 37.5623 20.2754C36.1153 20.2754 35.4883 21.2034 35.4883 22.4814ZM38.2733 22.2644V26.6524C38.2733 27.1464 38.0453 27.4964 37.5623 27.4964C37.0793 27.4964 36.8623 27.1464 36.8623 26.6524V22.2644C36.8623 21.7694 37.0683 21.4204 37.5623 21.4204C38.0563 21.4204 38.2733 21.7694 38.2733 22.2644Z" fill="white"/>
<path d="M41.5877 23.4091V28.5451H40.4307V20.3711H41.7807L43.2637 25.0611V20.3711H44.4087V28.5451H43.1997L41.5877 23.4091Z" fill="white"/>
<path fill-rule="evenodd" clip-rule="evenodd" d="M45.1934 22.4814V26.4354C45.1934 27.7004 45.8074 28.6414 47.2664 28.6414C48.7254 28.6414 49.3524 27.7014 49.3524 26.4354V22.4814C49.3524 21.2034 48.7124 20.2754 47.2664 20.2754C45.8204 20.2754 45.1934 21.2034 45.1934 22.4814ZM47.9784 22.2644V26.6524C47.9784 27.1464 47.7494 27.4964 47.2664 27.4964C46.7834 27.4964 46.5664 27.1464 46.5664 26.6524V22.2644C46.5664 21.7694 46.7714 21.4204 47.2664 21.4204C47.7614 21.4204 47.9784 21.7694 47.9784 22.2644Z" fill="white"/>
<path d="M53.9208 23.2401H53.8848L52.9558 28.5401H52.3168L51.2928 23.2401H51.2678V28.5401H50.1348V20.3711H51.7348L52.6268 24.9711H52.6388L53.4388 20.3711H55.1757V28.5451H53.9208V23.2401Z" fill="white"/>
<path d="M55.958 20.3711H57.332V28.5451H55.958V20.3711Z" fill="white"/>
<path d="M58.0996 26.4354V22.4814C58.0996 21.2034 58.6996 20.2754 60.1486 20.2754C61.6676 20.2754 62.0896 21.1184 62.0896 22.3244V23.2894H60.8396V22.2164C60.8396 21.7094 60.6706 21.4164 60.1766 21.4164C59.6826 21.4164 59.4766 21.7654 59.4766 22.2604V26.6484C59.4766 27.1424 59.6816 27.4924 60.1766 27.4924C60.6716 27.4924 60.8396 27.1794 60.8396 26.6924V25.1934H62.0936V26.6004C62.0936 27.7694 61.6116 28.6374 60.1526 28.6374C58.6936 28.6374 58.0996 27.7004 58.0996 26.4354Z" fill="white"/>
<path d="M66.5066 24.1814H68.4596V28.5454H67.4716V27.6534C67.2906 28.2684 66.9046 28.6414 66.1576 28.6414C64.9756 28.6414 64.4336 27.7014 64.4336 26.4354V22.4814C64.4336 21.2034 65.0476 20.2754 66.4946 20.2754C68.0136 20.2754 68.4596 21.1184 68.4596 22.3244V23.0474H67.2056V22.2164C67.2056 21.7094 67.0126 21.4164 66.5186 21.4164C66.0246 21.4164 65.8076 21.7654 65.8076 22.2604V26.6484C65.8076 27.1424 66.0076 27.4924 66.4826 27.4924C66.9286 27.4924 67.1576 27.2394 67.1576 26.7084V25.2664H66.5066V24.1814Z" fill="white"/>
<path fill-rule="evenodd" clip-rule="evenodd" d="M70.6172 28.5491V24.8001L71.9072 28.5451H73.3502L72.0352 24.8321C72.8212 24.6521 73.1352 24.1321 73.1352 23.2521V22.2031C73.1352 21.0581 72.6282 20.3711 71.2422 20.3711H69.2422V28.5491H70.6172ZM70.617 24.0441V21.5001L71.075 21.4921C71.55 21.4921 71.75 21.7091 71.75 22.1551V23.3691C71.75 23.8031 71.545 24.0441 71.075 24.0441H70.617Z" fill="white"/>
<path fill-rule="evenodd" clip-rule="evenodd" d="M73.7627 22.4814V26.4354C73.7627 27.7004 74.3777 28.6414 75.8367 28.6414C77.2957 28.6414 77.9217 27.7014 77.9217 26.4354V22.4814C77.9217 21.2034 77.2837 20.2754 75.8367 20.2754C74.3897 20.2754 73.7627 21.2034 73.7627 22.4814ZM76.5477 22.2644V26.6524C76.5477 27.1464 76.3197 27.4964 75.8367 27.4964C75.3537 27.4964 75.1367 27.1464 75.1367 26.6524V22.2644C75.1367 21.7694 75.3427 21.4204 75.8367 21.4204C76.3307 21.4204 76.5477 21.7694 76.5477 22.2644Z" fill="white"/>
<path d="M81.4422 23.4931L80.6712 28.5451H79.3812L78.2812 20.3711H79.6102L80.2492 25.5551H80.2612L80.9482 20.3711H82.0692L82.8292 25.5551H82.8412L83.4682 20.3711H84.6252L83.5642 28.5451H82.2642L81.4562 23.4931H81.4422Z" fill="white"/>
<path d="M85.0469 20.3711H88.6999V21.4921H87.5669V28.5451H86.1799V21.4921H85.0469V20.3711Z" fill="white"/>
<path d="M91.8221 24.9401H90.5001V28.5401H89.1211V20.3711H90.5001V23.8311H91.8261V20.3711H93.2121V28.5451H91.8221V24.9401Z" fill="white"/>
</svg>
