<svg width="100" height="100" viewBox="0 0 100 100" fill="none" xmlns="http://www.w3.org/2000/svg">
<rect width="100" height="100" fill="#DD1367"/>
<path fill-rule="evenodd" clip-rule="evenodd" d="M34.6265 16.6614L33.3155 12.8524L33.3185 16.6574H31.9185V8.35742H33.9565C35.3655 8.35742 35.8804 9.05542 35.8804 10.2194V11.2884C35.8804 12.1784 35.5614 12.7064 34.7665 12.8884L36.1004 16.6614H34.6265ZM33.7806 9.49642H33.3156V12.0864H33.7806C34.2596 12.0864 34.4676 11.8404 34.4676 11.4004V10.1714C34.4676 9.71642 34.2596 9.49642 33.7806 9.49642Z" fill="white"/>
<path d="M40.0889 15.5224H38.1529V13.0004H39.5369V11.8724H38.1529V9.49642H40.0889V8.35742H36.7559V16.6614H40.0889V15.5224Z" fill="white"/>
<path fill-rule="evenodd" clip-rule="evenodd" d="M40.959 8.35742H43.113C44.607 8.35742 45.134 9.30042 45.134 10.5874V14.4284C45.134 15.7024 44.607 16.6574 43.113 16.6574H40.959V8.35742ZM42.9381 15.5224C43.5191 15.5224 43.7381 15.1774 43.7381 14.6774V10.3324C43.7381 9.84242 43.5151 9.50042 42.9381 9.50042H42.3511V15.5224H42.9381Z" fill="white"/>
<path d="M47.4498 8.35742H46.0498V14.6404C46.0498 15.9264 46.6618 16.7584 48.1318 16.7584C49.5528 16.7584 50.1038 15.9264 50.1038 14.6404V8.35742H48.8198V14.7754C48.8198 15.2644 48.6248 15.5964 48.1348 15.5964C47.6448 15.5964 47.4498 15.2644 47.4498 14.7754V8.35742Z" fill="white"/>
<path d="M51.0259 10.4998V14.5158C51.0259 15.8018 51.6389 16.7568 53.1069 16.7568C54.5749 16.7568 55.0779 15.8758 55.0779 14.6878V13.2558H53.8059V14.7868C53.8059 15.2768 53.6339 15.5938 53.1329 15.5938C52.6319 15.5938 52.4209 15.2398 52.4209 14.7378V10.2798C52.4209 9.77977 52.6299 9.42177 53.1329 9.42177C53.6359 9.42177 53.8059 9.71577 53.8059 10.2308V11.3208H55.0779V10.3418C55.0779 9.11577 54.6509 8.25977 53.1069 8.25977C51.6389 8.25977 51.0259 9.20277 51.0259 10.5008" fill="white"/>
<path d="M55.9619 16.6604H59.2929V15.5224H57.3589V12.9994H58.7419V11.8724H57.3589V9.49642H59.2929V8.35742H55.9619V16.6604Z" fill="white"/>
<path fill-rule="evenodd" clip-rule="evenodd" d="M60.1621 16.6574V8.35742H62.3181C63.8121 8.35742 64.3391 9.30042 64.3391 10.5874V14.4284C64.3391 15.7024 63.8121 16.6574 62.3181 16.6574H60.1621ZM62.9432 14.6774V10.3324C62.9432 9.84342 62.7182 9.50042 62.1432 9.50042H61.5552V15.5224H62.1432C62.7222 15.5224 62.9432 15.1774 62.9432 14.6774Z" fill="white"/>
<rect x="31.9189" y="20.2383" width="1.39599" height="8.30299" fill="white"/>
<path d="M38.2651 20.2373H37.1011V25.0023L35.5941 20.2373H34.2231V28.5413H35.3981V23.3243L37.0391 28.5413H38.2651V20.2373Z" fill="white"/>
<path d="M42.3803 21.3773V20.2383H39.0503V28.5413H42.3803V27.4013H40.4463V24.8793H41.8293V23.7533H40.4463V21.3773H42.3803Z" fill="white"/>
<path fill-rule="evenodd" clip-rule="evenodd" d="M42.8931 22.3796C42.8931 21.0816 43.5311 20.1396 45.0001 20.1396C46.4821 20.1396 47.1191 21.0796 47.1191 22.3796V26.3936C47.1191 27.3006 46.8001 28.0116 46.0901 28.3536L47.1191 28.5536V29.5966L44.4861 29.1066V28.5436C43.3701 28.3456 42.8931 27.5266 42.8931 26.3996V22.3796ZM45.0002 27.5486C45.5022 27.5486 45.7222 27.1816 45.7222 26.6926V22.1607C45.7222 21.6577 45.4892 21.3027 45.0002 21.3027C44.5112 21.3027 44.2892 21.6607 44.2892 22.1607V26.6926C44.2892 27.1816 44.4982 27.5486 45.0002 27.5486Z" fill="white"/>
<path d="M47.8999 20.2383V26.5213C47.8999 27.8073 48.5129 28.6393 49.9829 28.6393C51.4039 28.6393 51.9549 27.8073 51.9549 26.5213V20.2383H50.6689V26.6553C50.6689 27.1453 50.4689 27.4763 49.9829 27.4763C49.4969 27.4763 49.2969 27.1453 49.2969 26.6553V20.2383H47.8999Z" fill="white"/>
<path fill-rule="evenodd" clip-rule="evenodd" d="M52.4067 28.5383L53.9737 20.2383H55.5667L57.1457 28.5383H55.7137L55.4567 27.0183H53.9737L53.7297 28.5383H52.4067ZM54.7089 22.5773L54.1579 25.9093H55.2719L54.7209 22.5773H54.7089Z" fill="white"/>
<path d="M57.71 20.2383V28.5403H60.772V27.4023H59.106V20.2383H57.71Z" fill="white"/>
<rect x="61.397" y="20.2383" width="1.39599" height="8.30299" fill="white"/>
<path d="M65.9912 28.5413V21.3773H67.1412V20.2383H63.4302V21.3773H64.5822V28.5413H65.9912Z" fill="white"/>
<rect x="67.7778" y="20.2383" width="1.39599" height="8.304" fill="white"/>
<path d="M73.3022 27.4023H71.3672V24.8793H72.7512V23.7533H71.3672V21.3773H73.3022V20.2383H69.9702V28.5403H73.3022V27.4023Z" fill="white"/>
<path d="M73.8511 25.6386V26.7526C73.8511 27.8436 74.4021 28.6386 75.8231 28.6386C77.2441 28.6386 77.8561 27.8296 77.8561 26.6906V26.2906C77.8561 25.3736 77.4881 24.9076 76.7301 24.1356L75.8351 23.2536C75.4351 22.8606 75.1741 22.5926 75.1741 22.1276V21.9556C75.1741 21.4896 75.4431 21.2706 75.8351 21.2706C76.2771 21.2706 76.4961 21.5016 76.4961 21.9796V22.6996H77.7711V22.0246C77.7711 20.8246 77.2201 20.1396 75.8231 20.1396C74.4641 20.1396 73.8641 20.9396 73.8641 21.9636V22.2456C73.8641 23.2006 74.2301 23.6786 75.0281 24.4616L75.8471 25.2836C76.2771 25.6836 76.4721 25.9836 76.4721 26.4596V26.7776C76.4721 27.2186 76.2721 27.5126 75.8351 27.5126C75.3581 27.5126 75.1491 27.2436 75.1491 26.7776V25.6386H73.8511Z" fill="white"/>
<path d="M9.64803 13.1031V28.5521H13.041V8.36914H10.332L7.20703 12.0311V15.5741H7.23603L9.61703 13.1031H9.64803Z" fill="white"/>
<path fill-rule="evenodd" clip-rule="evenodd" d="M25.425 13.5779V23.3429C25.425 26.4679 23.848 28.7899 20.394 28.7899C16.973 28.7899 15.394 26.4679 15.394 23.3429V13.5779C15.394 10.4229 16.971 8.13086 20.394 8.13086C23.848 8.13086 25.425 10.4229 25.425 13.5779ZM18.7861 13.0429V23.8789C18.7861 25.0999 19.2321 25.9619 20.3941 25.9619C21.5851 25.9619 22.0311 25.0999 22.0311 23.8789V13.0429C22.0311 11.8219 21.5851 10.9589 20.3941 10.9589C19.2321 10.9589 18.7861 11.8219 18.7861 13.0429Z" fill="white"/>
<path d="M59.2297 65.7549H40.7677C40.651 65.7624 40.562 65.8621 40.5677 65.9789V71.5279C40.5614 71.645 40.6506 71.7454 40.7677 71.7529H59.2297C59.3468 71.7454 59.436 71.645 59.4297 71.5279V65.9789C59.4354 65.8621 59.3463 65.7624 59.2297 65.7549Z" fill="white"/>
<path d="M59.2298 53.9482H40.7677C40.6511 53.9558 40.562 54.0555 40.5677 54.1722V59.7212C40.5609 59.8386 40.6504 59.9393 40.7677 59.9462H59.2298C59.3471 59.9393 59.4366 59.8386 59.4298 59.7212V54.1722C59.4355 54.0555 59.3464 53.9558 59.2298 53.9482Z" fill="white"/>
<path d="M58.97 45.5615L50.108 36.7005C50.0481 36.6415 49.9519 36.6415 49.892 36.7005L41.03 45.5615C40.9864 45.6052 40.9734 45.6709 40.997 45.728C41.0206 45.785 41.0762 45.8223 41.138 45.8225H58.862C58.9238 45.8223 58.9794 45.785 59.003 45.728C59.0266 45.6709 59.0136 45.6052 58.97 45.5615Z" fill="white"/>
<path d="M67.2898 71.8216L76.1518 62.9596C76.1807 62.9309 76.1969 62.8918 76.1969 62.8511C76.1969 62.8103 76.1807 62.7713 76.1518 62.7426L67.2898 53.8806C67.2461 53.837 67.1804 53.824 67.1233 53.8476C67.0662 53.8712 67.029 53.9268 67.0288 53.9886V71.7136C67.029 71.7754 67.0662 71.831 67.1233 71.8546C67.1804 71.8782 67.2461 71.8652 67.2898 71.8216Z" fill="white"/>
<path d="M41.0298 80.141L49.8918 89C49.9203 89.0288 49.9592 89.0451 49.9998 89.0451C50.0403 89.0451 50.0792 89.0288 50.1078 89L58.9698 80.138C59.0141 80.0944 59.0276 80.0282 59.0039 79.9707C58.9802 79.9132 58.924 79.8758 58.8618 79.876H41.1378C41.0742 79.8744 41.0163 79.9123 40.9923 79.9712C40.9683 80.0301 40.9832 80.0977 41.0298 80.141Z" fill="white"/>
<path d="M32.7099 53.8806L23.8479 62.7426C23.819 62.7713 23.8027 62.8103 23.8027 62.8511C23.8027 62.8918 23.819 62.9309 23.8479 62.9596L32.7099 71.8216C32.7536 71.8652 32.8193 71.8782 32.8764 71.8546C32.9334 71.831 32.9707 71.7754 32.9709 71.7136V53.9886C32.9707 53.9268 32.9334 53.8712 32.8764 53.8476C32.8193 53.824 32.7536 53.837 32.7099 53.8806Z" fill="white"/>
</svg>
