<svg width="100" height="100" viewBox="0 0 100 100" fill="none" xmlns="http://www.w3.org/2000/svg">
<rect width="100" height="100" fill="#0A97D9"/>
<path d="M13.0287 8.41406V28.5671H9.63866V13.1411H9.60966L7.23266 15.6071H7.20166V12.0701L10.3227 8.41406H13.0287Z" fill="white"/>
<rect x="35.5601" y="8.37109" width="1.374" height="8.177" fill="white"/>
<path d="M37.7393 16.5491H39.1133V12.9411H40.4873V11.8321H39.1133V9.49209H40.9573V8.37109H37.7393V16.5491Z" fill="white"/>
<path d="M44.8478 9.49209V8.37109H41.5698V16.5491H44.8478V15.4271H42.9438V12.9411H44.3058V11.8321H42.9438V9.49209H44.8478Z" fill="white"/>
<path fill-rule="evenodd" clip-rule="evenodd" d="M51.4386 13.6651C51.4386 12.9181 51.1026 12.4601 50.4156 12.3031C50.9806 12.1221 51.2356 11.6881 51.2356 11.0031V10.1701C51.2356 9.01412 50.7766 8.37012 49.4026 8.37012H47.4136V16.5471H49.5466C50.9216 16.5471 51.4386 15.9081 51.4386 14.7471V13.6651ZM48.7874 9.49212H49.2574C49.7164 9.49212 49.9214 9.71112 49.9214 10.1561V11.1561C49.9214 11.5911 49.7164 11.8201 49.2694 11.8201H48.7874V9.49212ZM49.3909 15.4261C49.8479 15.4261 50.0659 15.1971 50.0659 14.7631L50.0689 13.5331C50.0689 13.0991 49.8639 12.8701 49.3819 12.8701H48.7909V15.4261H49.3909Z" fill="white"/>
<path d="M52.0264 16.5491H55.3044V15.4271H53.3994V12.9411H54.7614V11.8321H53.3994V9.49209H55.3044V8.37109H52.0264V16.5491Z" fill="white"/>
<path d="M56.1494 8.37109V16.5491H59.1634V15.4271H57.5234V8.37109H56.1494Z" fill="white"/>
<path fill-rule="evenodd" clip-rule="evenodd" d="M59.686 14.4374V10.4824C59.686 9.20039 60.3 8.27539 61.759 8.27539C63.218 8.27539 63.845 9.20439 63.845 10.4824V14.4374C63.845 15.7054 63.205 16.6444 61.759 16.6444C60.313 16.6444 59.686 15.7054 59.686 14.4374ZM62.4713 14.6554V10.2644C62.4713 9.77039 62.2413 9.42139 61.7593 9.42139C61.2773 9.42139 61.0593 9.77039 61.0593 10.2644V14.6554C61.0593 15.1494 61.2643 15.4994 61.7593 15.4994C62.2543 15.4994 62.4713 15.1494 62.4713 14.6554Z" fill="white"/>
<path d="M66.311 13.5571H66.3L65.661 8.37109H64.335L65.432 16.5491H66.721L67.493 11.4941H67.504L68.312 16.5491H69.614L70.674 8.37109H69.518L68.89 13.5571H68.879L68.12 8.37109H66.999L66.311 13.5571Z" fill="white"/>
<path d="M32.8138 28.5373H34.1028L34.8748 23.4843H34.8868L35.6948 28.5373H36.9968L38.0578 20.3613H36.8998L36.2738 25.5473H36.2608L35.5028 20.3613H34.3808L33.6938 25.5473H33.6818L33.0428 20.3613H31.7168L32.8138 28.5373Z" fill="white"/>
<path fill-rule="evenodd" clip-rule="evenodd" d="M39.1721 28.5373H37.8721L39.4141 20.3613H40.9801L42.5331 28.5373H41.1231L40.8711 27.0433H39.4121L39.1721 28.5373ZM40.1499 22.6643H40.1369L39.5999 25.9443H40.6929L40.1499 22.6643Z" fill="white"/>
<path d="M44.7929 28.5373V21.4823H45.9259V20.3613H42.2739V21.4823H43.4059V28.5373H44.7929Z" fill="white"/>
<path d="M49.84 21.4823V20.3613H46.562V28.5373H49.84V27.4163H47.936V24.9313H49.298V23.8213H47.936V21.4823H49.84Z" fill="white"/>
<path fill-rule="evenodd" clip-rule="evenodd" d="M54.4672 22.1943V23.2433H54.4722C54.4722 24.1223 54.1552 24.6423 53.3722 24.8223L54.6852 28.5373H53.2382L51.9492 24.7883V28.5373H50.5752V20.3623H52.5752C53.9612 20.3623 54.4672 21.0483 54.4672 22.1943ZM52.4121 24.0273C52.8861 24.0273 53.0861 23.7863 53.0861 23.3523V22.1453C53.0861 21.6993 52.8811 21.4823 52.4121 21.4823H51.9531V24.0273H52.4121Z" fill="white"/>
<path fill-rule="evenodd" clip-rule="evenodd" d="M23.3487 25.3002V28.5722L20.1367 28.5712V25.3002H14.1587V23.2192L20.0177 8.40918H23.3487V22.6542H24.7167V25.3002H23.3487ZM20.1656 14.3542L17.1326 22.6542H20.1956V14.3542H20.1656Z" fill="white"/>
<path fill-rule="evenodd" clip-rule="evenodd" d="M56.1716 60.9004C67.5696 60.9004 75.6996 71.2624 76.9576 72.9624V72.9594C76.9916 73.0014 77.0196 73.0414 77.0446 73.0764C77.0619 73.1155 77.071 73.1577 77.0716 73.2004C77.0707 73.2434 77.0615 73.2858 77.0446 73.3254C77.0265 73.3472 77.0068 73.3742 76.9843 73.4049C76.9758 73.4166 76.967 73.4288 76.9576 73.4414C75.6986 75.1384 67.5716 85.5024 56.1716 85.5024C46.2746 85.5024 35.6866 76.5254 35.6866 76.5254C35.6866 76.5254 31.6946 84.6904 23.5336 85.4504C23.5058 85.4569 23.4772 85.4596 23.4486 85.4584L23.3606 85.4654C23.1924 85.4534 23.0618 85.314 23.0606 85.1454C23.0611 85.0845 23.0784 85.025 23.1106 84.9734L23.1816 84.8634C24.2206 83.1304 26.9126 78.1644 26.9126 73.2004C26.9126 68.2554 24.2366 63.3004 23.1876 61.5654C23.1274 61.4739 23.0844 61.3723 23.0606 61.2654C23.0416 61.1184 23.2006 60.9534 23.3706 60.9434H23.4216C23.4483 60.9434 23.4752 60.9463 23.5014 60.9491C23.5264 60.9518 23.5507 60.9544 23.5736 60.9544C31.7096 61.7364 35.6866 69.8764 35.6866 69.8764C35.6866 69.8764 46.2716 60.9004 56.1716 60.9004ZM59.1878 71.1841C59.1865 73.0203 60.6735 74.5102 62.5098 74.5124C63.3926 74.5129 64.2394 74.1627 64.864 73.5387C65.4885 72.9147 65.8395 72.0682 65.8398 71.1854C65.8392 69.3491 64.3507 67.8608 62.5144 67.8604C60.6782 67.86 59.1891 69.3478 59.1878 71.1841Z" fill="white"/>
<path d="M23.3178 41.4173C23.2973 41.4106 23.2762 41.406 23.2548 41.4033C23.1675 41.4038 23.0841 41.439 23.0227 41.501C22.9614 41.5631 22.9273 41.647 22.9278 41.7343V44.0003C22.9261 44.0883 22.9604 44.1731 23.0228 44.2353C28.5228 49.0153 33.7338 44.5353 34.9398 43.3523C34.9623 43.3164 34.9915 43.2851 35.0258 43.2603C35.0792 43.2236 35.142 43.2031 35.2068 43.2013C35.2891 43.2008 35.3683 43.2324 35.4278 43.2893C35.4321 43.295 35.4376 43.2997 35.4438 43.3033C41.6588 49.2333 48.1748 44.4303 49.5308 43.3033L49.6638 43.1813C49.7028 43.1639 49.7451 43.1554 49.7878 43.1563C49.8321 43.155 49.8762 43.1635 49.9168 43.1813L50.0518 43.3033C51.4068 44.4303 57.9228 49.2333 64.1368 43.3033C64.1412 43.299 64.1453 43.2943 64.1488 43.2893C64.2084 43.2326 64.2876 43.2011 64.3698 43.2013C64.4346 43.2026 64.4976 43.2231 64.5508 43.2603C64.5864 43.2852 64.6172 43.3164 64.6418 43.3523C65.8468 44.5363 71.0508 49.0153 76.5568 44.2353C76.6184 44.1726 76.6526 44.0881 76.6518 44.0003V41.7343C76.6534 41.6474 76.6201 41.5635 76.5595 41.5013C76.4988 41.4391 76.4157 41.4038 76.3288 41.4033C76.305 41.4055 76.2816 41.4102 76.2588 41.4173C76.2078 41.4463 76.1588 41.4743 76.0938 41.5033C74.4018 42.3503 69.1538 44.3663 64.3938 39.8593C64.3488 39.8183 64.3018 39.7763 64.2548 39.7273C64.2111 39.7076 64.1637 39.6974 64.1158 39.6973C64.0821 39.6994 64.0486 39.7044 64.0158 39.7123C63.9493 39.7385 63.8917 39.7833 63.8498 39.8413C62.4298 40.9233 55.9138 45.3353 50.1108 39.9223L50.0258 39.8393C49.9619 39.7784 49.878 39.7429 49.7898 39.7393C49.7044 39.7435 49.6236 39.7791 49.5628 39.8393L49.4728 39.9223C43.6728 45.3353 37.1488 40.9223 35.7308 39.8413C35.6911 39.7832 35.6351 39.7383 35.5698 39.7123C35.5369 39.7048 35.5035 39.6998 35.4698 39.6973C35.4226 39.6985 35.3761 39.7087 35.3328 39.7273C35.2897 39.7746 35.2432 39.8187 35.1938 39.8593C30.4308 44.3663 25.1838 42.3503 23.4938 41.5033C23.4348 41.4743 23.3778 41.4463 23.3268 41.4173" fill="white"/>
<path d="M34.94 51.6085C34.9634 51.5735 34.9929 51.5431 35.027 51.5185C35.0798 51.4809 35.1423 51.4593 35.207 51.4565C35.29 51.4567 35.3697 51.4894 35.429 51.5475C35.433 51.5531 35.4381 51.5579 35.444 51.5615C41.657 57.4844 48.175 52.6835 49.531 51.5615L49.664 51.4355C49.7035 51.4203 49.7457 51.4132 49.788 51.4145C49.8326 51.413 49.8771 51.4201 49.919 51.4355L50.052 51.5615C51.407 52.6835 57.922 57.4844 64.138 51.5615C64.138 51.5615 64.145 51.5535 64.149 51.5475C64.208 51.4895 64.2873 51.4569 64.37 51.4565C64.4348 51.4587 64.4975 51.4803 64.55 51.5185C64.5858 51.5426 64.617 51.5731 64.642 51.6085C65.842 52.7935 71.05 57.2734 76.557 52.4885C76.6202 52.429 76.6563 52.3462 76.657 52.2595V49.9845C76.6573 49.8982 76.6231 49.8154 76.5621 49.7543C76.5011 49.6933 76.4183 49.6592 76.332 49.6595C76.3083 49.6618 76.2849 49.6662 76.262 49.6725L76.097 49.7555C74.406 50.6035 69.155 52.6145 64.397 48.1135L64.259 47.9835C64.2163 47.9597 64.1678 47.9483 64.119 47.9505C64.0841 47.9499 64.0496 47.9585 64.019 47.9755C63.9501 47.9935 63.8907 48.0371 63.853 48.0975C62.435 49.1775 55.917 53.5905 50.113 48.1775L50.028 48.0925C49.9645 48.0327 49.8802 48 49.793 48.0015C49.7083 48.0008 49.6268 48.0334 49.566 48.0925L49.476 48.1775C43.676 53.5905 37.152 49.1775 35.734 48.0975C35.6981 48.0376 35.6404 47.9939 35.573 47.9755C35.542 47.9595 35.5078 47.9509 35.473 47.9505C35.4258 47.949 35.3792 47.9604 35.338 47.9835C35.293 48.0285 35.245 48.0715 35.196 48.1135C30.433 52.6135 25.187 50.6035 23.496 49.7555L23.329 49.6725C23.3087 49.6666 23.288 49.6623 23.267 49.6595C23.1804 49.6589 23.0971 49.6929 23.0355 49.7539C22.974 49.8149 22.9393 49.8978 22.939 49.9845V52.2595C22.9378 52.3456 22.9722 52.4284 23.034 52.4885C28.534 57.2734 33.746 52.7885 34.951 51.6085" fill="white"/>
<path d="M31.9102 8.37109V16.5491H34.9252V15.4271H33.2852V8.37109H31.9102Z" fill="white"/>
</svg>
