<svg width="84" height="85" viewBox="0 0 84 85" fill="none" xmlns="http://www.w3.org/2000/svg">
<rect y="0.5" width="84" height="84" fill="#E5243B"/>
<path d="M25.127 10.0078V14.3229H24.1543V7.45508H25.2875L26.5349 11.3964V7.45508H27.4975V14.3229H26.4845L25.127 10.0078Z" fill="white"/>
<path fill-rule="evenodd" clip-rule="evenodd" d="M31.7503 12.5511C31.7503 13.6154 31.2253 14.4058 29.998 14.4058C28.7825 14.4058 28.2559 13.6154 28.2559 12.5511V9.22888C28.2559 8.15368 28.7708 7.375 29.998 7.375C31.2253 7.375 31.7503 8.15368 31.7503 9.22888V12.5511ZM29.998 8.33764C29.5923 8.33764 29.41 8.62576 29.41 9.04576V12.7334C29.41 13.1492 29.5831 13.4423 29.998 13.4423C30.413 13.4423 30.5961 13.1534 30.5961 12.7334V9.04576C30.5961 8.62996 30.4037 8.33764 29.998 8.33764Z" fill="white"/>
<path fill-rule="evenodd" clip-rule="evenodd" d="M25.8654 22.1417H25.3093V24.4761H24.1543V17.6074H25.8654C27.0313 17.6074 27.4563 18.1853 27.4563 19.148V20.5919C27.4563 21.5537 27.0313 22.1417 25.8654 22.1417ZM25.7343 18.5457H25.3093V21.2505H25.7343C26.1333 21.2505 26.3013 21.0581 26.3013 20.6818V19.1026C26.3013 18.7288 26.13 18.5457 25.7343 18.5457Z" fill="white"/>
<path fill-rule="evenodd" clip-rule="evenodd" d="M31.6398 22.6994C31.6398 23.7628 31.1139 24.5524 29.8867 24.5524C28.6712 24.5524 28.1445 23.7628 28.1445 22.6994V19.3755C28.1445 18.302 28.6594 17.5225 29.8867 17.5225C31.1139 17.5225 31.6398 18.302 31.6398 19.3755V22.6994ZM29.8867 18.4851C29.4801 18.4851 29.2987 18.7741 29.2987 19.1941V22.8808C29.2987 23.2966 29.4709 23.5906 29.8867 23.5906C30.3025 23.5906 30.4856 23.2966 30.4856 22.8808V19.1941C30.4856 18.7783 30.2932 18.4851 29.8867 18.4851Z" fill="white"/>
<path d="M34.5871 24.4722L35.8942 17.6035H34.8097L33.9991 22.3949H33.9882L33.1986 17.6035H32.0234L33.3305 24.4722H34.5871Z" fill="white"/>
<path d="M39.2259 23.5306H37.6257V21.4423H38.7698V20.5108H37.6257V18.546H39.2259V17.6035H36.4707V24.4722H39.2259V23.5306Z" fill="white"/>
<path fill-rule="evenodd" clip-rule="evenodd" d="M42.1727 24.4719L41.0891 21.3211L41.0933 24.4761H39.9375V17.6074H41.6175C42.7826 17.6074 43.2085 18.1853 43.2085 19.148V20.0241C43.2085 20.7633 42.943 21.2001 42.2845 21.3513L43.3891 24.4719H42.1727ZM41.473 18.5491H41.0891V20.681H41.473C41.8687 20.681 42.0409 20.4794 42.0409 20.114V19.106C42.0409 18.7322 41.8687 18.5491 41.473 18.5491Z" fill="white"/>
<path d="M44.644 24.4722H45.809V18.546H46.7616V17.6035H43.6914V18.546H44.644V24.4722Z" fill="white"/>
<path d="M48.4922 24.4722H49.6472V21.859L50.9232 17.6035H49.8194L49.1214 20.2067H49.1113L48.4116 17.6035H47.207L48.4922 21.859V24.4722Z" fill="white"/>
<path d="M11.7286 11.5476H11.7538V24.5121H14.6006V7.5752H12.3267L9.70508 10.6479V13.6198H9.73028L11.7286 11.5476Z" fill="white"/>
<path d="M64.6914 40.5755C64.6923 39.2924 65.7329 38.2528 67.016 38.2529C68.2991 38.2531 69.3394 39.293 69.34 40.5761C69.3406 41.8592 68.3013 42.9001 67.0182 42.9015C65.7335 42.9015 64.6919 41.8603 64.6914 40.5755Z" fill="white"/>
<path d="M69.7329 43.7975C71.3283 43.9447 72.5485 45.2839 72.5469 46.8862V53.3357C72.5469 53.8335 72.1434 54.237 71.6456 54.237C71.1478 54.237 70.7442 53.8335 70.7442 53.3357V47.7959C70.7442 47.5876 70.6846 47.307 70.3049 47.307C70.042 47.307 69.9874 47.585 69.9782 47.7623V64.3556C69.9782 65.0715 69.3979 65.6518 68.682 65.6518C67.9662 65.6518 67.3859 65.0715 67.3859 64.3556V54.7939C67.3859 54.6881 67.3473 54.4142 67.018 54.4142C66.6879 54.4142 66.6476 54.6881 66.6442 54.7939V64.3556C66.6562 64.8261 66.412 65.2661 66.0065 65.5048C65.6009 65.7436 65.0978 65.7436 64.6922 65.5048C64.2866 65.2661 64.0425 64.8261 64.0545 64.3556V47.7623C64.0461 47.585 63.989 47.307 63.7286 47.307C63.3472 47.307 63.2892 47.5876 63.2892 47.7959V53.3357C63.2684 53.8179 62.8714 54.1981 62.3888 54.1981C61.9061 54.1981 61.5091 53.8179 61.4883 53.3357V46.8862C61.4877 45.2828 62.7097 43.9434 64.3065 43.7975C64.3621 43.789 64.4182 43.7843 64.4745 43.7832H69.5523C69.6116 43.7841 69.6708 43.7889 69.7295 43.7975" fill="white"/>
<path d="M50.8623 41.7966C50.862 40.906 50.3252 40.1034 49.5023 39.763C48.6793 39.4225 47.7324 39.6114 47.103 40.2415C46.4736 40.8716 46.2859 41.8188 46.6272 42.6413C46.9686 43.4638 47.7718 43.9997 48.6624 43.999C49.878 43.9981 50.8628 43.0122 50.8623 41.7966Z" fill="white"/>
<path d="M44.2238 46.7834L42.3935 52.7474C42.3935 52.7474 42.0676 53.8394 42.9941 54.1124C43.9206 54.3854 44.1961 53.3194 44.1961 53.3194L45.672 48.3458C45.672 48.3458 45.756 47.9627 46.0399 48.0459C46.3238 48.1291 46.2197 48.5373 46.2197 48.5373L43.651 57.8613H46.0399V64.5368C46.0567 65.1582 46.5653 65.6532 47.1869 65.6532C47.8086 65.6532 48.3171 65.1582 48.334 64.5368V57.8538H48.9858V64.5292C49.0026 65.1511 49.5116 65.6465 50.1337 65.6465C50.7557 65.6465 51.2647 65.1511 51.2815 64.5292V57.8538H53.6696L51.1026 48.5297C51.1026 48.5297 50.9942 48.1274 51.2815 48.0434C51.5688 47.9594 51.6494 48.3433 51.6494 48.3433L53.1253 53.3169C53.1253 53.3169 53.4059 54.3829 54.3265 54.1099C55.2472 53.8369 54.9271 52.7474 54.9271 52.7474L53.0968 46.7834C53.0968 46.7834 52.4432 45.0605 50.9968 45.0605H46.328C44.8799 45.0605 44.228 46.7834 44.228 46.7834" fill="white"/>
<path d="M37.6728 41.7965C37.6723 40.5806 36.6863 39.5952 35.4703 39.5957C34.2544 39.5962 33.2691 40.5823 33.2695 41.7982C33.27 43.0141 34.2561 43.9995 35.472 43.999C36.6878 43.9981 37.6728 43.0122 37.6728 41.7965Z" fill="white"/>
<path d="M31.0341 46.7834L29.2046 52.7474C29.2046 52.7474 28.877 53.8394 29.8044 54.1124C30.7317 54.3854 31.0064 53.3194 31.0064 53.3194L32.4823 48.3458C32.4823 48.3458 32.5621 47.9627 32.8502 48.0459C33.1383 48.1291 33.0291 48.5373 33.0291 48.5373L30.4612 57.8613H32.8502V64.5368C32.8502 65.1705 33.3639 65.6842 33.9976 65.6842C34.6313 65.6842 35.1451 65.1705 35.1451 64.5368V57.8537H35.7969V64.5292C35.8137 65.1506 36.3223 65.6456 36.9439 65.6456C37.5656 65.6456 38.0741 65.1506 38.091 64.5292V57.8537H40.4808L37.9137 48.5297C37.9137 48.5297 37.8045 48.1207 38.091 48.0383C38.3774 47.956 38.4597 48.3382 38.4597 48.3382L39.9348 53.3119C39.9348 53.3119 40.2153 54.3778 41.1368 54.1048C42.0583 53.8318 41.7366 52.7474 41.7366 52.7474L39.9062 46.7834C39.9062 46.7834 39.2535 45.0605 37.8062 45.0605H33.1383C31.691 45.0605 31.0341 46.7834 31.0341 46.7834Z" fill="white"/>
<path d="M58.2567 54.1218C59.2687 54.1218 60.0893 53.3015 60.0896 52.2895C60.0899 51.2774 59.2699 50.4567 58.2578 50.4561C57.2458 50.4554 56.4248 51.2752 56.4238 52.2872C56.4229 52.7738 56.6157 53.2407 56.9596 53.5849C57.3035 53.9291 57.7702 54.1222 58.2567 54.1218Z" fill="white"/>
<path d="M53.8636 59.8156C53.7737 60.0298 53.7006 60.4876 54.1307 60.6825C54.6347 60.9143 54.9161 60.4305 54.9161 60.4305L55.9124 57.2528C55.9124 57.2528 56.0854 57.0402 56.0854 57.2603V64.7405H56.0896C56.1048 65.2489 56.5213 65.6532 57.03 65.6532C57.5386 65.6532 57.9552 65.2489 57.9704 64.7405V61.7846C57.9704 61.7846 57.9158 61.3646 58.2526 61.3646C58.5894 61.3646 58.5365 61.7846 58.5365 61.7846V64.7372C58.5365 65.2577 58.9585 65.6796 59.479 65.6796C59.9995 65.6796 60.4215 65.2577 60.4215 64.7372V57.257C60.4215 57.0369 60.5374 57.194 60.5374 57.194L61.3186 59.3696C61.3186 59.3696 61.6546 60.3414 61.7621 60.3843C61.9323 60.4552 62.1237 60.4554 62.2941 60.385C62.4644 60.3145 62.5997 60.1792 62.6702 60.0088C62.7654 59.7874 62.7373 59.5322 62.5962 59.3368L62.603 59.3301C62.5803 59.2595 61.4354 56.4522 61.301 56.0583C60.8877 54.8512 60.135 54.8621 59.411 54.842C58.6869 54.8218 58.2526 54.842 58.2526 54.842C58.2526 54.842 57.7898 54.8235 56.833 54.8512C55.8762 54.8789 55.573 55.3712 54.5222 58.0818C54.3718 58.4724 53.8636 59.735 53.8569 59.8106L53.8636 59.8156Z" fill="white"/>
<path d="M15.6789 42.902C16.6199 42.903 17.4688 42.3369 17.8296 41.4679C18.1904 40.5988 17.992 39.598 17.327 38.9322C16.662 38.2665 15.6614 38.067 14.7919 38.4269C13.9224 38.7867 13.3555 39.635 13.3555 40.576C13.3569 41.8591 14.3959 42.8992 15.6789 42.902Z" fill="white"/>
<path d="M18.4139 43.7868C18.3524 43.7742 18.2901 43.7656 18.2275 43.7607H13.1455C13.0889 43.7653 13.0327 43.774 12.9775 43.7868C11.3796 43.9386 10.1602 45.2822 10.1635 46.8872V53.3368C10.1612 53.6685 10.3426 53.9742 10.6347 54.1314C10.6214 54.1564 10.6112 54.1829 10.6045 54.2104L8.53807 65.1556C8.5199 65.2444 8.53839 65.3367 8.58932 65.4117C8.64025 65.4867 8.71931 65.5379 8.80855 65.5537C8.8293 65.5578 8.8504 65.5597 8.87155 65.5596C9.03604 65.5603 9.17749 65.4433 9.20755 65.2816L11.2723 54.3364C11.2762 54.2937 11.2719 54.2506 11.2597 54.2095C11.6563 54.1065 11.9317 53.7465 11.9275 53.3368V47.7969C11.9275 47.5886 11.9821 47.3081 12.3617 47.3081C12.6238 47.3081 12.6835 47.5861 12.6835 47.7633V64.3567C12.6835 65.0758 13.2664 65.6587 13.9855 65.6587C14.7045 65.6587 15.2875 65.0758 15.2875 64.3567V54.795C15.2857 54.6928 15.3272 54.5947 15.4018 54.5249C15.4764 54.4551 15.5771 54.4202 15.6789 54.4288C16.009 54.4288 16.0426 54.6892 16.0426 54.795V64.3567C16.0426 65.0758 16.6256 65.6587 17.3446 65.6587C18.0637 65.6587 18.6466 65.0758 18.6466 64.3567V47.7633C18.6466 47.5861 18.7088 47.3081 18.9683 47.3081C19.3505 47.3081 19.4026 47.5886 19.4026 47.7969V53.3368C19.4026 53.8471 19.8163 54.2608 20.3266 54.2608C20.8369 54.2608 21.2506 53.8471 21.2506 53.3368V46.8872C21.243 45.2781 20.0161 43.9371 18.4139 43.7868Z" fill="white"/>
<path d="M27.3974 57.1511L29.0984 54.0641C29.0984 54.0641 29.3034 53.6206 29.3034 53.5147C29.2986 53.2188 29.1008 52.9609 28.8163 52.8795C28.5317 52.7981 28.2274 52.9124 28.0669 53.1611H28.0593C28.0056 53.2073 27.1496 54.726 26.8674 55.0091C26.5692 55.3106 26.3012 55.2728 26.3012 55.2728H24.0803C24.0803 55.2728 23.8115 55.3106 23.5141 55.0091C23.2285 54.7268 22.3767 53.2056 22.3221 53.1611L22.3163 53.1661C22.155 52.9221 21.8545 52.8104 21.5731 52.8898C21.2916 52.9693 21.0939 53.2216 21.084 53.5139C21.0936 53.6139 21.1156 53.7124 21.1495 53.807L22.9933 57.1511C23.0565 57.2901 23.0933 57.4396 23.1017 57.5921V58.2506L22.134 61.8206H23.1V64.7606H23.1126C23.1177 65.2646 23.5276 65.6704 24.0315 65.6704C24.5324 65.675 24.9424 65.2733 24.948 64.7724V61.9391C24.9211 61.9059 24.9095 61.8629 24.9161 61.8206H25.4621C25.4671 61.8604 25.4636 61.9008 25.452 61.9391V64.7724C25.452 65.2827 25.8657 65.6964 26.376 65.6964C26.8863 65.6964 27.3 65.2827 27.3 64.7724V61.8206H28.2483L27.3 58.2296V57.5921C27.3072 57.4406 27.3402 57.2915 27.3974 57.1511Z" fill="white"/>
<path d="M25.1895 54.1218C26.2016 54.1223 27.0226 53.3022 27.0232 52.29C27.0238 51.2779 26.2039 50.4568 25.1917 50.4561C24.1795 50.4553 23.3584 51.2751 23.3574 52.2872C23.3565 52.7736 23.5492 53.2404 23.8929 53.5846C24.2366 53.9287 24.7031 54.122 25.1895 54.1218Z" fill="white"/>
</svg>
