<svg width="100" height="100" viewBox="0 0 100 100" fill="none" xmlns="http://www.w3.org/2000/svg">
<rect width="100" height="100" fill="#C5192D"/>
<path fill-rule="evenodd" clip-rule="evenodd" d="M30.1207 17.1005V16.5455C29.0247 16.3525 28.5547 15.5435 28.5547 14.4345V10.4785C28.5547 9.20046 29.1717 8.27246 30.6287 8.27246C32.0857 8.27246 32.7127 9.20146 32.7127 10.4785V14.4345C32.7127 15.3275 32.3997 16.0265 31.6997 16.3635L32.7127 16.5575V17.5835L30.1207 17.1005ZM30.6297 9.41946C30.1457 9.41946 29.9297 9.76846 29.9297 10.2625V14.7245C29.9297 15.2065 30.1357 15.5695 30.6297 15.5695C31.1237 15.5695 31.3397 15.2065 31.3397 14.7245V10.2625C31.3397 9.76846 31.1137 9.41946 30.6297 9.41946Z" fill="white"/>
<path d="M35.6682 16.6422C37.0682 16.6422 37.6102 15.8212 37.6102 14.5552V8.36816H36.3432V14.6882C36.3432 15.1702 36.1502 15.4962 35.6682 15.4962C35.1862 15.4962 34.9932 15.1702 34.9932 14.6882V8.36816H33.6182V14.5552C33.6182 15.8212 34.2182 16.6422 35.6682 16.6422Z" fill="white"/>
<path fill-rule="evenodd" clip-rule="evenodd" d="M41.0996 15.0492H39.6456L39.3996 16.5452H38.0996L39.6456 8.36816H41.2126L42.7646 16.5492H41.3536L41.0996 15.0492ZM40.3816 10.6722H40.3676L39.8236 13.9522H40.9236L40.3816 10.6722Z" fill="white"/>
<path d="M46.4691 15.4232H44.8311V8.36816H43.4561V16.5452H46.4691V15.4232Z" fill="white"/>
<rect x="47.1074" y="8.36816" width="1.37399" height="8.176" fill="white"/>
<path d="M50.2609 16.5452H51.6459V9.49016H52.7799V8.36816H49.1289V9.49016H50.2609V16.5452Z" fill="white"/>
<path d="M54.7312 16.5452H56.1062V13.4332L57.6242 8.36816H56.3102L55.4782 11.4682H55.4662L54.6352 8.36816H53.2002L54.7312 13.4332V16.5452Z" fill="white"/>
<path d="M31.8307 27.4134H29.9267V24.9274H31.2877V23.8194H29.9267V21.4794H31.8307V20.3574H28.5527V28.5334H31.8307V27.4134Z" fill="white"/>
<path fill-rule="evenodd" clip-rule="evenodd" d="M36.7848 22.5516V26.3376L36.7878 26.3286C36.7878 27.5876 36.2708 28.5285 34.7998 28.5285H32.6738V20.3516H34.7968C36.2678 20.3516 36.7848 21.2856 36.7848 22.5516ZM34.0518 21.4776V27.4026L34.6308 27.4116C35.1968 27.4116 35.4128 27.0736 35.4128 26.5796V22.2976C35.4128 21.8156 35.1968 21.4776 34.6308 21.4776H34.0518Z" fill="white"/>
<path d="M37.6904 20.3574V26.5444C37.6904 27.8114 38.2904 28.6304 39.7394 28.6304C41.1394 28.6304 41.6804 27.8114 41.6804 26.5444V20.3574H40.4154V26.6764C40.4154 27.1594 40.2214 27.4844 39.7394 27.4844C39.2574 27.4844 39.0644 27.1594 39.0644 26.6764V20.3574H37.6904Z" fill="white"/>
<path d="M42.584 26.4228C42.584 27.6888 43.184 28.6298 44.634 28.6298C46.084 28.6298 46.574 27.7618 46.574 26.5908V25.1808H45.321V26.6878C45.321 27.1708 45.152 27.4878 44.658 27.4878C44.164 27.4878 43.958 27.1388 43.958 26.6428V22.2508C43.958 21.7558 44.158 21.4058 44.658 21.4058C45.158 21.4058 45.321 21.6948 45.321 22.2058V23.2788H46.574V22.3098C46.574 21.1098 46.152 20.2598 44.634 20.2598C43.187 20.2598 42.584 21.1888 42.584 22.4668V26.4228Z" fill="white"/>
<path fill-rule="evenodd" clip-rule="evenodd" d="M50.0001 27.0373H48.5381L48.2941 28.5373H46.9941L48.5381 20.3613H50.1051L51.6601 28.5373H50.2531L50.0001 27.0373ZM49.2722 22.6603H49.2602L48.7152 25.9403H49.8152L49.2722 22.6603Z" fill="white"/>
<path d="M51.4893 21.4794H52.6213V28.5334H54.0083V21.4794H55.1403V20.3574H51.4893V21.4794Z" fill="white"/>
<rect x="55.9004" y="20.3574" width="1.375" height="8.17699" fill="white"/>
<path fill-rule="evenodd" clip-rule="evenodd" d="M62.3484 26.4217C62.3484 27.6897 61.7224 28.6297 60.2654 28.6297C58.8184 28.6297 58.1924 27.6897 58.1924 26.4217V22.4667C58.1924 21.1887 58.8084 20.2607 60.2654 20.2607C61.7224 20.2607 62.3484 21.1887 62.3484 22.4667V26.4217ZM60.2653 21.4067C59.7823 21.4067 59.5653 21.7557 59.5653 22.2497V26.6387C59.5653 27.1347 59.7713 27.4837 60.2653 27.4837C60.7593 27.4837 60.9763 27.1387 60.9763 26.6387V22.2497C60.9763 21.7557 60.7483 21.4067 60.2653 21.4067Z" fill="white"/>
<path d="M64.4119 23.3954L66.0279 28.5354H67.2339V20.3564H66.0879V25.0484L64.6049 20.3564H63.2559V28.5354H64.4119V23.3954Z" fill="white"/>
<path fill-rule="evenodd" clip-rule="evenodd" d="M18.8765 28.5429H15.6655V25.2719H9.6875V23.1899L15.5455 8.37988H18.8765V22.6259H20.2455V25.2719H18.8765V28.5429ZM15.6985 14.3259L12.6655 22.6259H15.7285V14.3259H15.6985Z" fill="white"/>
<path d="M43.8305 53.6187L25.8965 43.2627V76.7627L43.8305 82.1737V53.6187Z" fill="white"/>
<path d="M45.8037 53.6867V82.1857L63.8537 76.7587V43.2637L45.8037 53.6867Z" fill="white"/>
<path d="M77.932 42.4151C77.9487 41.6462 77.548 40.9285 76.8848 40.5391C76.2215 40.1497 75.3995 40.1497 74.7362 40.5391C74.0729 40.9285 73.6723 41.6462 73.689 42.4151V44.7001H77.932V42.4151Z" fill="white"/>
<path d="M74.2165 76.1693H73.6895L75.8125 83.5853L77.9315 76.1693H77.4045H77.9315V46.3643H77.4045H76.8775H76.3195H75.2635H74.7425H74.2165H73.6885V76.1693H74.2165Z" fill="white"/>
<path d="M67.7064 44.7026L65.7834 43.1836V77.6726L45.8564 84.1116H44.9344H44.7514H43.8304L23.9924 78.5686V43.1836L22.0684 44.7026V79.9176L43.7394 85.9176H44.7514H44.9344H45.9464L65.9404 79.5696L67.7064 79.0496V44.7026Z" fill="white"/>
</svg>
