<svg width="100" height="100" viewBox="0 0 100 100" fill="none" xmlns="http://www.w3.org/2000/svg">
<rect width="100" height="100" fill="#FD6925"/>
<path fill-rule="evenodd" clip-rule="evenodd" d="M13.3812 8.07324C16.9472 8.07324 18.3152 10.3312 18.3152 13.4532V23.2613C18.3152 26.4123 16.8872 28.7013 13.3222 28.7013C9.57621 28.7013 8.50521 26.6203 8.50521 23.6493V22.5783H11.6002V23.9153C11.6002 25.1643 12.0442 25.8813 13.2622 25.8813C14.4802 25.8813 14.9552 25.0193 14.9552 23.8003V19.4583H14.9262C14.4212 20.4373 13.5602 21.0923 12.1332 21.0923C9.69421 21.0923 8.38721 19.4283 8.38721 16.1282V13.1552C8.38721 10.0342 9.78121 8.07324 13.3812 8.07324ZM13.3551 18.3862C14.4211 18.3862 14.8961 17.6732 14.9551 16.5442L14.9641 12.8582C14.9641 11.6092 14.5191 10.8372 13.3901 10.8372C12.2291 10.8372 11.7551 11.5802 11.7551 12.8582V16.3652C11.7551 17.6732 12.1971 18.3862 13.3551 18.3862Z" fill="white"/>
<path fill-rule="evenodd" clip-rule="evenodd" d="M63.1 58.8672L74.988 65.7282C75.2368 65.8712 75.3913 66.1352 75.394 66.4222V80.6222C75.3928 80.9112 75.2382 81.1777 74.988 81.3222L62.695 88.4222C62.4438 88.5663 62.1351 88.5663 61.884 88.4222L50 81.5612L38.114 88.4282C37.8628 88.5723 37.5541 88.5723 37.303 88.4282L25.012 81.3282C24.7617 81.1837 24.6071 80.9172 24.606 80.6282V66.4282C24.6069 66.1392 24.7616 65.8725 25.012 65.7282L36.9 58.8672V45.1402C36.8995 44.8524 37.0517 44.5859 37.3 44.4402L49.599 37.3422C49.8498 37.1971 50.1591 37.1971 50.41 37.3422L62.7 44.4422C62.9482 44.5879 63.1005 44.8544 63.1 45.1422V58.8672ZM39.3299 73.5272L49.1879 79.2202L49.1889 67.8352L39.3299 73.5272ZM60.6679 59.3362L50.8099 65.0252V53.6432L60.6679 59.3362ZM39.331 59.3352L49.189 65.0262V53.6432L39.331 59.3352ZM51.6219 66.4262L62.2899 60.2722L72.961 66.4302L62.2899 72.5912L51.6219 66.4262ZM51.6219 52.2332L61.4789 57.9262V46.5422L51.6219 52.2332ZM48.379 52.2332L38.52 57.9262V46.5472L48.379 52.2332ZM26.23 80.1562L36.9 86.3152V74.0002L26.23 67.8352V80.1562ZM38.521 86.3152V74.9322L48.3799 80.6252L38.521 86.3152ZM63.0998 86.3152L73.7738 80.1562L73.7718 67.8392L63.0998 74.0002V86.3152Z" fill="white"/>
<path d="M23.6069 8.53809H24.9169V16.3381H23.6069V8.53809Z" fill="white"/>
<path d="M26.607 11.4352V16.3352H25.5V8.53516H26.787L28.201 13.0072V8.53816H29.3V16.3382H28.148L26.607 11.4352Z" fill="white"/>
<path fill-rule="evenodd" clip-rule="evenodd" d="M33.7921 14.2402V10.6312C33.7921 9.4242 33.3001 8.5382 31.9001 8.5332H29.8721V16.3332H31.8921C33.2981 16.3332 33.7921 15.4402 33.7921 14.2402ZM32.4821 14.4702C32.4821 14.9422 32.2751 15.2642 31.7341 15.2642H31.1831V9.6082H31.7341C32.2751 9.6082 32.4821 9.9292 32.4821 10.3892V14.4702Z" fill="white"/>
<path d="M38.1717 8.53809V14.4381C38.1717 15.6451 37.6547 16.4271 36.3207 16.4271C34.9417 16.4271 34.3667 15.6451 34.3667 14.4381V8.53809H35.6777V14.5621C35.6777 15.0221 35.8607 15.3331 36.3207 15.3331C36.7807 15.3331 36.9647 15.0221 36.9647 14.5621V8.53809H38.1717Z" fill="white"/>
<path d="M38.6777 14.6542V13.6082H39.8997V14.6772C39.8997 15.1142 40.0947 15.3672 40.5427 15.3672C40.9567 15.3672 41.1427 15.0912 41.1427 14.6772V14.3772C41.1427 13.9292 40.9587 13.6532 40.5567 13.2772L39.7867 12.5062C39.0387 11.7712 38.6937 11.3222 38.6937 10.4262V10.1612C38.6937 9.19624 39.2577 8.44824 40.5337 8.44824C41.8437 8.44824 42.3617 9.09224 42.3617 10.2192V10.8512H41.1617V10.1732C41.1617 9.72424 40.9547 9.50624 40.5407 9.50624C40.1727 9.50624 39.9207 9.71324 39.9207 10.1502V10.3112C39.9207 10.7482 40.1617 11.0012 40.5407 11.3682L41.3807 12.1962C42.0927 12.9202 42.4377 13.3572 42.4377 14.2192V14.6002C42.4377 15.6692 41.8627 16.4282 40.5297 16.4282C39.1967 16.4282 38.6777 15.6772 38.6777 14.6542Z" fill="white"/>
<path d="M42.5181 8.53809H46.0001V9.60809H44.9201V16.3331H43.6001V9.60809H42.5201L42.5181 8.53809Z" fill="white"/>
<path fill-rule="evenodd" clip-rule="evenodd" d="M47.748 16.3332V12.7572L48.978 16.3282H50.358L49.105 12.7872C49.851 12.6142 50.151 12.1202 50.151 11.2812V10.2812C50.151 9.1892 49.668 8.5332 48.346 8.5332H46.438V16.3332H47.748ZM47.7479 12.0332V9.6082H48.1849C48.6289 9.6082 48.8289 9.8142 48.8289 10.2402V11.3892C48.8289 11.8032 48.6329 12.0332 48.1849 12.0332H47.7479Z" fill="white"/>
<path d="M52.9561 13.3671V16.3331H51.6451V13.3671L50.1851 8.53809H51.5531L52.3471 11.4931H52.3581L53.1511 8.53809H54.4001L52.9561 13.3671Z" fill="white"/>
<path d="M55.5309 15.1831L54.8639 16.9421H54.1289L54.2889 15.0801H55.5309V15.1831Z" fill="white"/>
<path d="M57.1411 8.53809H58.4511V16.3381H57.1411V8.53809Z" fill="white"/>
<path d="M60.141 11.4352V16.3352H59.041V8.53516H60.329L61.743 13.0072V8.53816H62.835V16.3382H61.685L60.141 11.4352Z" fill="white"/>
<path d="M64.5092 11.4352V16.3352H63.4092V8.53516H64.6962L66.1102 13.0072V8.53816H67.2002V16.3382H66.0502L64.5092 11.4352Z" fill="white"/>
<path fill-rule="evenodd" clip-rule="evenodd" d="M67.7739 10.5502V14.3212C67.7739 15.5282 68.3619 16.4212 69.7509 16.4212C71.1399 16.4212 71.7399 15.5282 71.7399 14.3212V10.5502C71.7399 9.3362 71.1279 8.4502 69.7509 8.4502C68.3739 8.4502 67.7739 9.3322 67.7739 10.5502ZM70.4299 10.3432V14.5282C70.4299 15.0002 70.2099 15.3332 69.7509 15.3332C69.2919 15.3332 69.0849 14.9992 69.0849 14.5282V10.3432C69.0849 9.87619 69.2789 9.54319 69.7509 9.54319C70.2229 9.54319 70.4299 9.87219 70.4299 10.3432Z" fill="white"/>
<path d="M76.5112 8.53809L75.0282 16.3381H73.6002L72.1182 8.53809H73.4512L74.3512 13.9761H74.3622L75.2822 8.53809H76.5112Z" fill="white"/>
<path fill-rule="evenodd" clip-rule="evenodd" d="M77.5711 8.5332L76.1001 16.3332H77.3391L77.5681 14.9072H78.9581L79.2001 16.3332H80.5541L79.0711 8.5332H77.5711ZM78.7902 13.8612H77.7442L78.2612 10.7342H78.2732L78.7902 13.8612Z" fill="white"/>
<path d="M80.1899 8.53809H83.673V9.60809H82.5919V16.3331H81.2699V9.60809H80.1899V8.53809Z" fill="white"/>
<path d="M84.1099 8.53809H85.4199V16.3381H84.1099V8.53809Z" fill="white"/>
<path fill-rule="evenodd" clip-rule="evenodd" d="M86.0059 10.5502V14.3212C86.0059 15.5282 86.5959 16.4212 87.9839 16.4212C89.3718 16.4212 89.9718 15.5282 89.9718 14.3212V10.5502C89.9718 9.3362 89.3618 8.4502 87.9839 8.4502C86.6059 8.4502 86.0059 9.3322 86.0059 10.5502ZM88.6619 10.3432V14.5282C88.6619 15.0002 88.4439 15.3332 87.9839 15.3332C87.5239 15.3332 87.3169 14.9992 87.3169 14.5282V10.3432C87.3169 9.87619 87.5129 9.54319 87.9839 9.54319C88.4549 9.54319 88.6619 9.87219 88.6619 10.3432Z" fill="white"/>
<path d="M91.6508 11.4352V16.3352H90.5508V8.53516H91.8388L93.2528 13.0072V8.53816H94.3448V16.3382H93.1948L91.6508 11.4352Z" fill="white"/>
<path fill-rule="evenodd" clip-rule="evenodd" d="M24.8709 20.5498L23.3999 28.3438H24.6359L24.8659 26.9188H26.2589L26.4999 28.3438H27.8429L26.3599 20.5498H24.8709ZM26.0898 25.8728H25.0428L25.5608 22.7458H25.5718L26.0898 25.8728Z" fill="white"/>
<path d="M29.4296 23.4468V28.3468H28.3296V20.5498H29.6176L31.0316 25.0218V20.5498H32.1196V28.3438H30.9696L29.4296 23.4468Z" fill="white"/>
<path fill-rule="evenodd" clip-rule="evenodd" d="M36.7301 26.2518V22.6418C36.7301 21.4348 36.2351 20.5498 34.8331 20.5498H32.8101V28.3438H34.8301C36.2351 28.3438 36.7301 27.4518 36.7301 26.2518ZM35.419 26.4818C35.419 26.9528 35.212 27.2748 34.672 27.2748L34.12 27.2738V21.6178H34.672C35.212 21.6178 35.419 21.9398 35.419 22.3998V26.4818Z" fill="white"/>
<path d="M38.5688 20.5498H39.8798V28.3438H38.5688V20.5498Z" fill="white"/>
<path d="M41.684 23.4468V28.3468H40.584V20.5498H41.871L43.285 25.0218V20.5498H44.377V28.3438H43.225L41.684 23.4468Z" fill="white"/>
<path d="M45.064 20.5498H48.134V21.6188H46.375V23.8498H47.685V24.9068H46.375V28.3438H45.064V20.5498Z" fill="white"/>
<path fill-rule="evenodd" clip-rule="evenodd" d="M49.9609 28.3438V24.7688L51.1909 28.3438H52.5709L51.3179 24.8038C52.0639 24.6308 52.3639 24.1368 52.3639 23.2978V22.2978C52.3639 21.2048 51.8809 20.5498 50.5589 20.5498H48.6509V28.3438H49.9609ZM49.9608 24.0448V21.6188H50.3998C50.8438 21.6188 51.0438 21.8258 51.0438 22.2518V23.4008C51.0438 23.8148 50.8478 24.0448 50.3998 24.0448H49.9608Z" fill="white"/>
<path fill-rule="evenodd" clip-rule="evenodd" d="M54.284 20.5498L52.812 28.3438H54.054L54.284 26.9188H55.675L55.916 28.3438H57.261L55.778 20.5498H54.284ZM55.5001 25.8728H54.4561L54.9721 22.7458H54.9831L55.5001 25.8728Z" fill="white"/>
<path d="M57.5601 26.666V25.62H58.7791V26.689C58.7791 27.126 58.9791 27.379 59.4221 27.379C59.8361 27.379 60.0221 27.103 60.0221 26.689V26.389C60.0221 25.941 59.8381 25.665 59.4361 25.289L58.6661 24.518C57.9191 23.783 57.5741 23.334 57.5741 22.437V22.173C57.5741 21.207 58.1371 20.46 59.4131 20.46C60.7231 20.46 61.2411 21.104 61.2411 22.231V22.863H60.0411V22.185C60.0411 21.736 59.8341 21.518 59.4201 21.518C59.0521 21.518 58.8001 21.725 58.8001 22.162V22.323C58.8001 22.759 59.0411 23.012 59.4201 23.38L60.2601 24.208C60.9721 24.932 61.3171 25.369 61.3171 26.231V26.611C61.3171 27.68 60.7421 28.438 59.4091 28.438C58.0761 28.438 57.5601 27.689 57.5601 26.666Z" fill="white"/>
<path d="M61.6299 20.5498H65.1129V21.6188H64.0319V28.3438H62.7099V21.6188H61.6299V20.5498Z" fill="white"/>
<path fill-rule="evenodd" clip-rule="evenodd" d="M66.9746 28.3438V24.7688L68.1996 28.3438H69.5796L68.3266 24.8038C69.0726 24.6308 69.3726 24.1368 69.3726 23.2978V22.2978C69.3726 21.2048 68.8946 20.5498 67.5726 20.5498H65.6646V28.3438H66.9746ZM66.9745 24.0448V21.6188H67.4115C67.8555 21.6188 68.0555 21.8258 68.0555 22.2518V23.4008C68.0555 23.8148 67.8595 24.0448 67.4115 24.0448H66.9745Z" fill="white"/>
<path d="M73.8377 20.5498V26.4498C73.8377 27.6568 73.3207 28.4378 71.9867 28.4378C70.6077 28.4378 70.0327 27.6568 70.0327 26.4498V20.5498H71.3437V26.5738C71.3437 27.0338 71.5277 27.3438 71.9867 27.3438C72.4457 27.3438 72.6307 27.0338 72.6307 26.5738V20.5498H73.8377Z" fill="white"/>
<path d="M74.5278 26.3329V22.5619C74.5278 21.3429 75.1028 20.4619 76.4818 20.4619C77.9308 20.4619 78.3328 21.2619 78.3328 22.4159V23.3359H77.1328V22.3089C77.1328 21.8259 76.9718 21.5499 76.4998 21.5499C76.0278 21.5499 75.8338 21.8839 75.8338 22.3549V26.5399C75.8338 27.0109 76.0338 27.3399 76.4998 27.3399C76.9658 27.3399 77.1328 27.0399 77.1328 26.5819V25.1489H78.3328V26.4939C78.3328 27.6089 77.8728 28.4359 76.4818 28.4359C75.0908 28.4359 74.5278 27.5399 74.5278 26.3329Z" fill="white"/>
<path d="M78.5518 20.5498H82.0348V21.6188H80.9538V28.3438H79.6318V21.6188H78.5518L78.5518 20.5498Z" fill="white"/>
<path d="M86.3919 20.5498V26.4498C86.3919 27.6568 85.8749 28.4378 84.5409 28.4378C83.1609 28.4378 82.5869 27.6568 82.5869 26.4498V20.5498H83.8999V26.5738C83.8999 27.0338 84.0839 27.3438 84.5439 27.3438C85.0039 27.3438 85.1879 27.0338 85.1879 26.5738V20.5498H86.3919Z" fill="white"/>
<path fill-rule="evenodd" clip-rule="evenodd" d="M88.392 28.3438V24.7688L89.62 28.3438H91L89.749 24.8038C90.495 24.6308 90.795 24.1368 90.795 23.2978V22.2978C90.795 21.2048 90.312 20.5498 88.99 20.5498H87.082V28.3438H88.392ZM88.392 24.0448V21.6188H88.829C89.273 21.6188 89.473 21.8258 89.473 22.2518V23.4008C89.473 23.8148 89.277 24.0448 88.829 24.0448H88.392Z" fill="white"/>
<path d="M91.4502 20.5498H94.5772V21.6188H92.7612V23.8498H94.0612V24.9068H92.7612V27.2748H94.5772V28.3438H91.4502V20.5498Z" fill="white"/>
</svg>
