<svg width="100" height="100" viewBox="0 0 100 100" fill="none" xmlns="http://www.w3.org/2000/svg">
<rect width="100" height="100" fill="#BF8B2E"/>
<path d="M9.98224 13.1382H10.0132V28.5732H13.4032V8.40918H10.6942L7.57324 12.0682V15.6062H7.60224L9.98224 13.1382Z" fill="white"/>
<path d="M15.4242 12.5739V15.0109H18.5162V12.4829C18.5162 11.2649 19.1162 10.9079 19.8252 10.9079C20.4802 10.9079 21.0442 11.1749 21.0442 12.4249V14.0889C21.0442 15.7559 20.8962 16.4089 19.7942 17.5689L17.8942 19.5919C16.0512 21.5549 15.3652 22.8629 15.3652 24.8559V28.5739H24.1652V25.8069H18.6052V24.8559C18.6052 23.2789 19.1702 22.6849 20.0322 21.7629L22.2002 19.4729C23.9552 17.5999 24.3422 16.4089 24.3422 14.3869V12.4249C24.3422 9.53887 22.9422 8.17188 19.9102 8.17188C16.9362 8.17188 15.4202 9.74787 15.4202 12.5719" fill="white"/>
<path d="M77.8551 53.568C73.7771 50.347 68.8871 50 66.9741 50C65.9651 50 65.0311 50.09 64.3471 50.253L64.0791 50.315C61.4961 50.925 57.1731 51.946 52.1401 58.192L51.9921 58.375C51.9118 58.4848 51.8678 58.617 51.8661 58.753C51.8666 58.8692 51.8972 58.9833 51.9551 59.084L52.0691 59.271C52.8998 60.661 53.5898 61.868 54.1391 62.892C54.238 63.0841 54.424 63.2162 54.638 63.2463C54.852 63.2763 55.0672 63.2005 55.2151 63.043C55.2501 62.997 55.2861 62.948 55.3151 62.911C59.6571 56.9 63.0631 56.1 65.3171 55.567L65.6001 55.5C66.0548 55.4127 66.5173 55.3735 66.9801 55.383C68.0281 55.383 71.6711 55.557 74.5131 57.801C77.0421 59.801 78.3241 62.985 78.3241 67.276C78.3241 74.468 74.8451 77.276 71.9241 78.36C70.782 78.7814 69.5735 78.9941 68.3561 78.988C66.5031 78.9784 64.6748 78.5623 63.0001 77.769L62.7911 77.669C60.2801 76.579 56.5311 74.306 52.9861 67.188C45.7201 52.588 39.6161 51.21 35.5741 50.295L35.3621 50.248C35.0521 50.177 34.1781 50.014 32.7621 50.014C30.4221 50.014 25.9201 50.474 22.0621 53.554C19.4281 55.654 16.2861 59.737 16.2861 67.254C16.2861 71.831 17.2291 74.854 19.6461 78.033C20.1001 78.653 24.3111 84.091 32.3961 84.091C33.6355 84.0869 34.8716 83.9657 36.0881 83.729C37.5641 83.447 39.8421 82.717 42.3881 80.851L44.5131 82.769C44.7671 82.9831 45.143 82.9656 45.3761 82.729C45.4781 82.6212 45.5331 82.4773 45.5291 82.329L47.1731 72.201V72.083C47.1717 71.9141 47.099 71.7536 46.9731 71.641C46.8576 71.5341 46.7044 71.4776 46.5471 71.484L36.6811 74.2L36.4931 74.231C36.372 74.256 36.2622 74.3195 36.1801 74.412C36.0698 74.5321 36.0121 74.6914 36.02 74.8543C36.0279 75.0172 36.1007 75.1701 36.2221 75.279L38.2651 77.127C37.1911 77.786 36.1171 78.227 35.0731 78.427C34.2111 78.5943 33.3352 78.68 32.4571 78.683C26.8701 78.683 24.1211 75.016 24.0081 74.861L23.9531 74.785C22.2531 72.552 21.6791 70.651 21.6791 67.251C21.6791 62.945 22.9391 59.751 25.4241 57.771C28.1891 55.565 31.7471 55.393 32.7731 55.393C33.2426 55.3845 33.7116 55.4237 34.1731 55.51L34.3911 55.559C37.6171 56.29 42.0351 57.29 48.1611 69.594C51.3961 76.094 55.4531 80.338 60.5521 82.578C61.1451 82.878 64.3081 84.389 68.3621 84.389C70.222 84.395 72.0679 84.0675 73.8121 83.422C76.7901 82.311 83.7201 78.512 83.7201 67.28C83.7171 59.772 80.5291 55.68 77.8551 53.568Z" fill="white"/>
<path fill-rule="evenodd" clip-rule="evenodd" d="M33.2842 16.5383V12.7893L34.5742 16.5403H36.0142L34.7002 12.8273C35.4862 12.6483 35.8002 12.1283 35.8002 11.2483V10.1993C35.8002 9.05126 35.3002 8.36426 33.9102 8.36426H31.9102V16.5383H33.2842ZM33.284 12.0293V9.48926L33.742 9.49126C34.213 9.49126 34.418 9.70826 34.418 10.1543V11.3543C34.418 11.7883 34.213 12.0293 33.742 12.0293H33.284Z" fill="white"/>
<path d="M36.5391 8.36426H39.8181V9.48626H37.9181V11.8243H39.2801V12.9343H37.9141V15.4173H39.8141V16.5383H36.5391V8.36426Z" fill="white"/>
<path d="M40.4697 14.7786V13.6786H41.7477V14.7996C41.7477 15.2576 41.9477 15.5236 42.4227 15.5236C42.8567 15.5236 43.0497 15.2336 43.0497 14.7996V14.4896C43.0497 14.0196 42.8567 13.7296 42.4347 13.3316L41.6277 12.5246C40.8437 11.7526 40.4817 11.2826 40.4817 10.3416V10.0646C40.4817 9.05165 41.0727 8.26465 42.4107 8.26465C43.7857 8.26465 44.3277 8.93965 44.3277 10.1206V10.7846H43.0737V10.0726C43.0737 9.60265 42.8567 9.37265 42.4227 9.37265C42.0377 9.37265 41.7717 9.58965 41.7717 10.0476V10.2166C41.7717 10.6746 42.0247 10.9396 42.4227 11.3256L43.3007 12.1996C44.0487 12.9596 44.4107 13.4176 44.4107 14.3216V14.7216C44.4107 15.8426 43.8107 16.6386 42.4107 16.6386C41.0107 16.6386 40.4697 15.8516 40.4697 14.7786Z" fill="white"/>
<path fill-rule="evenodd" clip-rule="evenodd" d="M47.1376 8.36426H45.1006V16.5383H46.4746V13.7653H47.1376C48.5236 13.7653 49.0306 13.0663 49.0306 11.9213V10.1973C49.0306 9.05126 48.5236 8.36426 47.1376 8.36426ZM46.4744 12.7043V9.48626H46.9804C47.4504 9.48626 47.6554 9.70326 47.6554 10.1493V12.0293C47.6554 12.4753 47.4504 12.7043 46.9804 12.7043H46.4744Z" fill="white"/>
<path fill-rule="evenodd" clip-rule="evenodd" d="M49.7285 10.4746V14.4286C49.7285 15.6996 50.3425 16.6356 51.8015 16.6356C53.2605 16.6356 53.8875 15.6946 53.8875 14.4286V10.4746C53.8875 9.19655 53.2475 8.26855 51.8015 8.26855C50.3555 8.26855 49.7285 9.19655 49.7285 10.4746ZM52.5137 10.2576V14.6456C52.5137 15.1406 52.2847 15.4896 51.8017 15.4896C51.3187 15.4896 51.1017 15.1406 51.1017 14.6456V10.2576C51.1017 9.76356 51.3067 9.41356 51.8017 9.41356C52.2967 9.41356 52.5137 9.76356 52.5137 10.2576Z" fill="white"/>
<path d="M55.8162 11.3993V16.5353H54.6592V8.36426H56.0092L57.4922 13.0543V8.36426H58.6372V16.5383H57.4312L55.8162 11.3993Z" fill="white"/>
<path d="M59.3477 14.7786V13.6786H60.6257V14.7996C60.6257 15.2576 60.8257 15.5237 61.3007 15.5237C61.7347 15.5237 61.9277 15.2336 61.9277 14.7996V14.4896C61.9277 14.0196 61.7347 13.7296 61.3127 13.3316L60.5047 12.5246C59.7217 11.7526 59.3597 11.2826 59.3597 10.3416V10.0646C59.3597 9.05165 59.9507 8.26465 61.2887 8.26465C62.6627 8.26465 63.2057 8.93965 63.2057 10.1206V10.7846H61.9517V10.0726C61.9517 9.60265 61.7347 9.37265 61.3007 9.37265C60.9147 9.37265 60.6497 9.58965 60.6497 10.0476V10.2166C60.6497 10.6746 60.9027 10.9396 61.3007 11.3256L62.1807 12.1936C62.9287 12.9536 63.2897 13.4116 63.2897 14.3156V14.7156C63.2897 15.8366 62.6897 16.6327 61.2897 16.6327C59.8897 16.6327 59.3477 15.8517 59.3477 14.7786Z" fill="white"/>
<path d="M63.9766 8.36426H65.3516V16.5383H63.9766V8.36426Z" fill="white"/>
<path fill-rule="evenodd" clip-rule="evenodd" d="M66.1348 8.36426H68.1248C69.4988 8.36426 69.9568 9.00326 69.9568 10.1643V10.9963C69.9568 11.6833 69.7038 12.1173 69.1368 12.2963C69.8238 12.4523 70.1618 12.9103 70.1618 13.6583V14.7433C70.1618 15.9003 69.6438 16.5433 68.2688 16.5433H66.1348V8.36426ZM67.5096 11.8123H67.9916C68.4376 11.8123 68.6426 11.5833 68.6426 11.1493V10.1493C68.6426 9.70326 68.4426 9.48626 67.9796 9.48626H67.5096V11.8123ZM67.5096 15.4173V12.8613H68.0976C68.5856 12.8613 68.7856 13.0903 68.7856 13.5243V14.7543C68.7856 15.1883 68.5686 15.4173 68.1096 15.4173H67.5096Z" fill="white"/>
<path d="M70.8369 8.36426H72.2109V15.4173H73.8509V16.5383H70.8369V8.36426Z" fill="white"/>
<path d="M74.4668 8.36426H77.7458V9.48626H75.8408V11.8243H77.2008V12.9343H75.8408V15.4173H77.7458V16.5383H74.4668V8.36426Z" fill="white"/>
<path d="M31.9102 26.4305V22.4765C31.9102 21.1985 32.5102 20.2705 33.9592 20.2705C35.4781 20.2705 35.9001 21.1145 35.9001 22.3195V23.2845H34.6472V22.2115C34.6472 21.7045 34.4782 21.4115 33.9832 21.4115C33.4882 21.4115 33.2832 21.7615 33.2832 22.2555V26.6435C33.2832 27.1375 33.4882 27.4875 33.9832 27.4875C34.4782 27.4875 34.6472 27.1745 34.6472 26.6875V25.1885H35.9001V26.5995C35.9001 27.7685 35.4181 28.6365 33.9592 28.6365C32.5002 28.6365 31.9102 27.6995 31.9102 26.4305Z" fill="white"/>
<path fill-rule="evenodd" clip-rule="evenodd" d="M36.7686 22.4765V26.4305C36.7686 27.6995 37.3836 28.6365 38.8426 28.6365C40.3016 28.6365 40.9286 27.6965 40.9286 26.4305V22.4765C40.9286 21.1985 40.2896 20.2705 38.8426 20.2705C37.3956 20.2705 36.7686 21.1985 36.7686 22.4765ZM39.5534 22.2595V26.6475C39.5534 27.1415 39.3254 27.4915 38.8424 27.4915C38.3594 27.4915 38.1424 27.1415 38.1424 26.6475V22.2595C38.1424 21.7655 38.3484 21.4155 38.8424 21.4155C39.3364 21.4155 39.5534 21.7655 39.5534 22.2595Z" fill="white"/>
<path d="M42.989 23.4042V28.5402H41.8311V20.3662H43.182L44.665 25.0562V20.3662H45.81V28.5402H44.6L42.989 23.4042Z" fill="white"/>
<path d="M46.6416 26.7806V25.6806H47.9196V26.8016C47.9196 27.2596 48.1196 27.5246 48.5946 27.5246C49.0286 27.5246 49.2216 27.2356 49.2216 26.8016V26.4876C49.2216 26.0176 49.0286 25.7286 48.6066 25.3306L47.7996 24.5256C47.0156 23.7546 46.6546 23.2846 46.6546 22.3436V22.0666C46.6546 21.0536 47.2446 20.2666 48.5836 20.2666C49.9576 20.2666 50.5006 20.9416 50.5006 22.1226V22.7856H49.2456V22.0746C49.2456 21.6046 49.0286 21.3746 48.5946 21.3746C48.2086 21.3746 47.9436 21.5916 47.9436 22.0496V22.2186C47.9436 22.6766 48.1966 22.9416 48.5946 23.3276L49.4746 24.1956C50.2216 24.9546 50.5836 25.4126 50.5836 26.3176V26.7176C50.5836 27.8386 49.9836 28.6336 48.5836 28.6336C47.1836 28.6336 46.6416 27.8536 46.6416 26.7806Z" fill="white"/>
<path d="M55.4177 20.3662V26.5512C55.4177 27.8172 54.8757 28.6362 53.4767 28.6362C52.0297 28.6362 51.4277 27.8172 51.4277 26.5512V20.3662H52.7997V26.6832C52.7997 27.1662 52.9927 27.4912 53.4747 27.4912C53.9567 27.4912 54.1497 27.1662 54.1497 26.6832V20.3662H55.4177Z" fill="white"/>
<path d="M60.1083 23.2352H60.0723L59.1433 28.5402H58.5003L57.4803 23.2352H57.4553V28.5402H56.3223V20.3662H57.9223L58.8143 24.9712H58.8263L59.6263 20.3662H61.3633V28.5402H60.1083V23.2352Z" fill="white"/>
<path fill-rule="evenodd" clip-rule="evenodd" d="M64.2996 20.3662H62.2656V28.5402H63.6396V25.7672H64.2996C65.6856 25.7672 66.1926 25.0682 66.1926 23.9232V22.1992C66.1926 21.0532 65.6856 20.3662 64.2996 20.3662ZM63.6395 24.7062V21.4872H64.1455C64.6205 21.4872 64.8205 21.7042 64.8205 22.1502V24.0312C64.8205 24.4772 64.6165 24.7062 64.1455 24.7062H63.6395Z" fill="white"/>
<path d="M66.6426 20.3662H70.3006V21.4872H69.1616V28.5402H67.7756V21.4872H66.6426V20.3662Z" fill="white"/>
<path d="M70.9463 20.3662H72.3203V28.5402H70.9463V20.3662Z" fill="white"/>
<path fill-rule="evenodd" clip-rule="evenodd" d="M73.1152 22.4765V26.4305C73.1152 27.6995 73.7302 28.6365 75.1892 28.6365C76.6482 28.6365 77.2752 27.6965 77.2752 26.4305V22.4765C77.2752 21.1985 76.6362 20.2705 75.1892 20.2705C73.7422 20.2705 73.1152 21.1985 73.1152 22.4765ZM75.9001 22.2595V26.6475C75.9001 27.1415 75.6721 27.4915 75.1891 27.4915C74.7061 27.4915 74.4891 27.1415 74.4891 26.6475V22.2595C74.4891 21.7655 74.6951 21.4155 75.1891 21.4155C75.6831 21.4155 75.9001 21.7655 75.9001 22.2595Z" fill="white"/>
<path d="M79.2283 23.4042V28.5402H78.0703V20.3662H79.4203L80.9003 25.0562V20.3662H82.0463V28.5402H80.8433L79.2283 23.4042Z" fill="white"/>
<path fill-rule="evenodd" clip-rule="evenodd" d="M33.2364 32.3701L31.6934 40.5441H33.0004L33.2364 39.0491H34.7004L34.9484 40.5441H36.3564L34.8004 32.3701H33.2364ZM34.5175 37.9521H33.4175L33.9625 34.6721H33.9745L34.5175 37.9521Z" fill="white"/>
<path d="M38.1179 35.4081V40.5441H36.9609V32.3701H38.3109L39.7939 37.0591V32.3701H40.9399V40.5441H39.7339L38.1179 35.4081Z" fill="white"/>
<path fill-rule="evenodd" clip-rule="evenodd" d="M45.8698 38.3491V34.5641C45.8698 33.3001 45.3518 32.3701 43.8808 32.3701H41.7588V40.5441H43.8808C45.3518 40.5441 45.8698 39.6031 45.8698 38.3491ZM44.4957 38.5901C44.4957 39.0851 44.2787 39.4221 43.7117 39.4221H43.1326V33.4911H43.7117C44.2787 33.4911 44.4957 33.8281 44.4957 34.3111V38.5901Z" fill="white"/>
<path fill-rule="evenodd" clip-rule="evenodd" d="M50.0292 32.3701H47.9922V40.5441H49.3662V37.7711H50.0292C51.4162 37.7711 51.9222 37.0711 51.9222 35.9261V34.2021C51.9222 33.0571 51.4162 32.3701 50.0292 32.3701ZM49.366 36.7101V33.4911H49.872C50.343 33.4911 50.548 33.7081 50.548 34.1541V36.0351C50.548 36.4811 50.343 36.7101 49.872 36.7101H49.366Z" fill="white"/>
<path fill-rule="evenodd" clip-rule="evenodd" d="M54.044 40.5441V36.7941L55.334 40.5441H56.775L55.461 36.8301C56.248 36.6511 56.561 36.1311 56.561 35.2511V34.2021C56.561 33.0571 56.055 32.3701 54.669 32.3701H52.6689V40.5441H54.044ZM54.0438 36.0381V33.4941L54.4998 33.4991C54.9748 33.4991 55.1748 33.7161 55.1748 34.1621V35.3621C55.1748 35.7971 54.9698 36.0381 54.4998 36.0381H54.0438Z" fill="white"/>
<path fill-rule="evenodd" clip-rule="evenodd" d="M57.3477 34.4794V38.4344C57.3477 39.7004 57.9617 40.6404 59.4207 40.6404C60.8797 40.6404 61.5067 39.7004 61.5067 38.4344V34.4794C61.5067 33.2014 60.8667 32.2734 59.4207 32.2734C57.9747 32.2734 57.3477 33.2014 57.3477 34.4794ZM60.1329 34.2624V38.6514C60.1329 39.1454 59.9039 39.4954 59.4209 39.4954C58.9379 39.4954 58.7209 39.1454 58.7209 38.6514V34.2624C58.7209 33.7684 58.9259 33.4184 59.4209 33.4184C59.9159 33.4184 60.1329 33.7684 60.1329 34.2624Z" fill="white"/>
<path fill-rule="evenodd" clip-rule="evenodd" d="M66.4372 38.3491V34.5641C66.4372 33.3001 65.9182 32.3701 64.4482 32.3701H62.3262V40.5441H64.4482C65.9182 40.5441 66.4372 39.6031 66.4372 38.3491ZM65.062 38.5901C65.062 39.0851 64.846 39.4221 64.279 39.4221H63.7V33.4911H64.279C64.846 33.4911 65.062 33.8281 65.062 34.3111V38.5901Z" fill="white"/>
<path d="M71.2478 32.3701V38.5541C71.2478 39.8201 70.7048 40.6401 69.3068 40.6401C67.8598 40.6401 67.2568 39.8201 67.2568 38.5541V32.3701H68.6318V38.6871C68.6318 39.1691 68.8248 39.4951 69.3068 39.4951C69.7888 39.4951 69.9818 39.1691 69.9818 38.6871V32.3701H71.2478Z" fill="white"/>
<path d="M72.0674 38.4344V34.4794C72.0674 33.2014 72.6674 32.2734 74.1164 32.2734C75.6354 32.2734 76.0574 33.1174 76.0574 34.3234V35.2874H74.8004V34.2144C74.8004 33.7084 74.6324 33.4144 74.1374 33.4144C73.6424 33.4144 73.4374 33.7644 73.4374 34.2584V38.6474C73.4374 39.1414 73.6424 39.4914 74.1374 39.4914C74.6324 39.4914 74.8004 39.1774 74.8004 38.6914V37.1924H76.0544V38.6004C76.0544 39.7694 75.5724 40.6374 74.1134 40.6374C72.6544 40.6374 72.0674 39.7004 72.0674 38.4344Z" fill="white"/>
<path d="M76.6846 32.3701H80.3376V33.4911H79.2006V40.5441H77.8176V33.4911H76.6846V32.3701Z" fill="white"/>
<path d="M80.9883 32.3701H82.3623V40.5441H80.9883V32.3701Z" fill="white"/>
<path fill-rule="evenodd" clip-rule="evenodd" d="M83.1582 34.4794V38.4344C83.1582 39.7004 83.7722 40.6404 85.2312 40.6404C86.6902 40.6404 87.3172 39.7004 87.3172 38.4344V34.4794C87.3172 33.2014 86.6782 32.2734 85.2312 32.2734C83.7842 32.2734 83.1582 33.2014 83.1582 34.4794ZM85.9424 34.2624V38.6514C85.9424 39.1454 85.7144 39.4954 85.2314 39.4954C84.7484 39.4954 84.5314 39.1454 84.5314 38.6514V34.2624C84.5314 33.7684 84.7374 33.4184 85.2314 33.4184C85.7254 33.4184 85.9424 33.7684 85.9424 34.2624Z" fill="white"/>
<path d="M89.2703 35.4081V40.5441H88.1123V32.3701H89.4633L90.9463 37.0591V32.3701H92.0913V40.5441H90.8853L89.2703 35.4081Z" fill="white"/>
</svg>
