<svg width="100" height="100" viewBox="0 0 100 100" fill="none" xmlns="http://www.w3.org/2000/svg">
<rect width="100" height="100" fill="#FF3A21"/>
<path d="M30.2772 16.6414C31.0262 16.6414 31.4122 16.2674 31.5922 15.6534V16.5444H32.5802V12.1794H30.6282V13.2644H31.2792V14.7124C31.2792 15.2424 31.0492 15.4954 30.6032 15.4954C30.1332 15.4954 29.9282 15.1454 29.9282 14.6514V10.2604C29.9282 9.76841 30.1452 9.41741 30.6402 9.41741C31.1352 9.41741 31.3272 9.70641 31.3272 10.2174V11.0494H32.5802V10.3254C32.5802 9.11941 32.1342 8.27441 30.6162 8.27441C29.1692 8.27441 28.5552 9.20341 28.5552 10.4814V14.4374C28.5552 15.7034 29.0962 16.6444 30.2772 16.6444" fill="white"/>
<path d="M36.7629 15.4232H34.8589V12.9382H36.2219V11.8282H34.8589V9.49019H36.7629V8.36719H33.4849V16.5452H36.7629V15.4232Z" fill="white"/>
<path d="M38.7781 11.4072L40.3921 16.5452H41.5981V8.36719H40.4541V13.0592L38.9701 8.36719H37.6211V16.5452H38.7781V11.4072Z" fill="white"/>
<path fill-rule="evenodd" clip-rule="evenodd" d="M46.613 10.5633V14.3493L46.609 14.3413C46.609 15.6003 46.091 16.5413 44.62 16.5413H42.5V8.36328H44.624C46.095 8.36328 46.613 9.29728 46.613 10.5633ZM43.8739 9.48928V15.4153L44.4529 15.4233C45.0189 15.4233 45.235 15.0853 45.235 14.5913V10.3093C45.235 9.82728 45.0189 9.48928 44.4529 9.48928H43.8739Z" fill="white"/>
<path d="M50.797 15.4232H48.894V12.9382H50.256V11.8282H48.894V9.49019H50.797V8.36719H47.519V16.5452H50.797V15.4232Z" fill="white"/>
<path fill-rule="evenodd" clip-rule="evenodd" d="M54.3 16.5452L53.017 12.7932L53.021 16.5442H51.646V8.36621H53.646C55.032 8.36621 55.538 9.05421 55.538 10.2002V11.2502C55.538 12.1302 55.221 12.6492 54.438 12.8302L55.747 16.5452H54.3ZM53.473 9.49321H53.017V12.0312H53.473C53.948 12.0312 54.148 11.7912 54.148 11.3552V10.1552C54.148 9.70921 53.944 9.49321 53.473 9.49321Z" fill="white"/>
<path d="M31.8332 27.4114H29.9292V24.9274H31.2912V23.8184H29.9292V21.4784H31.8332V20.3564H28.5552V28.5334H31.8332V27.4114Z" fill="white"/>
<path fill-rule="evenodd" clip-rule="evenodd" d="M34.2462 29.0878V28.5318C33.1492 28.3398 32.6792 27.5318 32.6792 26.4218V22.4658C32.6792 21.1878 33.2922 20.2588 34.7512 20.2588C36.2102 20.2588 36.8362 21.1878 36.8362 22.4658V26.4218C36.8362 27.3148 36.5242 28.0138 35.8242 28.3508L36.8362 28.5448V29.5698L34.2462 29.0878ZM34.7521 21.4048C34.2691 21.4048 34.0521 21.7558 34.0521 22.2498V26.7128C34.0521 27.1948 34.2571 27.5558 34.7521 27.5558C35.2471 27.5558 35.4631 27.1948 35.4631 26.7128V22.2498C35.4631 21.7558 35.2351 21.4048 34.7521 21.4048Z" fill="white"/>
<path d="M37.729 20.3564V26.5435C37.729 27.8095 38.329 28.6295 39.778 28.6295C41.178 28.6295 41.719 27.8095 41.719 26.5435V20.3564H40.454V26.6755C40.454 27.1585 40.261 27.4835 39.778 27.4835C39.295 27.4835 39.103 27.1585 39.103 26.6755V20.3564H37.729Z" fill="white"/>
<path fill-rule="evenodd" clip-rule="evenodd" d="M45.3999 27.0373H43.9379L43.6999 28.5333H42.3999L43.9379 20.3604H45.5079L47.0629 28.5373H45.6529L45.3999 27.0373ZM44.6739 22.6603H44.6599L44.1149 25.9403H45.2149L44.6739 22.6603Z" fill="white"/>
<path d="M47.7358 20.3564V28.5334H50.7488V27.4124H49.1108V20.3564H47.7358Z" fill="white"/>
<rect x="51.4849" y="20.3564" width="1.37499" height="8.17699" fill="white"/>
<path d="M56.1259 28.5334V21.4784H57.2579V20.3574H53.6079V21.4784H54.7399V28.5334H56.1259Z" fill="white"/>
<path d="M59.3078 28.5334H60.6828V25.4224L62.1998 20.3574H60.8878L60.0558 23.4554H60.0438L59.2128 20.3574H57.7778L59.3078 25.4224V28.5334Z" fill="white"/>
<path d="M15.9438 14.7641C14.6058 14.7641 13.6248 15.2391 13.0888 16.1641H13.0588V11.1361H18.8878V8.37012H9.96776V19.7311H13.0588V19.2831C13.0588 18.0941 13.5948 17.4391 14.5458 17.4391C15.5868 17.4391 16.0048 18.1541 16.0048 19.2551V24.1321C16.0048 25.2031 15.6168 25.9451 14.5758 25.9451C13.4158 25.9451 13.0008 25.1721 13.0008 23.9841V21.4551H9.90576V23.7451C9.90576 26.8081 11.1258 28.7711 14.5758 28.7711C17.9958 28.7711 19.3928 26.9571 19.3928 24.1611V19.2251C19.3928 16.0431 17.7578 14.7641 15.9438 14.7641Z" fill="white"/>
<path fill-rule="evenodd" clip-rule="evenodd" d="M60.4069 37.8379H72.8349V37.8409C72.8773 37.8406 72.9181 37.8572 72.9483 37.887C72.9785 37.9169 72.9956 37.9575 72.9959 37.9999V50.4219C72.9948 50.5099 72.9229 50.5804 72.8349 50.5799H68.7059C68.6179 50.5804 68.546 50.5099 68.5449 50.4219V45.7999L63.1269 51.2209C65.0638 53.9582 66.1027 57.2296 66.0999 60.5829C66.0999 68.6589 60.1889 75.3759 52.4659 76.6429V81.4789H57.3659C57.4075 81.4789 57.4474 81.4954 57.4769 81.5249C57.5063 81.5543 57.5229 81.5942 57.5229 81.6359V86.0629C57.5231 86.1047 57.5067 86.1449 57.4772 86.1745C57.4478 86.2042 57.4077 86.2209 57.3659 86.2209H52.4659V90.8999C52.4656 90.942 52.4486 90.9824 52.4186 91.012C52.3886 91.0416 52.348 91.0581 52.3059 91.0579H47.8819C47.8399 91.0581 47.7995 91.0416 47.7699 91.0119C47.7402 90.9822 47.7236 90.9419 47.7239 90.8999V86.2249H42.8239C42.7815 86.2257 42.7407 86.2094 42.7106 86.1796C42.6804 86.1499 42.6636 86.1092 42.6639 86.0669V81.6399C42.6639 81.5977 42.6808 81.5573 42.7109 81.5278C42.741 81.4983 42.7817 81.4821 42.8239 81.4829H47.7239V76.7239C39.7379 75.6869 33.5469 68.8509 33.5469 60.5869C33.5469 51.6089 40.8499 44.3089 49.8249 44.3089C53.4656 44.3063 57.0009 45.5309 59.8599 47.7849L65.3549 42.2849H60.4069C60.3195 42.2843 60.2489 42.2133 60.2489 42.1259V37.9969C60.2494 37.9097 60.3197 37.839 60.4069 37.8379ZM37.8429 60.5829C37.8429 67.2004 43.2074 72.5649 49.8249 72.5649C56.4396 72.5583 61.8002 67.1976 61.8069 60.5829C61.8069 53.9654 56.4423 48.6009 49.8249 48.6009C43.2074 48.6009 37.8429 53.9654 37.8429 60.5829Z" fill="white"/>
<path d="M57.2647 55.6653H42.7317C42.6492 55.6618 42.5791 55.7249 42.5737 55.8073V59.3253C42.5753 59.3654 42.5929 59.4033 42.6226 59.4304C42.6523 59.4574 42.6916 59.4714 42.7317 59.4693H57.2647C57.3053 59.472 57.3452 59.4583 57.3755 59.4312C57.4058 59.4041 57.4239 59.3659 57.4257 59.3253V55.8073C57.4198 55.7239 57.3482 55.6607 57.2647 55.6653Z" fill="white"/>
<path d="M57.2647 61.9464H42.7317C42.6478 61.9441 42.5775 62.0095 42.5737 62.0934V65.6114C42.5758 65.6512 42.5936 65.6886 42.6233 65.7152C42.6529 65.7418 42.6919 65.7556 42.7317 65.7534H57.2647C57.3049 65.7561 57.3446 65.7427 57.3748 65.716C57.4051 65.6893 57.4234 65.6517 57.4257 65.6114V62.0934C57.4214 62.0086 57.3496 61.943 57.2647 61.9464Z" fill="white"/>
</svg>
