<svg width="100" height="100" viewBox="0 0 100 100" fill="none" xmlns="http://www.w3.org/2000/svg">
<rect width="100" height="100" fill="#19486A"/>
<path fill-rule="evenodd" clip-rule="evenodd" d="M33.9491 8.36816H31.9111V16.5462H33.2861V13.7722H33.9491C35.3351 13.7722 35.8411 13.0732 35.8411 11.9262V10.2022C35.8411 9.05516 35.3351 8.36816 33.9491 8.36816ZM33.286 12.7102V9.48917H33.791C34.265 9.48917 34.465 9.70817 34.465 10.1532V12.0342C34.465 12.4812 34.262 12.7102 33.791 12.7102H33.286Z" fill="white"/>
<path fill-rule="evenodd" clip-rule="evenodd" d="M37.5538 8.36816L36.0098 16.5462H37.3118L37.5538 15.0462H39.0118L39.2648 16.5462H40.6738L39.1198 8.36816H37.5538ZM38.835 13.9522H37.735L38.28 10.6712H38.292L38.835 13.9522Z" fill="white"/>
<path fill-rule="evenodd" clip-rule="evenodd" d="M42.7378 16.5512V12.8002L44.0248 16.5462H45.4698L44.1558 12.8312C44.9428 12.6512 45.2558 12.1312 45.2558 11.2512V10.2022C45.2558 9.05516 44.7498 8.36816 43.3638 8.36816H41.3638V16.5512H42.7378ZM42.7376 12.0392V9.49417L43.1996 9.48917C43.6756 9.48917 43.8756 9.70817 43.8756 10.1532V11.3642C43.8756 11.7982 43.6706 12.0392 43.1996 12.0392H42.7376Z" fill="white"/>
<path d="M45.7461 8.36816H49.3991V9.48916H48.2651V16.5462H46.8791V9.48916H45.7461V8.36816Z" fill="white"/>
<path d="M51.427 11.4082V16.5462H50.27V8.36816H51.618L53.103 13.0592V8.36816H54.247V16.5462H53.042L51.427 11.4082Z" fill="white"/>
<path d="M55.376 8.36816H58.654V9.48916H56.751V11.8292H58.113V12.9402H56.751V15.4242H58.654V16.5462H55.376V8.36816Z" fill="white"/>
<path fill-rule="evenodd" clip-rule="evenodd" d="M60.8847 16.5512V12.8002L62.1737 16.5462H63.6177L62.3037 12.8312C63.0897 12.6512 63.4037 12.1312 63.4037 11.2512V10.2022C63.4037 9.05516 62.8987 8.36816 61.5107 8.36816H59.5107V16.5512H60.8847ZM60.8846 12.0392V9.49417L61.3436 9.48917C61.8136 9.48917 62.0186 9.70817 62.0186 10.1532V11.3642C62.0186 11.7982 61.8136 12.0392 61.3436 12.0392H60.8846Z" fill="white"/>
<path d="M64.0898 14.7844V13.6844H65.3688V14.8054C65.3688 15.2644 65.5688 15.5294 66.0418 15.5294C66.4768 15.5294 66.6689 15.2394 66.6689 14.8054V14.5004C66.6689 14.0294 66.4769 13.7394 66.0528 13.3414L65.2468 12.5324C64.4628 11.7624 64.1018 11.2904 64.1018 10.3514V10.0734C64.1018 9.05944 64.6928 8.27344 66.0298 8.27344C67.4039 8.27344 67.9479 8.94844 67.9479 10.1314V10.7944H66.6929V10.0834C66.6929 9.61144 66.4768 9.38344 66.0418 9.38344C65.6558 9.38344 65.3918 9.60144 65.3918 10.0594V10.2284C65.3918 10.6874 65.6458 10.9514 66.0418 11.3374L66.9219 12.2054C67.6699 12.9654 68.0299 13.4234 68.0299 14.3284V14.7284C68.0299 15.8514 67.4299 16.6454 66.0298 16.6454C64.6298 16.6454 64.0898 15.8624 64.0898 14.7884" fill="white"/>
<path d="M71.5765 12.9402H70.2515V16.5462H68.8755V8.36816H70.2515V11.8312H71.5765V8.36816H72.9615V16.5462H71.5765V12.9402Z" fill="white"/>
<rect x="73.8677" y="8.36816" width="1.37401" height="8.177" fill="white"/>
<path fill-rule="evenodd" clip-rule="evenodd" d="M78.1997 8.36816H76.1577V16.5462H77.5377V13.7722H78.1997C79.5867 13.7722 80.0927 13.0732 80.0927 11.9262V10.2022C80.0927 9.05516 79.5867 8.36816 78.1997 8.36816ZM77.5326 12.7102V9.48917H78.0326C78.5086 9.48917 78.7085 9.70817 78.7085 10.1532V12.0342C78.7085 12.4812 78.5036 12.7102 78.0326 12.7102H77.5326Z" fill="white"/>
<path d="M80.625 14.7844V13.6844H81.9V14.8054C81.9 15.2644 82.105 15.5294 82.576 15.5294C83.009 15.5294 83.203 15.2394 83.203 14.8054V14.5004C83.203 14.0294 83.009 13.7394 82.588 13.3414L81.78 12.5324C80.997 11.7624 80.635 11.2904 80.635 10.3514V10.0734C80.635 9.05944 81.227 8.27344 82.563 8.27344C83.938 8.27344 84.479 8.94844 84.479 10.1314V10.7944H83.229V10.0834C83.229 9.61144 83.011 9.38344 82.578 9.38344C82.192 9.38344 81.928 9.60144 81.928 10.0594V10.2284C81.928 10.6874 82.179 10.9514 82.578 11.3374L83.458 12.2054C84.205 12.9654 84.566 13.4234 84.566 14.3284V14.7284C84.566 15.8514 83.966 16.6454 82.566 16.6454C81.166 16.6454 80.626 15.8624 80.626 14.7884" fill="white"/>
<path d="M14.9628 8.38086V28.5419H11.5728V13.1089H11.5428L9.16377 15.5769H9.13477V12.0379L12.2578 8.38086H14.9628Z" fill="white"/>
<path d="M16.5098 8.38086H25.0158V11.5029L20.5838 28.5419H17.2218L21.7428 11.1459H16.5098V8.38086Z" fill="white"/>
<path d="M31.9126 20.2461H35.1826V21.3841H33.3086V23.7601H34.7046V24.8851H33.3086V28.5461H31.9126V20.2461Z" fill="white"/>
<path fill-rule="evenodd" clip-rule="evenodd" d="M35.6719 22.3884V26.4004H35.6819C35.6819 27.6854 36.2999 28.6404 37.7819 28.6404C39.2639 28.6404 39.8999 27.6854 39.8999 26.4004V22.3884C39.8999 21.0914 39.2359 20.1484 37.7719 20.1484C36.3079 20.1484 35.6719 21.0884 35.6719 22.3884ZM38.5087 22.1684V26.6204V26.6244C38.5087 27.1264 38.2767 27.4814 37.7867 27.4814C37.2967 27.4814 37.0777 27.1244 37.0777 26.6244V22.1684C37.0777 21.6664 37.2847 21.3114 37.7867 21.3114C38.2887 21.3114 38.5087 21.6684 38.5087 22.1684Z" fill="white"/>
<path fill-rule="evenodd" clip-rule="evenodd" d="M42.1998 28.5461V24.7391L43.5068 28.5431H44.9738L43.6408 24.7721C44.4358 24.5921 44.7548 24.0651 44.7548 23.1721V22.1071C44.7548 20.9461 44.2398 20.2461 42.8318 20.2461H40.7998V28.5461H42.1998ZM42.1996 23.9681V21.3841H42.6646C43.1416 21.3841 43.3506 21.6041 43.3506 22.0571V23.2821C43.3506 23.7231 43.1416 23.9681 42.6646 23.9681H42.1996Z" fill="white"/>
<path d="M46.9629 20.2461H50.6719V21.3841H49.5219V28.5461H48.1139V21.3841H46.9629V20.2461Z" fill="white"/>
<path d="M54.0628 24.8851H52.7158V28.5461H51.3208V20.2461H52.7158V23.7601H54.0628V20.2461H55.4708V28.5461H54.0628V24.8851Z" fill="white"/>
<path d="M56.3794 20.2461H59.7094V21.3841H57.7754V23.7601H59.1584V24.8851H57.7754V27.4081H59.7094V28.5461H56.3794V20.2461Z" fill="white"/>
<path d="M64.1679 24.1144H66.1509V28.5464H65.1509V27.6404C64.9679 28.2654 64.5759 28.6404 63.8169 28.6404C62.6169 28.6404 62.0659 27.6854 62.0659 26.4004V22.3884C62.0659 21.0884 62.6899 20.1484 64.1599 20.1484C65.7019 20.1484 66.1599 21.0054 66.1599 22.2294V22.9634H64.8779V22.1194C64.8779 21.6054 64.6779 21.3114 64.1779 21.3114C63.6779 21.3114 63.4559 21.6664 63.4559 22.1684V26.6244C63.4559 27.1244 63.6629 27.4814 64.1419 27.4814C64.5939 27.4814 64.8269 27.2234 64.8269 26.6814V25.2164H64.1659L64.1679 24.1144Z" fill="white"/>
<path fill-rule="evenodd" clip-rule="evenodd" d="M66.9468 22.3884V26.4004C66.9468 27.6854 67.5648 28.6404 69.0468 28.6404C70.5288 28.6404 71.1658 27.6854 71.1658 26.4004V22.3884C71.1658 21.0914 70.5108 20.1484 69.0468 20.1484C67.5828 20.1484 66.9468 21.0884 66.9468 22.3884ZM69.7749 22.1684V26.6204V26.6244C69.7749 27.1264 69.5409 27.4814 69.0519 27.4814C68.5629 27.4814 68.3429 27.1244 68.3429 26.6244V22.1684C68.3429 21.6664 68.5499 21.3114 69.0519 21.3114C69.5539 21.3114 69.7749 21.6684 69.7749 22.1684Z" fill="white"/>
<path fill-rule="evenodd" clip-rule="evenodd" d="M73.129 20.2461L71.562 28.5461H72.885L73.129 27.0271H74.611L74.867 28.5461H76.3L74.721 20.2461H73.129ZM74.4271 25.9141H73.3122L73.8642 22.5841H73.8752L74.4271 25.9141Z" fill="white"/>
<path d="M77.0991 20.2461H78.4951V27.4081H80.1591V28.5461H77.0991V20.2461Z" fill="white"/>
<path d="M80.6602 26.7594V25.6454H81.9602V26.7834C81.9602 27.2484 82.1692 27.5184 82.6452 27.5184C83.0872 27.5184 83.2831 27.2234 83.2831 26.7834V26.4654C83.2831 25.9874 83.0832 25.6944 82.6582 25.2894L81.8392 24.4704C81.0392 23.6864 80.6762 23.2094 80.6762 22.2534V21.9724C80.6762 20.9444 81.2762 20.1484 82.6342 20.1484C84.0341 20.1484 84.5811 20.8334 84.5811 22.0334V22.7064H83.3051V21.9854C83.3051 21.5074 83.0842 21.2744 82.6422 21.2744C82.2512 21.2744 81.9822 21.4954 81.9822 21.9604V22.1314C81.9822 22.5964 82.2402 22.8664 82.6422 23.2584L83.5361 24.1394C84.2961 24.9104 84.6641 25.3754 84.6641 26.2934V26.6934C84.6641 27.8324 84.0511 28.6404 82.6312 28.6404C81.2112 28.6404 80.6602 27.8404 80.6602 26.7554" fill="white"/>
<path fill-rule="evenodd" clip-rule="evenodd" d="M74.8258 60.6478C74.8258 53.6248 69.2388 47.8878 62.2788 47.6338C60.4411 42.4272 55.5198 38.9453 49.9983 38.9453C44.4769 38.9453 39.5556 42.4272 37.7178 47.6338C30.7588 47.8878 25.1738 53.6258 25.1738 60.6478C25.1742 64.6623 27.0293 68.4514 30.1998 70.9138C29.8597 72.0891 29.6867 73.3064 29.6858 74.5298C29.6858 81.7078 35.5288 87.5508 42.7118 87.5508C45.3363 87.5534 47.8995 86.7582 50.0618 85.2708C52.1991 86.7037 54.7147 87.4675 57.2878 87.4648C64.4698 87.4648 70.3128 81.6218 70.3128 74.4428C70.3126 73.2447 70.1467 72.0524 69.8198 70.8998C72.9778 68.4358 74.8244 64.6543 74.8258 60.6488V60.6478ZM60.3996 51.9698C60.3996 57.1838 56.5406 61.4998 51.5316 62.2458C51.4446 61.7168 51.3991 61.1819 51.3956 60.6458C51.4034 55.4987 55.173 51.1305 60.2636 50.3698C60.3502 50.8988 60.3957 51.4338 60.3996 51.9698ZM46.8843 74.5053C46.9031 77.2928 48.043 79.9553 50.047 81.8928C52.0254 79.9288 53.1298 77.251 53.111 74.4633C53.0922 71.6756 51.9518 69.0129 49.947 67.0758C47.9693 69.0402 46.8655 71.7179 46.8843 74.5053ZM39.733 50.3708L39.7358 50.3712C39.6494 50.8998 39.604 51.4343 39.6 51.9698C39.6 57.1838 43.456 61.4998 48.463 62.2478C48.5503 61.7189 48.5961 61.1839 48.6 60.6478C48.6 55.4338 44.7434 51.1174 39.7358 50.3712L39.736 50.3698L39.733 50.3708ZM41.4156 70.5405C44.0615 69.6798 46.2503 67.7912 47.4891 65.2998C45.0216 64.014 42.1407 63.7745 39.4947 64.6352C36.8487 65.4958 34.66 67.3844 33.4211 69.8758C35.8886 71.1616 38.7696 71.4011 41.4156 70.5405ZM52.4758 65.2298C54.9569 63.9266 57.8599 63.6834 60.5233 64.5557C63.1866 65.4279 65.3834 67.3413 66.6128 69.8598C64.1317 71.163 61.2287 71.4062 58.5653 70.534C55.902 69.6617 53.7053 67.7483 52.4758 65.2298ZM59.5347 47.8228C57.8816 44.0285 54.1384 41.5733 49.9997 41.5688C45.861 41.5736 42.1179 44.0287 40.4647 47.8228C44.6435 48.5681 48.1995 51.2977 49.9997 55.1418C51.8012 51.2988 55.3566 48.5697 59.5347 47.8228ZM27.7998 60.6478C27.8067 55.3372 31.8075 50.8819 37.0868 50.3058C36.5333 54.5196 38.0814 58.7369 41.2298 61.5918C36.9954 62.0809 33.2667 64.6074 31.2428 68.3588C29.0529 66.3935 27.8013 63.5903 27.7998 60.6478ZM32.5358 72.3738C32.3848 73.0825 32.3087 73.8052 32.3088 74.5298C32.3038 78.2545 34.2944 81.6965 37.5251 83.5499C40.7559 85.4034 44.732 85.3842 47.9448 83.4998C44.9946 80.4739 43.7045 76.1998 44.4878 72.0468C40.7933 74.0901 36.3366 74.2121 32.5358 72.3738ZM67.691 74.4428C67.6964 78.1464 65.7291 81.5725 62.5278 83.4348C59.3265 85.297 55.3757 85.3134 52.159 83.4778C55.0607 80.4309 56.3037 76.1655 55.493 72.0368C59.1964 74.0936 63.67 74.2156 67.48 72.3638C67.6204 73.0479 67.6911 73.7445 67.691 74.4428ZM63.0239 51.9698C63.0249 55.5946 61.5113 59.055 58.8489 61.5148C63.0745 62.0305 66.783 64.5749 68.7849 68.3318C71.8221 65.5851 72.9611 61.3098 71.6932 57.416C70.4252 53.5223 66.9871 50.7375 62.9149 50.3058C62.9861 50.8576 63.0225 51.4134 63.0239 51.9698Z" fill="white"/>
</svg>
