<svg width="100" height="100" viewBox="0 0 100 100" fill="none" xmlns="http://www.w3.org/2000/svg">
<rect width="100" height="100" fill="#56C02B"/>
<path d="M31.9561 8.37012V16.5481H34.9711V15.4261H33.3311V8.37012H31.9561Z" fill="white"/>
<rect x="35.7188" y="8.37012" width="1.37398" height="8.177" fill="white"/>
<path d="M37.9971 16.5481H39.3711V12.9411H40.7461V11.8321H39.3711V9.49212H41.2141V8.37012H37.9971V16.5481Z" fill="white"/>
<path d="M41.9395 16.5481H45.2174V15.4261H43.3134V12.9411H44.6764V11.8321H43.3134V9.49212H45.2174V8.37012H41.9395V16.5481Z" fill="white"/>
<path d="M7.32227 12.0291V15.5671H7.35227L9.73026 13.0991H9.76126V28.5331H13.1503V8.37012H10.4443L7.32227 12.0291Z" fill="white"/>
<path d="M21.21 14.7651C19.872 14.7651 18.891 15.2401 18.355 16.1651H18.325V11.1361H24.154V8.37207H15.233V19.7321H18.325V19.2841C18.325 18.0961 18.86 17.4411 19.811 17.4411C20.853 17.4411 21.27 18.1551 21.27 19.2561V24.1331C21.27 25.2021 20.883 25.9461 19.842 25.9461C18.683 25.9461 18.268 25.1731 18.268 23.9831V21.4561H15.168V23.7471C15.168 26.8091 16.387 28.7711 19.837 28.7711C23.257 28.7711 24.654 26.9571 24.654 24.1621V19.2251C24.654 16.0431 23.019 14.7651 21.205 14.7651" fill="white"/>
<path fill-rule="evenodd" clip-rule="evenodd" d="M31.9502 22.493V26.432C31.9502 27.695 32.5632 28.632 34.0172 28.632C35.4712 28.632 36.0952 27.694 36.0952 26.432V22.493C36.0952 21.218 35.4592 20.293 34.0172 20.293C32.5752 20.293 31.9502 21.219 31.9502 22.493ZM34.7253 22.276V26.648C34.7253 27.141 34.5013 27.49 34.0173 27.49C33.5333 27.49 33.3173 27.141 33.3173 26.648V22.276C33.3173 21.783 33.5253 21.435 34.0173 21.435C34.5093 21.435 34.7253 21.783 34.7253 22.276Z" fill="white"/>
<path d="M38.0241 23.4176V28.5336H36.8711V20.3896H38.2171L39.6941 25.0616V20.3896H40.8351V28.5336H39.6351L38.0241 23.4176Z" fill="white"/>
<path d="M43.8037 20.3896H45.1727V27.4166H46.8077V28.5336H43.8037V20.3896Z" fill="white"/>
<path fill-rule="evenodd" clip-rule="evenodd" d="M48.7489 20.3896L47.2109 28.5336H48.5099L48.7489 27.0446H50.1999L50.4549 28.5336H51.8609L50.3109 20.3896H48.7489ZM50.023 25.9517H48.93L49.47 22.6846H49.482L50.023 25.9517Z" fill="white"/>
<path d="M53.5739 23.4176V28.5336H52.4199V20.3896H53.7659L55.2429 25.0616V20.3896H56.3839V28.5336H55.1839L53.5739 23.4176Z" fill="white"/>
<path fill-rule="evenodd" clip-rule="evenodd" d="M61.3685 26.3486V22.5766C61.3685 21.3146 60.8525 20.3896 59.3865 20.3896H57.2725V28.5336H59.3865C60.8525 28.5336 61.3685 27.5966 61.3685 26.3486ZM59.9992 26.5886C59.9992 27.0806 59.7812 27.4166 59.2182 27.4166H58.6412V21.5067H59.2182C59.7812 21.5067 59.9992 21.8427 59.9992 22.3236V26.5886Z" fill="white"/>
<path d="M41.919 67.6123C41.9776 67.6123 42.0338 67.6356 42.0752 67.677C42.1167 67.7185 42.14 67.7747 42.14 67.8333V75.1153C42.1402 75.174 42.117 75.2304 42.0755 75.2719C42.034 75.3134 41.9777 75.3366 41.919 75.3363H38.973C38.9142 75.3366 38.8577 75.3134 38.8161 75.2719C38.7744 75.2305 38.751 75.1741 38.751 75.1153V67.8333C38.751 67.7745 38.7744 67.7182 38.8161 67.6767C38.8577 67.6352 38.9142 67.612 38.973 67.6123H41.919Z" fill="white"/>
<path d="M74.28 78.4629H25.7191C25.5951 78.4662 25.4965 78.5679 25.4971 78.6919V81.6599C25.4987 81.7812 25.5978 81.8785 25.7191 81.8779H74.28C74.4011 81.8774 74.4998 81.7809 74.503 81.6599V78.6919C74.5026 78.5679 74.4039 78.4667 74.28 78.4629Z" fill="white"/>
<path d="M74.28 84.3613H25.719C25.5987 84.3629 25.5016 84.4601 25.5 84.5803V87.5573C25.5022 87.6785 25.6008 87.7758 25.722 87.7763H74.28C74.4012 87.7753 74.4997 87.6785 74.503 87.5573V84.5803C74.5003 84.459 74.4014 84.3618 74.28 84.3613" fill="white"/>
<path d="M65.0391 59.5528C64.4331 59.0778 62.8131 57.9698 60.8391 57.9698C59.4271 57.9698 58.1141 58.5258 56.9391 59.6268C56.8569 59.7051 56.81 59.8133 56.8091 59.9268V60.2008C56.8031 60.3267 56.8541 60.4487 56.9481 60.5328C57.0428 60.6125 57.1698 60.6422 57.2901 60.6128C57.321 60.6078 57.3515 60.6001 57.3811 60.5898C57.4723 60.5567 57.5552 60.5041 57.6241 60.4358C57.8781 60.2648 58.5741 60.0358 59.5691 60.0358C60.5971 60.0358 62.6191 60.3118 64.5691 62.1358L64.6141 62.1758C64.7252 62.2891 64.8774 62.3526 65.0361 62.3518C65.1907 62.3524 65.3389 62.2903 65.4471 62.1798L65.4871 62.1388C67.4511 60.3148 69.4691 60.0388 70.4971 60.0388C71.4971 60.0388 72.1971 60.2728 72.4471 60.4388C72.5235 60.5126 72.6154 60.5686 72.7161 60.6028C72.8095 60.6251 72.907 60.6245 73.0001 60.6008C73.1804 60.5514 73.3055 60.3877 73.3061 60.2008V59.9668C73.3048 59.8534 73.2579 59.7453 73.1761 59.6668C71.9901 58.5368 70.6631 57.9668 69.2291 57.9668C67.2721 57.9668 65.6601 59.0578 65.0361 59.5518" fill="white"/>
<path d="M62.0257 40.2004C61.9218 40.2517 61.8447 40.3448 61.8137 40.4564L61.7647 40.6184C61.7269 40.7433 61.7506 40.8788 61.8287 40.9834C61.8991 41.0802 62.0092 41.1404 62.1287 41.1474C62.1489 41.1513 62.1696 41.1513 62.1897 41.1474C62.2714 41.1462 62.3516 41.1257 62.4237 41.0874C62.522 41.064 62.6227 41.053 62.7237 41.0544C62.9407 41.0544 64.8987 41.1204 66.1927 43.3204L66.2097 43.3524C66.2738 43.4748 66.3862 43.5647 66.5197 43.6004C66.5701 43.6153 66.6222 43.6233 66.6747 43.6244C66.76 43.6246 66.8441 43.604 66.9197 43.5644L66.9517 43.5484C67.6221 43.2035 68.3638 43.0199 69.1177 43.0124C70.3447 43.0124 71.1457 43.5124 71.3327 43.7214C71.3716 43.7916 71.4251 43.8527 71.4897 43.9004C71.5404 43.9298 71.5932 43.9552 71.6477 43.9764C71.6713 43.9824 71.6954 43.9858 71.7197 43.9864C71.734 43.988 71.7484 43.988 71.7627 43.9864C71.83 43.9861 71.8961 43.9696 71.9557 43.9384C72.0556 43.8871 72.13 43.7971 72.1617 43.6894L72.2027 43.5464C72.2146 43.5082 72.2204 43.4684 72.2197 43.4284C72.2203 43.3548 72.2006 43.2825 72.1627 43.2194C71.2197 41.5824 69.8517 41.2404 68.8687 41.2404C68.2715 41.2478 67.68 41.3588 67.1207 41.5684C66.6767 40.9684 65.5517 39.7334 63.8457 39.7334C63.2114 39.7419 62.5879 39.8995 62.0257 40.1934" fill="white"/>
<path d="M51.7651 47.6698L51.7791 47.8888C51.7866 48.0131 51.8495 48.1275 51.9505 48.2003C52.0515 48.2732 52.1798 48.2969 52.3001 48.2648C52.3243 48.2592 52.348 48.2518 52.3711 48.2428C52.4527 48.2091 52.5248 48.1559 52.5811 48.0878C52.7871 47.9388 53.4521 47.6668 54.4331 47.6668C55.3761 47.6668 56.8101 47.9188 58.2721 49.1198L58.3061 49.1548C58.4103 49.245 58.5433 49.2951 58.6811 49.2958H58.7171C58.8629 49.286 58.9993 49.2205 59.0981 49.1128L59.1301 49.0758C60.7491 47.3628 62.4921 47.1088 63.3871 47.1088C64.0251 47.1088 64.4771 47.2398 64.6531 47.3398C64.7266 47.4018 64.8131 47.4466 64.9061 47.4708C64.9987 47.4941 65.0961 47.4896 65.1861 47.4578C65.3607 47.396 65.473 47.2257 65.4611 47.0408L65.4501 46.8508C65.443 46.7386 65.3902 46.6341 65.3041 46.5618C64.3381 45.7488 63.2951 45.3398 62.1981 45.3398C60.4901 45.3398 59.1271 46.3478 58.5631 46.8398C58.0471 46.4878 56.7931 45.7638 55.3231 45.7638C54.0311 45.7638 52.8731 46.3008 51.8781 47.3558C51.8005 47.4403 51.7598 47.5523 51.7651 47.6668" fill="white"/>
<path d="M27.1914 51.5674C27.1909 50.1707 27.7453 48.831 28.7328 47.8432C29.7202 46.8554 31.0597 46.3004 32.4564 46.3004C32.5704 46.3004 32.6814 46.3104 32.7934 46.3174C33.0059 43.4578 34.9133 41.0048 37.6324 40.0943C40.3515 39.1838 43.3515 39.9935 45.2431 42.1486C47.1348 44.3037 47.5488 47.3833 46.2934 49.9614C50.2617 50.8372 52.9326 54.5621 52.4888 58.6015C52.0451 62.6409 48.6291 65.6971 44.5654 65.6904C44.2444 65.6904 33.9424 65.6284 33.9424 65.6284C31.6931 65.6319 29.6577 64.2959 28.766 62.2309C27.8743 60.1659 28.2976 57.7683 29.8424 56.1334C28.2034 55.1974 27.1917 53.4549 27.1914 51.5674Z" fill="white"/>
</svg>
