<svg width="24" height="25" viewBox="0 0 24 25" fill="none" xmlns="http://www.w3.org/2000/svg">
<g clip-path="url(#clip0_40_2715)">
<path d="M21.2808 19.3803C20.933 20.1838 20.5213 20.9235 20.0442 21.6035C19.394 22.5306 18.8616 23.1723 18.4513 23.5287C17.8153 24.1136 17.1338 24.4131 16.4041 24.4302C15.8802 24.4302 15.2485 24.2811 14.513 23.9787C13.7752 23.6777 13.0972 23.5287 12.4772 23.5287C11.827 23.5287 11.1296 23.6777 10.3837 23.9787C9.63662 24.2811 9.03481 24.4387 8.57468 24.4543C7.87491 24.4841 7.1774 24.176 6.48118 23.5287C6.03681 23.1411 5.48099 22.4767 4.81515 21.5354C4.10075 20.5302 3.51342 19.3647 3.05329 18.0358C2.56051 16.6005 2.31348 15.2106 2.31348 13.865C2.31348 12.3236 2.64654 10.9942 3.31366 9.88015C3.83796 8.9853 4.53546 8.27942 5.40844 7.76123C6.28142 7.24304 7.22468 6.97897 8.24048 6.96208C8.7963 6.96208 9.52518 7.134 10.431 7.47189C11.3342 7.81092 11.9141 7.98285 12.1684 7.98285C12.3585 7.98285 13.0028 7.78181 14.0949 7.38103C15.1278 7.00935 15.9995 6.85545 16.7136 6.91608C18.6487 7.07224 20.1024 7.83505 21.0693 9.20933C19.3386 10.2579 18.4826 11.7266 18.4996 13.6107C18.5152 15.0783 19.0476 16.2995 20.0939 17.2692C20.5681 17.7192 21.0977 18.067 21.6868 18.3141C21.5591 18.6846 21.4242 19.0395 21.2808 19.3803ZM16.8428 1.91643C16.8428 3.06669 16.4226 4.14069 15.5849 5.13477C14.5741 6.31653 13.3514 6.99941 12.0256 6.89166C12.0087 6.75366 11.9989 6.60843 11.9989 6.45581C11.9989 5.35156 12.4796 4.16979 13.3333 3.20354C13.7595 2.71431 14.3015 2.30752 14.9588 1.98301C15.6147 1.66335 16.2352 1.48657 16.8187 1.4563C16.8357 1.61007 16.8428 1.76385 16.8428 1.91641V1.91643Z" fill="black"/>
</g>
<defs>
<clipPath id="clip0_40_2715">
<rect width="24" height="24" fill="white" transform="translate(0 0.956299)"/>
</clipPath>
</defs>
</svg>
