<svg width="23" height="23" viewBox="0 0 23 23" fill="none" xmlns="http://www.w3.org/2000/svg">
<path d="M11.0239 5.03656C12.6035 5.01231 14.1311 5.59938 15.2861 6.67457L18.3971 3.63965C16.4011 1.7738 13.759 0.750675 11.0239 0.784504C8.98039 0.784033 6.97699 1.35071 5.23779 2.42116C3.49858 3.4916 2.09216 5.02362 1.17578 6.84588L4.74045 9.60691C5.17632 8.28472 6.01722 7.13238 7.14456 6.3124C8.27191 5.49241 9.62882 5.04616 11.0239 5.03656Z" fill="#E43E2B"/>
<path d="M21.6066 12.0267C21.6196 11.2707 21.5413 10.5159 21.3734 9.77856H11.0239V13.8604H17.0997C16.9844 14.576 16.7253 15.261 16.3378 15.8741C15.9504 16.4873 15.4426 17.0159 14.8451 17.4282L18.3239 20.1163C19.4081 19.072 20.2607 17.8125 20.8267 16.4191C21.3927 15.0257 21.6595 13.5294 21.6098 12.0267H21.6066Z" fill="#3B7DED"/>
<path d="M4.75326 13.9568C4.51224 13.2566 4.38798 12.5218 4.38545 11.7816C4.38984 11.0425 4.50964 10.3086 4.74054 9.60637L1.17587 6.84534C0.40272 8.37669 0 10.0675 0 11.7821C0 13.4967 0.40272 15.1875 1.17587 16.7189L4.75326 13.9568Z" fill="#F0B501"/>
<path d="M11.0239 22.7796C13.7091 22.8553 16.3214 21.9021 18.3239 20.1158L14.8451 17.4277C13.7171 18.1821 12.3813 18.5666 11.0239 18.5275C9.62998 18.5192 8.27405 18.0733 7.14847 17.2529C6.0229 16.4326 5.18482 15.2795 4.75315 13.9572L1.18848 16.7192C2.10238 18.5407 3.50651 20.0724 5.24361 21.1427C6.98071 22.2131 8.9822 22.7798 11.0239 22.7796Z" fill="#2BA24C"/>
</svg>
