<svg width="414" height="1080" viewBox="0 0 414 1080" fill="none" xmlns="http://www.w3.org/2000/svg">
<path d="M292.562 853.235L333.283 790.887L207.652 708.904L166.931 771.252L292.562 853.235Z" fill="#01739E"/>
<path d="M208.023 709.153L289.578 584.282L226.956 543.417L145.401 668.288L208.023 709.153Z" fill="#FFCE2F"/>
<path d="M458.451 872.58L540.113 747.547L415.046 665.933L333.384 790.966L458.451 872.58Z" fill="#01B0F1"/>
<path d="M414.795 666.249L496.627 540.955L370.708 458.785L288.876 584.079L414.795 666.249Z" fill="#476ACA"/>
<path d="M373.92 729.058L248.389 647.141C271.026 612.481 317.477 602.734 352.137 625.351C386.796 647.968 396.557 694.398 373.92 729.058Z" fill="#476ACA"/>
<path d="M434.054 499.314L496.818 540.271L455.608 603.369C421.033 580.536 411.372 534.043 434.054 499.314Z" fill="#FFCE2F"/>
<path d="M413.312 395.509L412.58 396.631L412.385 395.704L413.312 395.509Z" fill="#01B0F1"/>
<path d="M415.713 666.311L540.139 747.506L458.45 872.58C389.923 827.319 370.757 735.165 415.723 666.317L415.713 666.311Z" fill="#01739E"/>
<path d="M348.913 355.084C326.283 389.732 336.036 436.17 370.694 458.786L452.655 333.294C417.998 310.678 371.549 320.425 348.913 355.084Z" fill="#FFCE2F"/>
<path d="M370.7 458.791L433.492 499.767L515.454 374.275L452.662 333.299L370.7 458.791Z" fill="#01739E"/>
<path d="M376.87 373.128C364.224 392.492 369.673 418.434 389.041 431.073C408.409 443.712 434.362 438.261 447.009 418.898C459.655 399.535 454.206 373.592 434.838 360.953C415.47 348.314 389.517 353.765 376.87 373.128Z" fill="#EC3138"/>
<path d="M455.533 603.482L414.616 666.131L288.874 584.077C311.459 549.497 357.868 539.749 392.457 562.321L455.533 603.482Z" fill="#01B0F1"/>
<path d="M452.767 333.049L616.535 82.3008L555.468 42.4504L391.7 293.199L452.767 333.049Z" fill="#EC3138"/>
<path d="M298.578 744.268C301.265 757.062 313.821 765.255 326.622 762.566C339.423 759.878 347.622 747.327 344.934 734.533C342.246 721.739 329.69 713.546 316.889 716.235C304.088 718.923 295.89 731.474 298.578 744.268Z" fill="#01B0F1"/>
<path d="M226.909 543.79L308.877 418.288L205.128 440.088L226.909 543.79Z" fill="#01B0F1"/>
<path d="M290.24 446.827L245.55 515.253C226.653 502.921 221.337 477.608 233.675 458.716C246.014 439.825 271.337 434.506 290.234 446.837L290.24 446.827Z" fill="#476ACA"/>
<path d="M288.932 584.17L370.809 458.809L308.838 418.369L226.962 543.73L288.932 584.17Z" fill="#EC3138"/>
<path d="M296.109 475.433C299.478 488.065 312.455 495.573 325.094 492.204C337.732 488.834 345.246 475.862 341.877 463.23C338.508 450.599 325.531 443.09 312.892 446.46C300.254 449.829 292.739 462.801 296.109 475.433Z" fill="white"/>
<path d="M254.923 536.902C257.611 549.696 270.167 557.889 282.968 555.2C295.769 552.512 303.967 539.961 301.279 527.167C298.592 514.373 286.036 506.18 273.235 508.869C260.434 511.557 252.236 524.108 254.923 536.902Z" fill="white"/>
<path d="M555.461 42.443L491.908 0.970703L369.354 188.615L432.907 230.087L555.461 42.443Z" fill="#01739E"/>
<path d="M404.371 193.99C413.427 203.423 428.418 203.73 437.856 194.676C447.293 185.623 447.603 170.637 438.547 161.205C429.491 151.772 414.5 151.465 405.062 160.519C395.625 169.572 395.315 184.558 404.371 193.99Z" fill="#01B0F1"/>
<path d="M480.48 975.93L458.695 872.229L354.938 894.018L376.722 997.72L480.48 975.93Z" fill="#01B0F1"/>
<path d="M354.947 894.012L417.574 935.179L376.722 997.726L354.947 894.012Z" fill="#EC3138"/>
<path d="M391.871 293.278L433.075 230.19L369.359 188.612L328.155 251.7L391.871 293.278Z" fill="#EC3138"/>
<path d="M432.899 230.46L328.143 251.719L391.728 293.126L432.899 230.46Z" fill="#FFCE2F"/>
<path d="M186.119 605.525C186.119 605.525 155.138 587.408 149.379 559.249C143.62 531.09 164.217 502.814 164.217 502.814C164.217 502.814 194.162 520.197 199.931 548.363C205.7 576.529 186.129 605.532 186.129 605.532L186.119 605.525Z" fill="#01739E"/>
<path d="M289.047 584.275C289.047 584.275 259.99 563.214 231.882 569.273C203.764 575.326 186.163 605.556 186.163 605.556C186.163 605.556 214.132 625.965 242.25 619.913C270.368 613.86 289.057 584.282 289.057 584.282L289.047 584.275Z" fill="#476ACA"/>
<path d="M186.084 605.581C186.084 605.581 157.027 584.519 128.919 590.579C100.801 596.631 83.2 626.862 83.2 626.862C83.2 626.862 111.169 647.271 139.287 641.218C167.405 635.166 186.094 605.588 186.094 605.588L186.084 605.581Z" fill="#01739E"/>
<path d="M208.031 708.324C208.031 708.324 177.05 690.207 171.291 662.048C165.522 633.882 186.129 605.612 186.129 605.612C186.129 605.612 216.074 622.996 221.843 651.162C227.612 679.328 208.041 708.33 208.041 708.33L208.031 708.324Z" fill="#476ACA"/>
<path d="M269.938 749.671L310.455 687.635L248.402 647.142L207.885 709.177L269.938 749.671Z" fill="#01739E"/>
<path d="M310.455 687.635L269.931 749.681L207.869 709.181L310.455 687.635Z" fill="#01B0F1"/>
<path d="M63.6914 792.947L104.444 730.55L42.0312 689.821L1.27828 752.218L63.6914 792.947Z" fill="#FFCE2F"/>
<path d="M104.444 730.55L63.6914 792.947L1.26828 752.212L104.444 730.55Z" fill="#EC3138"/>
<path d="M145.19 668.142L82.7764 627.414L42.0234 689.811L104.437 730.539L145.19 668.142Z" fill="#476ACA"/>
<path d="M82.7771 627.414L145.2 668.148L104.441 730.555L82.7771 627.414Z" fill="#01B0F1"/>
<path d="M251.312 915.387L292.066 852.987L104.359 730.496L63.6047 792.895L251.312 915.387Z" fill="#01B0F1"/>
<path d="M222.907 879.887C231.903 889.376 246.892 889.778 256.386 880.783C265.881 871.789 266.284 856.806 257.288 847.317C248.292 837.828 233.303 837.427 223.808 846.421C214.314 855.415 213.91 870.398 222.907 879.887Z" fill="#476ACA"/>
<path d="M154.649 827.8C157.336 840.594 169.892 848.787 182.693 846.099C195.494 843.41 203.693 830.859 201.005 818.065C198.317 805.271 185.761 797.079 172.961 799.767C160.16 802.455 151.961 815.006 154.649 827.8Z" fill="#476ACA"/>
<path d="M98.3032 798.581C107.299 808.07 122.289 808.471 131.783 799.477C141.277 790.483 141.681 775.499 132.685 766.01C123.688 756.521 108.699 756.12 99.2048 765.114C89.7107 774.108 89.307 789.092 98.3032 798.581Z" fill="#476ACA"/>
<path d="M230.184 812.529L104.443 730.474L145.36 667.825L208.436 708.987C243.025 731.558 252.769 777.949 230.184 812.529Z" fill="#EC3138"/>
<path d="M458.688 872.224L354.939 894.014L292.067 853L333.378 790.951L458.688 872.224Z" fill="#FFCE2F"/>
<path d="M291.725 852.745C291.725 852.745 260.744 834.628 254.985 806.469C249.217 778.303 269.824 750.033 269.824 750.033C269.824 750.033 299.769 767.417 305.537 795.583C311.306 823.749 291.735 852.751 291.735 852.751L291.725 852.745Z" fill="#EC3138"/>
<path d="M313.671 956.037C313.671 956.037 282.69 937.92 276.931 909.761C271.162 881.595 291.769 853.325 291.769 853.325C291.769 853.325 321.714 870.709 327.483 898.875C333.252 927.041 313.681 956.043 313.681 956.043L313.671 956.037Z" fill="#EC3138"/>
<path d="M519.601 911.987L458.468 872.58L502.014 1079.58L541.95 1018.43L519.601 911.987Z" fill="#01739E"/>
<path d="M502.017 1079.58L480.48 975.931L376.725 997.731L502.017 1079.58Z" fill="#476ACA"/>
<path d="M315.889 308.022C318.577 320.816 331.133 329.009 343.934 326.32C356.734 323.632 364.933 311.081 362.245 298.287C359.558 285.493 347.002 277.3 334.201 279.989C321.4 282.677 313.201 295.228 315.889 308.022Z" fill="#01739E"/>
<path d="M274.959 370.712C277.647 383.507 290.203 391.699 303.004 389.011C315.805 386.322 324.003 373.771 321.316 360.977C318.628 348.183 306.072 339.991 293.271 342.679C280.47 345.367 272.272 357.918 274.959 370.712Z" fill="#01739E"/>
<path d="M308.87 418.289L246.041 377.432L205.118 440.089L308.87 418.289Z" fill="#FFCE2F"/>
</svg>
