<svg width="224" height="170" viewBox="0 0 224 170" fill="none" xmlns="http://www.w3.org/2000/svg">
<path d="M222.259 156.476L171.984 90.5917C168.98 86.6552 164.314 84.3472 159.36 84.3472H64.6358C59.6818 84.3472 55.0154 86.6552 52.0111 90.5917L1.74065 156.476C-2.48736 162.018 1.4667 170 8.44338 170H215.557C222.533 169.996 226.487 162.013 222.259 156.476Z" fill="url(#paint0_linear_40_3974)"/>
<path d="M4.57143 156.613C3.24276 156.613 2.00997 157.005 0.973513 157.676C-1.91213 163.099 1.95974 169.996 8.44331 169.996H215.557C222.04 169.996 225.912 163.099 223.026 157.676C221.99 157.005 220.757 156.613 219.428 156.613H4.57143Z" fill="#C9CDD3"/>
<path d="M90.419 118.229L126.389 156.613H111.687L79.8535 122.85L90.419 118.229Z" fill="white"/>
<path d="M165.245 85.4873C163.396 84.7484 161.405 84.3516 159.364 84.3516H141.092L14.5115 139.74L1.74075 156.476C1.54442 156.736 1.37091 157 1.20654 157.265L165.245 85.4873Z" fill="#FEE379"/>
<path d="M1.21094 157.265L79.8538 122.85L111.687 156.613L1.21094 157.265Z" fill="#FFE019"/>
<path d="M14.5112 139.74L141.091 84.3516H64.6356C59.6816 84.3516 55.0152 86.6596 52.0109 90.596L14.5112 139.74Z" fill="#69CA9F"/>
<path d="M189.932 114.115L186.047 109.024L162.377 119.36L140.698 96.2251L130.274 100.786L151.944 123.912L111.997 141.355L116.572 146.14L156.455 128.729L182.586 156.613H197.283L166.888 124.172L189.932 114.115Z" fill="#C9CDD3"/>
<path opacity="0.3" d="M174.181 93.4699L171.985 90.5917C168.98 86.6552 164.314 84.3472 159.36 84.3472H111.998V120.528L174.181 93.4699Z" fill="url(#paint1_linear_40_3974)"/>
<path d="M106.587 0.363504C88.4969 2.78102 74.6669 17.2633 72.9821 35.4175C71.8223 47.9064 76.5435 59.3189 84.6981 67.2283C87.8395 70.2753 90.7571 73.5275 93.4327 76.9576C101.026 86.687 106.226 98.063 108.916 110.1L111.08 119.789C111.176 120.222 111.559 120.528 112.002 120.528C112.445 120.528 112.829 120.222 112.924 119.789L115.221 109.489C117.833 97.7848 122.842 86.7144 130.174 77.2222C132.791 73.8377 135.658 70.6493 138.795 67.7164C146.424 60.5779 151.196 50.4243 151.196 39.1532C151.191 15.7489 130.645 -2.85681 106.587 0.363504Z" fill="url(#paint2_linear_40_3974)"/>
<path d="M120.589 50.8165C125.334 46.0764 125.334 38.3913 120.589 33.6513C115.844 28.9112 108.151 28.9112 103.407 33.6513C98.6618 38.3913 98.6618 46.0764 103.407 50.8165C108.151 55.5565 115.844 55.5565 120.589 50.8165Z" fill="white"/>
<defs>
<linearGradient id="paint0_linear_40_3974" x1="17.4794" y1="70.9068" x2="179.075" y2="205.362" gradientUnits="userSpaceOnUse">
<stop stop-color="#F6F8FF"/>
<stop offset="1" stop-color="#DEE0ED"/>
</linearGradient>
<linearGradient id="paint1_linear_40_3974" x1="186.172" y1="62.6488" x2="104.559" y2="112.496" gradientUnits="userSpaceOnUse">
<stop/>
<stop offset="1"/>
</linearGradient>
<linearGradient id="paint2_linear_40_3974" x1="123.209" y1="81.4474" x2="94.6037" y2="-14.9281" gradientUnits="userSpaceOnUse">
<stop stop-color="#EC3138"/>
<stop offset="0.3091" stop-color="#FF575D"/>
<stop offset="0.5137" stop-color="#FF757A"/>
<stop offset="0.7638" stop-color="#FF8589"/>
<stop offset="1" stop-color="#FF9397"/>
</linearGradient>
</defs>
</svg>
