<svg width="445" height="445" viewBox="0 0 599 599" fill="none" xmlns="http://www.w3.org/2000/svg">
<path d="M75.1036 299.17H149.585L149.585 149.13H75.1036L75.1036 299.17Z" fill="#01739E"/>
<path d="M149.585 149.585L298.763 149.585V74.7925L149.585 74.7925V149.585Z" fill="#FFCE2F"/>
<path d="M149.585 448.659H298.955V299.289H149.585L149.585 448.659Z" fill="#01B0F1"/>
<path d="M298.56 299.266H448.24V148.879L298.56 148.879V299.266Z" fill="#476ACA"/>
<path d="M223.6 299.385V149.465C265.005 149.465 298.56 183.032 298.56 224.425C298.56 265.818 265.005 299.385 223.6 299.385Z" fill="#476ACA"/>
<path d="M448.922 224.09V299.05H373.544C373.771 257.609 407.434 224.09 448.922 224.09Z" fill="#FFCE2F"/>
<path d="M448.898 261.786V299.05H411.227C411.442 278.432 428.22 261.786 448.898 261.786Z" fill="#01739E"/>
<path d="M299.002 300.055V448.659H149.585C150.04 366.519 216.755 300.067 299.002 300.067V300.055Z" fill="#01739E"/>
<path d="M298.955 374.776V448.647H224.282C224.701 407.768 257.956 374.776 298.955 374.776Z" fill="#FFCE2F"/>
<path d="M523.2 73.9189C481.807 73.9189 448.24 107.486 448.24 148.879L598.16 148.879C598.16 107.486 564.605 73.9189 523.2 73.9189Z" fill="#FFCE2F"/>
<path d="M448.24 148.879V223.875H598.16V148.879H448.24Z" fill="#01739E"/>
<path d="M523.368 107.199C500.236 107.199 481.484 125.951 481.484 149.082C481.484 172.214 500.236 190.966 523.368 190.966C546.499 190.966 565.251 172.214 565.251 149.082C565.251 125.951 546.499 107.199 523.368 107.199Z" fill="#EC3138"/>
<path d="M373.4 299.05H298.56V148.879C339.869 148.879 373.4 182.41 373.4 223.719V299.05Z" fill="#01B0F1"/>
<path d="M169.671 244.612C160.423 253.861 160.423 268.856 169.672 278.104C178.92 287.353 193.915 287.353 203.163 278.104C212.412 268.856 212.412 253.861 203.163 244.612C193.915 235.364 178.92 235.364 169.671 244.612Z" fill="#01B0F1"/>
<path d="M298.428 74.96L448.36 74.96L373.388 -7.62939e-06L298.428 74.96Z" fill="#01B0F1"/>
<path d="M414.267 74.96L332.521 74.96C332.521 52.3906 350.819 34.0934 373.388 34.0934C395.957 34.0934 414.255 52.3906 414.255 74.96H414.267Z" fill="#476ACA"/>
<path d="M298.512 148.987L448.276 148.987V74.972L298.512 74.972V148.987Z" fill="#EC3138"/>
<path d="M393.522 95.5258C384.782 105.256 385.585 120.23 395.315 128.97C405.046 137.709 420.019 136.906 428.759 127.176C437.499 117.445 436.696 102.472 426.965 93.7321C417.235 84.9922 402.261 85.7952 393.522 95.5258Z" fill="white"/>
<path d="M319.516 94.6546C310.267 103.903 310.267 118.898 319.516 128.146C328.764 137.395 343.759 137.395 353.008 128.146C362.256 118.898 362.256 103.903 353.008 94.6546C343.759 85.4061 328.764 85.4061 319.516 94.6546Z" fill="white"/>
<path d="M75.0413 523.622L150.004 448.658L75.0413 373.695L0.0782195 448.658L75.0413 523.622Z" fill="#01B0F1"/>
<path d="M75.0439 373.699L74.7927 448.659H0.0720367L75.0439 373.699Z" fill="#EC3138"/>
<path d="M75.0319 523.619L74.7926 448.659H150.004L75.0319 523.619Z" fill="#EC3138"/>
<path d="M299.002 374.202L373.998 374.609L373.962 299.242L299.002 374.202Z" fill="#476ACA"/>
<path d="M224.413 74.5652C224.413 74.5652 222.654 38.7127 243.093 18.4888C263.533 -1.73506 298.476 0.0480194 298.476 0.0480194C298.476 0.0480194 300.283 34.632 279.844 54.8679C259.404 75.1037 224.413 74.5772 224.413 74.5772V74.5652Z" fill="#01739E"/>
<path d="M298.476 149.13C298.476 149.13 300.235 113.278 279.796 93.0539C259.357 72.818 224.414 74.6131 224.414 74.6131C224.414 74.6131 222.607 109.197 243.046 129.433C263.485 149.669 298.476 149.142 298.476 149.142V149.13Z" fill="#476ACA"/>
<path d="M224.341 74.5652C224.341 74.5652 226.101 38.7127 205.661 18.4888C185.222 -1.74702 150.279 0.048027 150.279 0.048027C150.279 0.048027 148.472 34.6321 168.911 54.8679C189.351 75.1037 224.341 74.5772 224.341 74.5772V74.5652Z" fill="#01739E"/>
<path d="M150.279 149.13C150.279 149.13 148.52 113.278 168.959 93.0539C189.399 72.818 224.342 74.6131 224.342 74.6131C224.342 74.6131 226.149 109.197 205.709 129.433C185.27 149.669 150.279 149.142 150.279 149.142V149.13Z" fill="#476ACA"/>
<path d="M149.489 223.588H223.6V149.477H149.489V223.588Z" fill="#01739E"/>
<path d="M223.6 223.588H149.477V149.465L223.6 223.588Z" fill="#01B0F1"/>
<path d="M0.490616 74.5532L75.0317 74.5532L75.0317 0.0120621L0.490616 0.0120621L0.490616 74.5532Z" fill="#FFCE2F"/>
<path d="M75.0317 74.5532L0.490616 74.5532L0.490616 0.00012207L75.0317 74.5532Z" fill="#EC3138"/>
<path d="M149.585 74.5412V0L75.0438 0L75.0438 74.5412L149.585 74.5412Z" fill="#476ACA"/>
<path d="M149.585 0.00012207V74.5532L75.0318 74.5532L149.585 0.00012207Z" fill="#01B0F1"/>
<path d="M0.490616 298.619H75.0317L75.0317 74.4455H0.490616L0.490616 298.619Z" fill="#01B0F1"/>
<path d="M14.6998 255.416C11.6687 268.139 19.5257 280.911 32.249 283.942C44.9723 286.973 57.7438 279.116 60.7749 266.393C63.806 253.669 55.9489 240.898 43.2257 237.867C30.5024 234.836 17.7309 242.693 14.6998 255.416Z" fill="#476ACA"/>
<path d="M21.0177 169.773C11.7692 179.022 11.7691 194.017 21.0177 203.265C30.2662 212.514 45.261 212.514 54.5095 203.265C63.758 194.017 63.758 179.022 54.5095 169.774C45.261 160.525 30.2662 160.525 21.0177 169.773Z" fill="#476ACA"/>
<path d="M14.6939 106.614C11.6628 119.338 19.5198 132.109 32.2431 135.14C44.9664 138.171 57.7379 130.314 60.769 117.591C63.8001 104.868 55.9431 92.0961 43.2198 89.065C30.4965 86.0339 17.725 93.8909 14.6939 106.614Z" fill="#476ACA"/>
<path d="M75.1035 224.677L75.1035 74.5052H149.944L149.944 149.836C149.944 191.146 116.413 224.677 75.1035 224.677Z" fill="#EC3138"/>
<path d="M150.004 448.659L75.0439 373.699L75.0319 298.619L149.585 299.277L150.004 448.659Z" fill="#FFCE2F"/>
<path d="M75.0559 298.201C75.0559 298.201 73.2968 262.348 93.736 242.124C114.175 221.888 149.118 223.683 149.118 223.683C149.118 223.683 150.925 258.267 130.486 278.503C110.047 298.739 75.0559 298.213 75.0559 298.213V298.201Z" fill="#EC3138"/>
<path d="M0.526672 373.065C0.526672 373.065 -1.23246 337.212 19.2068 316.988C39.6461 296.753 74.5891 298.548 74.5891 298.548C74.5891 298.548 76.3961 333.132 55.9568 353.368C35.5175 373.603 0.526672 373.077 0.526672 373.077V373.065Z" fill="#EC3138"/>
<path d="M73.0453 598.34H226.95L149.992 521.405L73.0453 598.34Z" fill="#EC3138"/>
<path d="M149.992 521.405L149.585 448.659L-3.05176e-05 598.34H73.0452L149.992 521.405Z" fill="#01739E"/>
<path d="M0.000236511 598.34L75.0439 523.619L0.0720367 448.659L0.000236511 598.34Z" fill="#476ACA"/>
<path d="M544.572 20.5327C535.323 29.7812 535.323 44.776 544.572 54.0245C553.82 63.273 568.815 63.273 578.064 54.0245C587.312 44.776 587.312 29.7812 578.064 20.5327C568.815 11.2842 553.82 11.2842 544.572 20.5327Z" fill="#01739E"/>
<path d="M469.683 20.5455C460.434 29.794 460.434 44.7888 469.683 54.0373C478.931 63.2858 493.926 63.2858 503.175 54.0373C512.423 44.7888 512.423 29.794 503.175 20.5455C493.926 11.297 478.931 11.297 469.683 20.5455Z" fill="#01739E"/>
<path d="M448.36 74.96L448.24 -7.62939e-06L373.388 -7.62939e-06L448.36 74.96Z" fill="#FFCE2F"/>
</svg>
