<svg width="599" height="598" viewBox="0 0 599 598" fill="none" xmlns="http://www.w3.org/2000/svg">
<path d="M523.057 299.17H448.575V449.209H523.057V299.17Z" fill="#01739E"/>
<path d="M448.575 448.755H299.397V523.547H448.575V448.755Z" fill="#FFCE2F"/>
<path d="M448.576 149.681H299.206V299.05H448.576V149.681Z" fill="#01B0F1"/>
<path d="M299.601 299.074H149.92V449.461H299.601V299.074Z" fill="#476ACA"/>
<path d="M374.561 298.954V448.874C333.155 448.874 299.601 415.307 299.601 373.914C299.601 332.521 333.155 298.954 374.561 298.954Z" fill="#476ACA"/>
<path d="M149.238 374.249V299.289H224.617C224.39 340.73 190.727 374.249 149.238 374.249Z" fill="#FFCE2F"/>
<path d="M149.262 336.554V299.289H186.933C186.718 319.908 169.94 336.554 149.262 336.554Z" fill="#01739E"/>
<path d="M299.158 298.284V149.681H448.576C448.121 231.821 381.406 298.272 299.158 298.272V298.284Z" fill="#01739E"/>
<path d="M299.206 223.564V149.693H373.879C373.46 190.571 340.204 223.564 299.206 223.564Z" fill="#FFCE2F"/>
<path d="M74.96 524.421C116.353 524.421 149.92 490.854 149.92 449.461H0C0 490.854 33.5549 524.421 74.96 524.421Z" fill="#FFCE2F"/>
<path d="M149.92 449.461V374.465H-4.57764e-05V449.461H149.92Z" fill="#01739E"/>
<path d="M74.792 491.141C97.9237 491.141 116.676 472.389 116.676 449.257C116.676 426.126 97.9237 407.374 74.792 407.374C51.6602 407.374 32.9082 426.126 32.9082 449.257C32.9082 472.389 51.6602 491.141 74.792 491.141Z" fill="#EC3138"/>
<path d="M224.76 299.289H299.6V449.461C258.291 449.461 224.76 415.93 224.76 374.62V299.289Z" fill="#01B0F1"/>
<path d="M428.489 353.727C437.737 344.479 437.737 329.484 428.489 320.236C419.24 310.987 404.245 310.987 394.997 320.236C385.748 329.484 385.748 344.479 394.997 353.727C404.245 362.976 419.24 362.976 428.489 353.727Z" fill="#01B0F1"/>
<path d="M299.733 523.38H149.801L224.773 598.34L299.733 523.38Z" fill="#01B0F1"/>
<path d="M183.895 523.38H265.64C265.64 545.949 247.342 564.246 224.773 564.246C202.204 564.246 183.906 545.949 183.906 523.38H183.895Z" fill="#476ACA"/>
<path d="M299.648 449.353H149.884V523.368H299.648V449.353Z" fill="#EC3138"/>
<path d="M204.639 502.814C213.379 493.083 212.575 478.11 202.845 469.37C193.114 460.63 178.141 461.433 169.401 471.164C160.661 480.894 161.464 495.868 171.195 504.608C180.925 513.347 195.899 512.544 204.639 502.814Z" fill="white"/>
<path d="M278.644 503.685C287.892 494.437 287.892 479.442 278.644 470.193C269.395 460.945 254.401 460.945 245.152 470.193C235.904 479.442 235.904 494.437 245.152 503.685C254.401 512.934 269.395 512.934 278.644 503.685Z" fill="white"/>
<path d="M523.119 74.7181L448.156 149.681L523.119 224.644L598.082 149.681L523.119 74.7181Z" fill="#01B0F1"/>
<path d="M523.117 224.641L523.368 149.681H598.089L523.117 224.641Z" fill="#EC3138"/>
<path d="M523.128 74.7205L523.368 149.68H448.156L523.128 74.7205Z" fill="#EC3138"/>
<path d="M299.158 224.138L224.162 223.731L224.198 299.098L299.158 224.138Z" fill="#476ACA"/>
<path d="M373.747 523.774C373.747 523.774 375.506 559.627 355.067 579.851C334.627 600.075 299.684 598.292 299.684 598.292C299.684 598.292 297.877 563.708 318.317 543.472C338.756 523.236 373.747 523.763 373.747 523.763V523.774Z" fill="#01739E"/>
<path d="M299.684 449.209C299.684 449.209 297.925 485.062 318.365 505.286C338.804 525.522 373.747 523.727 373.747 523.727C373.747 523.727 375.554 489.142 355.115 468.907C334.675 448.671 299.684 449.197 299.684 449.197V449.209Z" fill="#476ACA"/>
<path d="M373.818 523.774C373.818 523.774 372.059 559.627 392.498 579.851C412.938 600.087 447.881 598.292 447.881 598.292C447.881 598.292 449.688 563.708 429.248 543.472C408.809 523.236 373.818 523.763 373.818 523.763V523.774Z" fill="#01739E"/>
<path d="M447.882 449.209C447.882 449.209 449.641 485.062 429.201 505.286C408.762 525.522 373.819 523.727 373.819 523.727C373.819 523.727 372.012 489.142 392.451 468.907C412.891 448.671 447.882 449.197 447.882 449.197V449.209Z" fill="#476ACA"/>
<path d="M448.671 374.752H374.561V448.862H448.671V374.752Z" fill="#01739E"/>
<path d="M374.561 374.752H448.683V448.874L374.561 374.752Z" fill="#01B0F1"/>
<path d="M597.669 523.786H523.128V598.328H597.669V523.786Z" fill="#FFCE2F"/>
<path d="M523.128 523.786H597.669V598.339L523.128 523.786Z" fill="#EC3138"/>
<path d="M448.575 523.798V598.34H523.116V523.798H448.575Z" fill="#476ACA"/>
<path d="M448.575 598.339V523.786H523.128L448.575 598.339Z" fill="#01B0F1"/>
<path d="M597.669 299.72H523.128V523.894H597.669V299.72Z" fill="#01B0F1"/>
<path d="M583.46 342.924C586.491 330.2 578.634 317.429 565.911 314.398C553.187 311.367 540.416 319.224 537.385 331.947C534.354 344.67 542.211 357.442 554.934 360.473C567.657 363.504 580.429 355.647 583.46 342.924Z" fill="#476ACA"/>
<path d="M577.142 428.566C586.39 419.317 586.391 404.323 577.142 395.074C567.894 385.826 552.899 385.826 543.65 395.074C534.402 404.323 534.402 419.317 543.65 428.566C552.899 437.814 567.893 437.815 577.142 428.566Z" fill="#476ACA"/>
<path d="M583.466 491.725C586.497 479.002 578.64 466.23 565.917 463.199C553.193 460.168 540.422 468.025 537.391 480.749C534.36 493.472 542.217 506.243 554.94 509.274C567.663 512.306 580.435 504.449 583.466 491.725Z" fill="#476ACA"/>
<path d="M523.056 373.663V523.834H448.216V448.503C448.216 407.194 481.747 373.663 523.056 373.663Z" fill="#EC3138"/>
<path d="M448.156 149.681L523.116 224.641L523.128 299.72L448.575 299.062L448.156 149.681Z" fill="#FFCE2F"/>
<path d="M523.104 300.139C523.104 300.139 524.863 335.992 504.424 356.215C483.985 376.451 449.042 374.656 449.042 374.656C449.042 374.656 447.235 340.072 467.674 319.836C488.113 299.601 523.104 300.127 523.104 300.127V300.139Z" fill="#EC3138"/>
<path d="M597.633 225.275C597.633 225.275 599.393 261.127 578.953 281.351C558.514 301.587 523.571 299.792 523.571 299.792C523.571 299.792 521.764 265.208 542.203 244.972C562.643 224.736 597.633 225.263 597.633 225.263V225.275Z" fill="#EC3138"/>
<path d="M525.115 0H371.21L448.168 76.9345L525.115 0Z" fill="#EC3138"/>
<path d="M448.168 76.9345L448.575 149.681L598.16 0H525.114L448.168 76.9345Z" fill="#01739E"/>
<path d="M598.16 0L523.116 74.7206L598.088 149.681L598.16 0Z" fill="#476ACA"/>
<path d="M53.5883 577.807C62.8368 568.558 62.8368 553.564 53.5883 544.315C44.3398 535.067 29.345 535.067 20.0965 544.315C10.848 553.564 10.848 568.558 20.0965 577.807C29.345 587.055 44.3398 587.055 53.5883 577.807Z" fill="#01739E"/>
<path d="M128.477 577.794C137.725 568.545 137.725 553.551 128.477 544.302C119.228 535.054 104.234 535.054 94.9851 544.302C85.7366 553.551 85.7366 568.545 94.9851 577.794C104.234 587.042 119.228 587.043 128.477 577.794Z" fill="#01739E"/>
<path d="M149.801 523.38L149.92 598.34H224.773L149.801 523.38Z" fill="#FFCE2F"/>
</svg>
