<svg width="200" height="200" viewBox="0 0 200 200" fill="none" xmlns="http://www.w3.org/2000/svg">
<g clip-path="url(#clip0_83_4610)">
<rect width="200" height="200" fill="white"/>
<mask id="path-1-inside-1_83_4610" fill="white">
<path d="M101.606 8.01401C101.683 3.59641 105.333 0.0445867 109.73 0.474485C115.891 1.07679 121.983 2.24987 127.926 3.97857C132.169 5.21244 134.239 9.86572 132.67 13.996L120.596 45.7801C119.027 49.9104 114.409 51.9179 110.082 51.027C109.664 50.941 109.246 50.8604 108.826 50.7852C104.477 50.0052 100.935 46.4264 101.012 42.0088L101.606 8.01401Z"/>
</mask>
<path d="M101.606 8.01401C101.683 3.59641 105.333 0.0445867 109.73 0.474485C115.891 1.07679 121.983 2.24987 127.926 3.97857C132.169 5.21244 134.239 9.86572 132.67 13.996L120.596 45.7801C119.027 49.9104 114.409 51.9179 110.082 51.027C109.664 50.941 109.246 50.8604 108.826 50.7852C104.477 50.0052 100.935 46.4264 101.012 42.0088L101.606 8.01401Z" fill="#E5243B" stroke="white" stroke-width="8" stroke-linejoin="round" mask="url(#path-1-inside-1_83_4610)"/>
<mask id="path-2-inside-2_83_4610" fill="white">
<path d="M135.001 14.9183C136.682 10.8322 141.375 8.85391 145.314 10.856C150.832 13.661 156.078 16.9724 160.984 20.7475C164.485 23.4419 164.718 28.5295 161.753 31.8045L138.931 57.0072C135.965 60.2823 130.933 60.4697 127.228 58.0637C126.87 57.8316 126.51 57.6041 126.146 57.3812C122.38 55.0707 120.385 50.4475 122.066 46.3615L135.001 14.9183Z"/>
</mask>
<path d="M135.001 14.9183C136.682 10.8322 141.375 8.85391 145.314 10.856C150.832 13.661 156.078 16.9724 160.984 20.7475C164.485 23.4419 164.718 28.5295 161.753 31.8045L138.931 57.0072C135.965 60.2823 130.933 60.4697 127.228 58.0637C126.87 57.8316 126.51 57.6041 126.146 57.3812C122.38 55.0707 120.385 50.4475 122.066 46.3615L135.001 14.9183Z" fill="#DDA63A" stroke="white" stroke-width="8" stroke-linejoin="round" mask="url(#path-2-inside-2_83_4610)"/>
<mask id="path-3-inside-3_83_4610" fill="white">
<path d="M163.909 33.8208C166.978 30.6425 172.07 30.5341 174.992 33.8475C179.087 38.4897 182.742 43.5022 185.911 48.8202C188.172 52.616 186.512 57.4308 182.548 59.3815L152.041 74.3927C148.077 76.3434 143.33 74.6621 140.773 71.0592C140.526 70.7116 140.275 70.3672 140.02 70.026C137.371 66.4897 137.221 61.4566 140.29 58.2783L163.909 33.8208Z"/>
</mask>
<path d="M163.909 33.8208C166.978 30.6425 172.07 30.5341 174.992 33.8475C179.087 38.4897 182.742 43.5022 185.911 48.8202C188.172 52.616 186.512 57.4308 182.548 59.3815L152.041 74.3927C148.077 76.3434 143.33 74.6621 140.773 71.0592C140.526 70.7116 140.275 70.3672 140.02 70.026C137.371 66.4897 137.221 61.4566 140.29 58.2783L163.909 33.8208Z" fill="#4C9F38" stroke="white" stroke-width="8" stroke-linejoin="round" mask="url(#path-3-inside-3_83_4610)"/>
<mask id="path-4-inside-4_83_4610" fill="white">
<path d="M183.95 62.3651C187.982 60.5577 192.748 62.3524 194.227 66.5156C196.3 72.3485 197.827 78.3613 198.788 84.4765C199.474 88.8412 196.141 92.6922 191.735 93.0271L157.833 95.604C153.428 95.9389 149.648 92.6117 148.616 88.3158C148.516 87.9013 148.411 87.4882 148.301 87.0764C147.159 82.8083 148.893 78.081 152.925 76.2736L183.95 62.3651Z"/>
</mask>
<path d="M183.95 62.3651C187.982 60.5577 192.748 62.3524 194.227 66.5156C196.3 72.3485 197.827 78.3613 198.788 84.4765C199.474 88.8412 196.141 92.6922 191.735 93.0271L157.833 95.604C153.428 95.9389 149.648 92.6117 148.616 88.3158C148.516 87.9013 148.411 87.4882 148.301 87.0764C147.159 82.8083 148.893 78.081 152.925 76.2736L183.95 62.3651Z" fill="#C5192D" stroke="white" stroke-width="8" stroke-linejoin="round" mask="url(#path-4-inside-4_83_4610)"/>
<mask id="path-5-inside-5_83_4610" fill="white">
<path d="M191.9 95.7017C196.313 95.4953 200.092 98.9099 199.945 103.326C199.739 109.512 198.959 115.667 197.615 121.709C196.656 126.022 192.145 128.386 187.923 127.086L155.429 117.076C151.207 115.775 148.907 111.295 149.519 106.92C149.578 106.497 149.631 106.075 149.68 105.651C150.179 101.261 153.523 97.4966 157.937 97.2902L191.9 95.7017Z"/>
</mask>
<path d="M191.9 95.7017C196.313 95.4953 200.092 98.9099 199.945 103.326C199.739 109.512 198.959 115.667 197.615 121.709C196.656 126.022 192.145 128.386 187.923 127.086L155.429 117.076C151.207 115.775 148.907 111.295 149.519 106.92C149.578 106.497 149.631 106.075 149.68 105.651C150.179 101.261 153.523 97.4966 157.937 97.2902L191.9 95.7017Z" fill="#FF3A21" stroke="white" stroke-width="8" stroke-linejoin="round" mask="url(#path-5-inside-5_83_4610)"/>
<mask id="path-6-inside-6_83_4610" fill="white">
<path d="M187.631 128.015C191.839 129.36 194.19 133.878 192.513 137.966C190.163 143.692 187.286 149.189 183.919 154.383C181.516 158.091 176.464 158.734 172.96 156.043L145.997 135.331C142.493 132.64 141.9 127.639 143.998 123.752C144.201 123.376 144.399 122.999 144.591 122.619C146.59 118.678 151.037 116.316 155.246 117.662L187.631 128.015Z"/>
</mask>
<path d="M187.631 128.015C191.839 129.36 194.19 133.878 192.513 137.966C190.163 143.692 187.286 149.189 183.919 154.383C181.516 158.091 176.464 158.734 172.96 156.043L145.997 135.331C142.493 132.64 141.9 127.639 143.998 123.752C144.201 123.376 144.399 122.999 144.591 122.619C146.59 118.678 151.037 116.316 155.246 117.662L187.631 128.015Z" fill="#26BDE2" stroke="white" stroke-width="8" stroke-linejoin="round" mask="url(#path-6-inside-6_83_4610)"/>
<mask id="path-7-inside-7_83_4610" fill="white">
<path d="M172.071 157.182C175.532 159.928 176.134 164.985 173.12 168.216C168.897 172.742 164.264 176.867 159.278 180.536C155.72 183.155 150.767 181.971 148.44 178.215L130.538 149.309C128.212 145.553 129.425 140.666 132.762 137.771C133.084 137.491 133.403 137.208 133.717 136.921C136.98 133.941 141.975 133.303 145.436 136.05L172.071 157.182Z"/>
</mask>
<path d="M172.071 157.182C175.532 159.928 176.134 164.985 173.12 168.216C168.897 172.742 164.264 176.867 159.278 180.536C155.72 183.155 150.767 181.971 148.44 178.215L130.538 149.309C128.212 145.553 129.425 140.666 132.762 137.771C133.084 137.491 133.403 137.208 133.717 136.921C136.98 133.941 141.975 133.303 145.436 136.05L172.071 157.182Z" fill="#FCC30B" stroke="white" stroke-width="8" stroke-linejoin="round" mask="url(#path-7-inside-7_83_4610)"/>
<mask id="path-8-inside-8_83_4610" fill="white">
<path d="M147.202 178.968C149.468 182.761 148.244 187.704 144.282 189.661C138.732 192.402 132.939 194.622 126.979 196.292C122.724 197.484 118.51 194.625 117.662 190.289L111.134 156.921C110.286 152.585 113.148 148.442 117.294 146.914C117.694 146.767 118.092 146.614 118.488 146.456C122.593 144.823 127.491 145.992 129.758 149.784L147.202 178.968Z"/>
</mask>
<path d="M147.202 178.968C149.468 182.761 148.244 187.704 144.282 189.661C138.732 192.402 132.939 194.622 126.979 196.292C122.724 197.484 118.51 194.625 117.662 190.289L111.134 156.921C110.286 152.585 113.148 148.442 117.294 146.914C117.694 146.767 118.092 146.614 118.488 146.456C122.593 144.823 127.491 145.992 129.758 149.784L147.202 178.968Z" fill="#A21942" stroke="white" stroke-width="8" stroke-linejoin="round" mask="url(#path-8-inside-8_83_4610)"/>
<mask id="path-9-inside-9_83_4610" fill="white">
<path d="M115.415 190.699C116.155 195.055 113.224 199.22 108.823 199.61C102.657 200.156 96.4533 200.129 90.2923 199.528C85.8949 199.099 83.001 194.908 83.78 190.559L89.7743 157.091C90.5533 152.742 94.7209 149.916 99.1385 149.993C99.5647 150 99.991 150.002 100.417 149.998C104.835 149.961 108.978 152.824 109.718 157.18L115.415 190.699Z"/>
</mask>
<path d="M115.415 190.699C116.155 195.055 113.224 199.22 108.823 199.61C102.657 200.156 96.4533 200.129 90.2923 199.528C85.8949 199.099 83.001 194.908 83.78 190.559L89.7743 157.091C90.5533 152.742 94.7209 149.916 99.1385 149.993C99.5647 150 99.991 150.002 100.417 149.998C104.835 149.961 108.978 152.824 109.718 157.18L115.415 190.699Z" fill="#FD6925" stroke="white" stroke-width="8" stroke-linejoin="round" mask="url(#path-9-inside-9_83_4610)"/>
<mask id="path-10-inside-10_83_4610" fill="white">
<path d="M81.6217 190.146C80.7391 194.475 76.5018 197.3 72.257 196.075C66.3098 194.357 60.5348 192.091 55.0066 189.306C51.0608 187.318 49.8756 182.365 52.1725 178.591L69.8479 149.546C72.1448 145.772 77.0517 144.642 81.1437 146.308C81.5385 146.469 81.9352 146.625 82.334 146.775C86.4673 148.336 89.2963 152.502 88.4137 156.831L81.6217 190.146Z"/>
</mask>
<path d="M81.6217 190.146C80.7391 194.475 76.5018 197.3 72.257 196.075C66.3098 194.357 60.5348 192.091 55.0066 189.306C51.0608 187.318 49.8756 182.365 52.1725 178.591L69.8479 149.546C72.1448 145.772 77.0517 144.642 81.1437 146.308C81.5385 146.469 81.9352 146.625 82.334 146.775C86.4673 148.336 89.2963 152.502 88.4137 156.831L81.6217 190.146Z" fill="#DD1367" stroke="white" stroke-width="8" stroke-linejoin="round" mask="url(#path-10-inside-10_83_4610)"/>
<mask id="path-11-inside-11_83_4610" fill="white">
<path d="M52.0416 178.511C49.7384 182.282 44.7925 183.496 41.2182 180.899C36.2104 177.261 31.5511 173.165 27.3007 168.664C24.2669 165.452 24.8379 160.392 28.2822 157.624L54.7866 136.328C58.2308 133.561 63.2295 134.168 66.5102 137.127C66.8267 137.413 67.1469 137.694 67.4706 137.972C70.8259 140.846 72.0685 145.726 69.7653 149.496L52.0416 178.511Z"/>
</mask>
<path d="M52.0416 178.511C49.7384 182.282 44.7925 183.496 41.2182 180.899C36.2104 177.261 31.5511 173.165 27.3007 168.664C24.2669 165.452 24.8379 160.392 28.2822 157.624L54.7866 136.328C58.2308 133.561 63.2295 134.168 66.5102 137.127C66.8267 137.413 67.1469 137.694 67.4706 137.972C70.8259 140.846 72.0685 145.726 69.7653 149.496L52.0416 178.511Z" fill="#FD9D24" stroke="white" stroke-width="8" stroke-linejoin="round" mask="url(#path-11-inside-11_83_4610)"/>
<mask id="path-12-inside-12_83_4610" fill="white">
<path d="M27.4118 156.524C23.9258 159.238 18.8695 158.629 16.4422 154.937C13.0415 149.765 10.1283 144.288 7.74035 138.577C6.03593 134.5 8.3569 129.967 12.5564 128.594L44.8725 118.027C49.0719 116.653 53.5344 118.986 55.5591 122.913C55.7545 123.292 55.9546 123.668 56.1596 124.042C58.2841 127.916 57.7239 132.92 54.2379 135.635L27.4118 156.524Z"/>
</mask>
<path d="M27.4118 156.524C23.9258 159.238 18.8695 158.629 16.4422 154.937C13.0415 149.765 10.1283 144.288 7.74035 138.577C6.03593 134.5 8.3569 129.967 12.5564 128.594L44.8725 118.027C49.0719 116.653 53.5344 118.986 55.5591 122.913C55.7545 123.292 55.9546 123.668 56.1596 124.042C58.2841 127.916 57.7239 132.92 54.2379 135.635L27.4118 156.524Z" fill="#BF8B2E" stroke="white" stroke-width="8" stroke-linejoin="round" mask="url(#path-12-inside-12_83_4610)"/>
<mask id="path-13-inside-13_83_4610" fill="white">
<path d="M11.6558 125.677C7.41308 126.91 2.94052 124.474 2.0504 120.146C0.803301 114.083 0.121876 107.917 0.0149238 101.728C-0.0614139 97.3101 3.77132 93.9564 8.18091 94.2333L42.114 96.3645C46.5236 96.6414 49.8073 100.459 50.2364 104.856C50.2778 105.28 50.3246 105.704 50.3768 106.127C50.9183 110.512 48.5474 114.954 44.3047 116.188L11.6558 125.677Z"/>
</mask>
<path d="M11.6558 125.677C7.41308 126.91 2.94052 124.474 2.0504 120.146C0.803301 114.083 0.121876 107.917 0.0149238 101.728C-0.0614139 97.3101 3.77132 93.9564 8.18091 94.2333L42.114 96.3645C46.5236 96.6414 49.8073 100.459 50.2364 104.856C50.2778 105.28 50.3246 105.704 50.3768 106.127C50.9183 110.512 48.5474 114.954 44.3047 116.188L11.6558 125.677Z" fill="#3F7E44" stroke="white" stroke-width="8" stroke-linejoin="round" mask="url(#path-13-inside-13_83_4610)"/>
<mask id="path-14-inside-14_83_4610" fill="white">
<path d="M8.22996 93.4993C3.82272 93.1871 0.47026 89.3533 1.13366 84.9851C2.06311 78.8651 3.55885 72.8445 5.60155 67.001C7.05953 62.8302 11.8164 61.011 15.8573 62.7977L46.9535 76.5463C50.9945 78.333 52.7532 83.0512 51.6332 87.3252C51.5251 87.7375 51.4224 88.1512 51.3249 88.5661C50.3145 92.8673 46.5522 96.2139 42.145 95.9017L8.22996 93.4993Z"/>
</mask>
<path d="M8.22996 93.4993C3.82272 93.1871 0.47026 89.3533 1.13366 84.9851C2.06311 78.8651 3.55885 72.8445 5.60155 67.001C7.05953 62.8302 11.8164 61.011 15.8573 62.7977L46.9535 76.5463C50.9945 78.333 52.7532 83.0512 51.6332 87.3252C51.5251 87.7375 51.4224 88.1512 51.3249 88.5661C50.3145 92.8673 46.5522 96.2139 42.145 95.9017L8.22996 93.4993Z" fill="#0A97D9" stroke="white" stroke-width="8" stroke-linejoin="round" mask="url(#path-14-inside-14_83_4610)"/>
<mask id="path-15-inside-15_83_4610" fill="white">
<path d="M17.0997 60.1059C13.1184 58.19 11.4166 53.3898 13.6446 49.5744C16.766 44.2289 20.3771 39.1846 24.4313 34.5067C27.3249 31.1679 32.4174 31.2317 35.5143 34.3829L59.346 58.6327C62.4429 61.784 62.3371 66.8182 59.7195 70.3776C59.467 70.721 59.2189 71.0676 58.9753 71.4173C56.4495 75.0425 51.718 76.7653 47.7368 74.8494L17.0997 60.1059Z"/>
</mask>
<path d="M17.0997 60.1059C13.1184 58.19 11.4166 53.3898 13.6446 49.5744C16.766 44.2289 20.3771 39.1846 24.4313 34.5067C27.3249 31.1679 32.4174 31.2317 35.5143 34.3829L59.346 58.6327C62.4429 61.784 62.3371 66.8182 59.7195 70.3776C59.467 70.721 59.2189 71.0676 58.9753 71.4173C56.4495 75.0425 51.718 76.7653 47.7368 74.8494L17.0997 60.1059Z" fill="#56C02B" stroke="white" stroke-width="8" stroke-linejoin="round" mask="url(#path-15-inside-15_83_4610)"/>
<mask id="path-16-inside-16_83_4610" fill="white">
<path d="M37.7877 32.2237C34.8 28.9687 34.9983 23.8797 38.4816 21.1617C43.3619 17.3535 48.5853 14.0067 54.0844 11.1644C58.0094 9.13575 62.7156 11.0823 64.4241 15.1569L77.5717 46.5119C79.2803 50.5865 77.3163 55.2231 73.566 57.5589C73.2042 57.7843 72.8453 58.0143 72.4893 58.2488C68.8 60.6798 63.7669 60.5264 60.7792 57.2714L37.7877 32.2237Z"/>
</mask>
<path d="M37.7877 32.2237C34.8 28.9687 34.9983 23.8797 38.4816 21.1617C43.3619 17.3535 48.5853 14.0067 54.0844 11.1644C58.0094 9.13575 62.7156 11.0823 64.4241 15.1569L77.5717 46.5119C79.2803 50.5865 77.3163 55.2231 73.566 57.5589C73.2042 57.7843 72.8453 58.0143 72.4893 58.2488C68.8 60.6798 63.7669 60.5264 60.7792 57.2714L37.7877 32.2237Z" fill="#00689D" stroke="white" stroke-width="8" stroke-linejoin="round" mask="url(#path-16-inside-16_83_4610)"/>
<mask id="path-17-inside-17_83_4610" fill="white">
<path d="M67.0302 14.1106C65.4468 9.98578 67.5004 5.3253 71.7386 4.07663C77.6764 2.32719 83.764 1.13286 89.9227 0.509052C94.3185 0.0638087 97.9808 3.60287 98.0733 8.02018L98.7854 42.0127C98.8779 46.43 95.3482 50.0212 91.0021 50.8163C90.5828 50.893 90.1645 50.9751 89.7473 51.0625C85.4229 51.9684 80.798 49.9771 79.2147 45.8523L67.0302 14.1106Z"/>
</mask>
<path d="M67.0302 14.1106C65.4468 9.98578 67.5004 5.3253 71.7386 4.07663C77.6764 2.32719 83.764 1.13286 89.9227 0.509052C94.3185 0.0638087 97.9808 3.60287 98.0733 8.02018L98.7854 42.0127C98.8779 46.43 95.3482 50.0212 91.0021 50.8163C90.5828 50.893 90.1645 50.9751 89.7473 51.0625C85.4229 51.9684 80.798 49.9771 79.2147 45.8523L67.0302 14.1106Z" fill="#19486A" stroke="white" stroke-width="8" stroke-linejoin="round" mask="url(#path-17-inside-17_83_4610)"/>
</g>
<defs>
<clipPath id="clip0_83_4610">
<rect width="200" height="200" fill="white"/>
</clipPath>
</defs>
</svg>
